OctagonVariable-Regular.ufo
<glyph name="exclam" format="2">
  <advance width="240"/>
  <unicode hex="0021"/>
  <outline>
    <contour>
      <point x="75" y="190" type="line"/>
      <point x="166" y="190" type="line"/>
      <point x="166" y="210" type="line"/>
      <point x="75" y="210" type="line"/>
    </contour>
    <contour>
      <point x="75" y="190" type="line"/>
      <point x="95" y="190" type="line"/>
      <point x="30" y="600" type="line"/>
      <point x="10" y="600" type="line"/>
    </contour>
    <contour>
      <point x="110" y="200" type="line"/>
      <point x="130" y="200" type="line"/>
      <point x="130" y="513" type="line"/>
      <point x="110" y="513" type="line"/>
    </contour>
    <contour>
      <point x="146" y="190" type="line"/>
      <point x="166" y="190" type="line"/>
      <point x="230" y="600" type="line"/>
      <point x="210" y="600" type="line"/>
    </contour>
    <contour>
      <point x="112" y="496" type="line"/>
      <point x="125" y="511" type="line"/>
      <point x="31" y="595" type="line"/>
      <point x="18" y="580" type="line"/>
    </contour>
    <contour>
      <point x="19" y="580" type="line"/>
      <point x="220" y="580" type="line"/>
      <point x="220" y="600" type="line"/>
      <point x="19" y="600" type="line"/>
    </contour>
    <contour>
      <point x="127" y="496" type="line"/>
      <point x="221" y="580" type="line"/>
      <point x="208" y="595" type="line"/>
      <point x="114" y="511" type="line"/>
    </contour>
    <contour>
      <point x="37" y="0" type="line"/>
      <point x="202" y="0" type="line"/>
      <point x="202" y="18" type="line"/>
      <point x="37" y="18" type="line"/>
    </contour>
    <contour>
      <point x="51" y="0" type="line"/>
      <point x="122" y="69" type="line"/>
      <point x="113" y="89" type="line"/>
      <point x="37" y="14" type="line"/>
    </contour>
    <contour>
      <point x="188" y="0" type="line"/>
      <point x="202" y="14" type="line"/>
      <point x="125" y="90" type="line"/>
      <point x="116" y="70" type="line"/>
    </contour>
    <contour>
      <point x="37" y="0" type="line"/>
      <point x="57" y="0" type="line"/>
      <point x="57" y="165" type="line"/>
      <point x="37" y="165" type="line"/>
    </contour>
    <contour>
      <point x="113" y="74" type="line"/>
      <point x="126" y="74" type="line"/>
      <point x="126" y="91" type="line"/>
      <point x="113" y="91" type="line"/>
    </contour>
    <contour>
      <point x="182" y="0" type="line"/>
      <point x="202" y="0" type="line"/>
      <point x="202" y="165" type="line"/>
      <point x="182" y="165" type="line"/>
    </contour>
    <contour>
      <point x="114" y="76" type="line"/>
      <point x="123" y="96" type="line"/>
      <point x="51" y="165" type="line"/>
      <point x="37" y="151" type="line"/>
    </contour>
    <contour>
      <point x="40" y="147" type="line"/>
      <point x="202" y="147" type="line"/>
      <point x="202" y="165" type="line"/>
      <point x="40" y="165" type="line"/>
    </contour>
    <contour>
      <point x="125" y="76" type="line"/>
      <point x="201" y="151" type="line"/>
      <point x="187" y="165" type="line"/>
      <point x="116" y="96" type="line"/>
    </contour>
  </outline>
</glyph>
<glyph name="numbersign" format="2">
  <advance width="585"/>
  <unicode hex="0023"/>
  <outline>
    <contour>
      <point x="192" y="422" type="line"/>
      <point x="209" y="422" type="line"/>
      <point x="275" y="600" type="line"/>
      <point x="258" y="600" type="line"/>
    </contour>
    <contour>
      <point x="272" y="422" type="line"/>
      <point x="290" y="422" type="line"/>
      <point x="356" y="600" type="line"/>
      <point x="338" y="600" type="line"/>
    </contour>
    <contour>
      <point x="279" y="535" type="line"/>
      <point x="291" y="550" type="line"/>
      <point x="269" y="600" type="line"/>
      <point x="255" y="585" type="line"/>
    </contour>
    <contour>
      <point x="284" y="534" type="line"/>
      <point x="349" y="584" type="line"/>
      <point x="343" y="600" type="line"/>
      <point x="278" y="549" type="line"/>
    </contour>
    <contour>
      <point x="258" y="580" type="line"/>
      <point x="349" y="580" type="line"/>
      <point x="349" y="600" type="line"/>
      <point x="258" y="600" type="line"/>
    </contour>
    <contour>
      <point x="106" y="65" type="line"/>
      <point x="94" y="50" type="line"/>
      <point x="121" y="0" type="line"/>
      <point x="135" y="15" type="line"/>
    </contour>
    <contour>
      <point x="101" y="66" type="line"/>
      <point x="41" y="16" type="line"/>
      <point x="47" y="0" type="line"/>
      <point x="108" y="51" type="line"/>
    </contour>
    <contour>
      <point x="133" y="20" type="line"/>
      <point x="42" y="20" type="line"/>
      <point x="42" y="0" type="line"/>
      <point x="133" y="0" type="line"/>
    </contour>
    <contour>
      <point x="230" y="422" type="line"/>
      <point x="247" y="422" type="line"/>
      <point x="295" y="552" type="line"/>
      <point x="280" y="558" type="line"/>
    </contour>
    <contour>
      <point x="321" y="258" type="line"/>
      <point x="338" y="258" type="line"/>
      <point x="465" y="600" type="line"/>
      <point x="448" y="600" type="line"/>
    </contour>
    <contour>
      <point x="401" y="258" type="line"/>
      <point x="419" y="258" type="line"/>
      <point x="546" y="600" type="line"/>
      <point x="528" y="600" type="line"/>
    </contour>
    <contour>
      <point x="469" y="535" type="line"/>
      <point x="481" y="550" type="line"/>
      <point x="459" y="600" type="line"/>
      <point x="445" y="585" type="line"/>
    </contour>
    <contour>
      <point x="474" y="534" type="line"/>
      <point x="539" y="584" type="line"/>
      <point x="533" y="600" type="line"/>
      <point x="468" y="549" type="line"/>
    </contour>
    <contour>
      <point x="448" y="580" type="line"/>
      <point x="539" y="580" type="line"/>
      <point x="539" y="600" type="line"/>
      <point x="448" y="600" type="line"/>
    </contour>
    <contour>
      <point x="296" y="65" type="line"/>
      <point x="284" y="50" type="line"/>
      <point x="311" y="0" type="line"/>
      <point x="325" y="15" type="line"/>
    </contour>
    <contour>
      <point x="291" y="66" type="line"/>
      <point x="231" y="16" type="line"/>
      <point x="237" y="0" type="line"/>
      <point x="298" y="51" type="line"/>
    </contour>
    <contour>
      <point x="323" y="20" type="line"/>
      <point x="232" y="20" type="line"/>
      <point x="232" y="0" type="line"/>
      <point x="323" y="0" type="line"/>
    </contour>
    <contour>
      <point x="359" y="258" type="line"/>
      <point x="377" y="258" type="line"/>
      <point x="485" y="552" type="line"/>
      <point x="470" y="558" type="line"/>
    </contour>
    <contour>
      <point x="22" y="174" type="line"/>
      <point x="22" y="265" type="line"/>
      <point x="5" y="265" type="line"/>
      <point x="5" y="174" type="line"/>
    </contour>
    <contour>
      <point x="53" y="211" type="line"/>
      <point x="121" y="211" type="line"/>
      <point x="127" y="228" type="line"/>
      <point x="53" y="228" type="line"/>
    </contour>
    <contour>
      <point x="5" y="248" type="line"/>
      <point x="133" y="248" type="line"/>
      <point x="139" y="265" type="line"/>
      <point x="5" y="265" type="line"/>
    </contour>
    <contour>
      <point x="71" y="225" type="line"/>
      <point x="21" y="265" type="line"/>
      <point x="7" y="255" type="line"/>
      <point x="58" y="215" type="line"/>
    </contour>
    <contour>
      <point x="5" y="191" type="line"/>
      <point x="5" y="174" type="line"/>
      <point x="106" y="174" type="line"/>
      <point x="112" y="191" type="line"/>
    </contour>
    <contour>
      <point x="71" y="214" type="line"/>
      <point x="58" y="224" type="line"/>
      <point x="7" y="184" type="line"/>
      <point x="21" y="174" type="line"/>
    </contour>
    <contour>
      <point x="501" y="265" type="line"/>
      <point x="501" y="174" type="line"/>
      <point x="518" y="174" type="line"/>
      <point x="518" y="265" type="line"/>
    </contour>
    <contour>
      <point x="201" y="211" type="line"/>
      <point x="470" y="211" type="line"/>
      <point x="470" y="228" type="line"/>
      <point x="207" y="228" type="line"/>
    </contour>
    <contour>
      <point x="452" y="214" type="line"/>
      <point x="502" y="174" type="line"/>
      <point x="516" y="184" type="line"/>
      <point x="465" y="224" type="line"/>
    </contour>
    <contour>
      <point x="452" y="225" type="line"/>
      <point x="465" y="215" type="line"/>
      <point x="516" y="255" type="line"/>
      <point x="502" y="265" type="line"/>
    </contour>
    <contour>
      <point x="518" y="265" type="line"/>
      <point x="221" y="265" type="line"/>
      <point x="215" y="248" type="line"/>
      <point x="518" y="248" type="line"/>
    </contour>
    <contour>
      <point x="518" y="191" type="line"/>
      <point x="191" y="191" type="line"/>
      <point x="185" y="174" type="line"/>
      <point x="518" y="174" type="line"/>
    </contour>
    <contour>
      <point x="558" y="426" type="line"/>
      <point x="558" y="335" type="line"/>
      <point x="575" y="335" type="line"/>
      <point x="575" y="426" type="line"/>
    </contour>
    <contour>
      <point x="527" y="389" type="line"/>
      <point x="459" y="389" type="line"/>
      <point x="453" y="372" type="line"/>
      <point x="527" y="372" type="line"/>
    </contour>
    <contour>
      <point x="575" y="352" type="line"/>
      <point x="447" y="352" type="line"/>
      <point x="441" y="335" type="line"/>
      <point x="575" y="335" type="line"/>
    </contour>
    <contour>
      <point x="509" y="375" type="line"/>
      <point x="559" y="335" type="line"/>
      <point x="573" y="345" type="line"/>
      <point x="522" y="385" type="line"/>
    </contour>
    <contour>
      <point x="575" y="409" type="line"/>
      <point x="575" y="426" type="line"/>
      <point x="474" y="426" type="line"/>
      <point x="468" y="409" type="line"/>
    </contour>
    <contour>
      <point x="509" y="386" type="line"/>
      <point x="522" y="376" type="line"/>
      <point x="573" y="416" type="line"/>
      <point x="559" y="426" type="line"/>
    </contour>
    <contour>
      <point x="79" y="335" type="line"/>
      <point x="79" y="426" type="line"/>
      <point x="62" y="426" type="line"/>
      <point x="62" y="335" type="line"/>
    </contour>
    <contour>
      <point x="379" y="389" type="line"/>
      <point x="110" y="389" type="line"/>
      <point x="110" y="372" type="line"/>
      <point x="373" y="372" type="line"/>
    </contour>
    <contour>
      <point x="395" y="426" type="line"/>
      <point x="62" y="426" type="line"/>
      <point x="62" y="409" type="line"/>
      <point x="389" y="409" type="line"/>
    </contour>
    <contour>
      <point x="128" y="386" type="line"/>
      <point x="78" y="426" type="line"/>
      <point x="64" y="416" type="line"/>
      <point x="115" y="376" type="line"/>
    </contour>
    <contour>
      <point x="365" y="352" type="line"/>
      <point x="62" y="352" type="line"/>
      <point x="62" y="335" type="line"/>
      <point x="359" y="335" type="line"/>
    </contour>
    <contour>
      <point x="128" y="375" type="line"/>
      <point x="115" y="385" type="line"/>
      <point x="64" y="345" type="line"/>
      <point x="78" y="335" type="line"/>
    </contour>
    <contour>
      <point x="180" y="344" type="line"/>
      <point x="162" y="344" type="line"/>
      <point x="34" y="0" type="line"/>
      <point x="52" y="0" type="line"/>
    </contour>
    <contour>
      <point x="218" y="344" type="line"/>
      <point x="200" y="344" type="line"/>
      <point x="93" y="55" type="line"/>
      <point x="108" y="44" type="line"/>
    </contour>
    <contour>
      <point x="261" y="344" type="line"/>
      <point x="243" y="344" type="line"/>
      <point x="115" y="0" type="line"/>
      <point x="133" y="0" type="line"/>
    </contour>
    <contour>
      <point x="308" y="178" type="line"/>
      <point x="290" y="178" type="line"/>
      <point x="224" y="0" type="line"/>
      <point x="242" y="0" type="line"/>
    </contour>
    <contour>
      <point x="347" y="178" type="line"/>
      <point x="329" y="178" type="line"/>
      <point x="283" y="55" type="line"/>
      <point x="298" y="44" type="line"/>
    </contour>
    <contour>
      <point x="389" y="178" type="line"/>
      <point x="371" y="178" type="line"/>
      <point x="305" y="0" type="line"/>
      <point x="323" y="0" type="line"/>
    </contour>
  </outline>
</glyph>
<glyph name="plus" format="2">
  <advance width="461"/>
  <unicode hex="002B"/>
  <outline>
    <contour>
      <point x="262" y="113" type="line"/>
      <point x="280" y="113" type="line"/>
      <point x="280" y="489" type="line"/>
      <point x="262" y="489" type="line"/>
    </contour>
    <contour>
      <point x="15" y="264" type="line"/>
      <point x="32" y="264" type="line"/>
      <point x="32" y="349" type="line"/>
      <point x="15" y="349" type="line"/>
    </contour>
    <contour>
      <point x="31" y="264" type="line"/>
      <point x="81" y="301" type="line"/>
      <point x="68" y="311" type="line"/>
      <point x="17" y="274" type="line"/>
    </contour>
    <contour>
      <point x="189" y="113" type="line"/>
      <point x="280" y="113" type="line"/>
      <point x="280" y="131" type="line"/>
      <point x="189" y="131" type="line"/>
    </contour>
    <contour>
      <point x="194" y="113" type="line"/>
      <point x="239" y="164" type="line"/>
      <point x="232" y="179" type="line"/>
      <point x="188" y="129" type="line"/>
    </contour>
    <contour>
      <point x="15" y="264" type="line"/>
      <point x="188" y="264" type="line"/>
      <point x="188" y="281" type="line"/>
      <point x="15" y="281" type="line"/>
    </contour>
    <contour>
      <point x="68" y="302" type="line"/>
      <point x="81" y="312" type="line"/>
      <point x="31" y="349" type="line"/>
      <point x="17" y="339" type="line"/>
    </contour>
    <contour>
      <point x="266" y="114" type="line"/>
      <point x="279" y="126" type="line"/>
      <point x="234" y="176" type="line"/>
      <point x="223" y="163" type="line"/>
    </contour>
    <contour>
      <point x="63" y="298" type="line"/>
      <point x="188" y="298" type="line"/>
      <point x="188" y="315" type="line"/>
      <point x="63" y="315" type="line"/>
    </contour>
    <contour>
      <point x="15" y="332" type="line"/>
      <point x="188" y="332" type="line"/>
      <point x="188" y="349" type="line"/>
      <point x="15" y="349" type="line"/>
    </contour>
    <contour>
      <point x="181" y="113" type="line"/>
      <point x="199" y="113" type="line"/>
      <point x="199" y="489" type="line"/>
      <point x="181" y="489" type="line"/>
    </contour>
    <contour>
      <point x="239" y="157" type="line"/>
      <point x="239" y="449" type="line"/>
      <point x="224" y="449" type="line"/>
      <point x="224" y="157" type="line"/>
    </contour>
    <contour>
      <point x="277" y="265" type="line"/>
      <point x="446" y="265" type="line"/>
      <point x="446" y="282" type="line"/>
      <point x="277" y="282" type="line"/>
    </contour>
    <contour>
      <point x="277" y="299" type="line"/>
      <point x="398" y="299" type="line"/>
      <point x="398" y="316" type="line"/>
      <point x="277" y="316" type="line"/>
    </contour>
    <contour>
      <point x="229" y="439" type="line"/>
      <point x="240" y="452" type="line"/>
      <point x="195" y="501" type="line"/>
      <point x="182" y="489" type="line"/>
    </contour>
    <contour>
      <point x="430" y="265" type="line"/>
      <point x="444" y="275" type="line"/>
      <point x="393" y="312" type="line"/>
      <point x="380" y="302" type="line"/>
    </contour>
    <contour>
      <point x="277" y="333" type="line"/>
      <point x="446" y="333" type="line"/>
      <point x="446" y="350" type="line"/>
      <point x="277" y="350" type="line"/>
    </contour>
    <contour>
      <point x="231" y="436" type="line"/>
      <point x="273" y="486" type="line"/>
      <point x="267" y="502" type="line"/>
      <point x="224" y="451" type="line"/>
    </contour>
    <contour>
      <point x="181" y="484" type="line"/>
      <point x="280" y="484" type="line"/>
      <point x="280" y="502" type="line"/>
      <point x="181" y="502" type="line"/>
    </contour>
    <contour>
      <point x="393" y="303" type="line"/>
      <point x="444" y="340" type="line"/>
      <point x="430" y="350" type="line"/>
      <point x="380" y="313" type="line"/>
    </contour>
    <contour>
      <point x="429" y="265" type="line"/>
      <point x="446" y="265" type="line"/>
      <point x="446" y="350" type="line"/>
      <point x="429" y="350" type="line"/>
    </contour>
  </outline>
</glyph>
<glyph name="slash" format="2">
  <advance width="352"/>
  <unicode hex="002F"/>
  <outline>
    <contour>
      <point x="18" y="-40" type="line"/>
      <point x="271" y="640" type="line"/>
      <point x="254" y="640" type="line"/>
      <point x="0" y="-40" type="line"/>
    </contour>
    <contour>
      <point x="99" y="-40" type="line"/>
      <point x="352" y="640" type="line"/>
      <point x="334" y="640" type="line"/>
      <point x="81" y="-40" type="line"/>
    </contour>
    <contour>
      <point x="275" y="575" type="line"/>
      <point x="287" y="590" type="line"/>
      <point x="265" y="640" type="line"/>
      <point x="251" y="625" type="line"/>
    </contour>
    <contour>
      <point x="280" y="574" type="line"/>
      <point x="345" y="624" type="line"/>
      <point x="339" y="640" type="line"/>
      <point x="274" y="589" type="line"/>
    </contour>
    <contour>
      <point x="254" y="620" type="line"/>
      <point x="345" y="620" type="line"/>
      <point x="345" y="640" type="line"/>
      <point x="254" y="640" type="line"/>
    </contour>
    <contour>
      <point x="72" y="25" type="line"/>
      <point x="60" y="10" type="line"/>
      <point x="87" y="-40" type="line"/>
      <point x="101" y="-25" type="line"/>
    </contour>
    <contour>
      <point x="67" y="26" type="line"/>
      <point x="7" y="-24" type="line"/>
      <point x="13" y="-40" type="line"/>
      <point x="74" y="11" type="line"/>
    </contour>
    <contour>
      <point x="99" y="-20" type="line"/>
      <point x="8" y="-20" type="line"/>
      <point x="8" y="-40" type="line"/>
      <point x="99" y="-40" type="line"/>
    </contour>
    <contour>
      <point x="74" y="4" type="line"/>
      <point x="291" y="592" type="line"/>
      <point x="276" y="598" type="line"/>
      <point x="59" y="15" type="line"/>
    </contour>
  </outline>
</glyph>
<glyph name="zero" format="2">
  <advance width="480"/>
  <unicode hex="0030"/>
  <outline>
    <contour>
      <point x="456" y="446" type="line"/>
      <point x="470" y="460" type="line"/>
      <point x="340" y="600" type="line"/>
      <point x="326" y="586" type="line"/>
    </contour>
    <contour>
      <point x="140" y="0" type="line"/>
      <point x="154" y="14" type="line"/>
      <point x="24" y="153" type="line"/>
      <point x="10" y="139" type="line"/>
    </contour>
    <contour>
      <point x="154" y="7" type="line"/>
      <point x="188" y="82" type="line"/>
      <point x="171" y="88" type="line"/>
      <point x="137" y="13" type="line"/>
    </contour>
    <contour>
      <point x="26" y="136" type="line"/>
      <point x="125" y="148" type="line"/>
      <point x="119" y="166" type="line"/>
      <point x="20" y="154" type="line"/>
    </contour>
    <contour>
      <point x="140" y="0" type="line"/>
      <point x="340" y="0" type="line"/>
      <point x="340" y="18" type="line"/>
      <point x="140" y="18" type="line"/>
    </contour>
    <contour>
      <point x="175" y="71" type="line"/>
      <point x="189" y="85" type="line"/>
      <point x="124" y="168" type="line"/>
      <point x="110" y="154" type="line"/>
    </contour>
    <contour>
      <point x="186" y="77" type="line"/>
      <point x="228" y="142" type="line"/>
      <point x="212" y="153" type="line"/>
      <point x="170" y="87" type="line"/>
    </contour>
    <contour>
      <point x="175" y="69" type="line"/>
      <point x="305" y="69" type="line"/>
      <point x="305" y="87" type="line"/>
      <point x="175" y="87" type="line"/>
    </contour>
    <contour>
      <point x="10" y="139" type="line"/>
      <point x="30" y="139" type="line"/>
      <point x="30" y="460" type="line"/>
      <point x="10" y="460" type="line"/>
    </contour>
    <contour>
      <point x="127" y="150" type="line"/>
      <point x="216" y="174" type="line"/>
      <point x="210" y="192" type="line"/>
      <point x="121" y="168" type="line"/>
    </contour>
    <contour>
      <point x="330" y="7" type="line"/>
      <point x="347" y="13" type="line"/>
      <point x="309" y="88" type="line"/>
      <point x="292" y="82" type="line"/>
    </contour>
    <contour>
      <point x="212" y="135" type="line"/>
      <point x="229" y="147" type="line"/>
      <point x="218" y="184" type="line"/>
      <point x="200" y="176" type="line"/>
    </contour>
    <contour>
      <point x="212" y="139" type="line"/>
      <point x="268" y="139" type="line"/>
      <point x="268" y="157" type="line"/>
      <point x="212" y="157" type="line"/>
    </contour>
    <contour>
      <point x="294" y="77" type="line"/>
      <point x="310" y="87" type="line"/>
      <point x="268" y="153" type="line"/>
      <point x="252" y="142" type="line"/>
    </contour>
    <contour>
      <point x="110" y="155" type="line"/>
      <point x="130" y="155" type="line"/>
      <point x="130" y="445" type="line"/>
      <point x="110" y="445" type="line"/>
    </contour>
    <contour>
      <point x="268" y="135" type="line"/>
      <point x="280" y="176" type="line"/>
      <point x="262" y="184" type="line"/>
      <point x="251" y="147" type="line"/>
    </contour>
    <contour>
      <point x="305" y="71" type="line"/>
      <point x="370" y="154" type="line"/>
      <point x="356" y="168" type="line"/>
      <point x="291" y="85" type="line"/>
    </contour>
    <contour>
      <point x="340" y="0" type="line"/>
      <point x="470" y="139" type="line"/>
      <point x="456" y="153" type="line"/>
      <point x="326" y="14" type="line"/>
    </contour>
    <contour>
      <point x="353" y="150" type="line"/>
      <point x="359" y="168" type="line"/>
      <point x="270" y="192" type="line"/>
      <point x="264" y="174" type="line"/>
    </contour>
    <contour>
      <point x="200" y="176" type="line"/>
      <point x="220" y="176" type="line"/>
      <point x="220" y="423" type="line"/>
      <point x="200" y="423" type="line"/>
    </contour>
    <contour>
      <point x="119" y="432" type="line"/>
      <point x="125" y="451" type="line"/>
      <point x="26" y="463" type="line"/>
      <point x="20" y="444" type="line"/>
    </contour>
    <contour>
      <point x="454" y="136" type="line"/>
      <point x="460" y="154" type="line"/>
      <point x="361" y="166" type="line"/>
      <point x="355" y="148" type="line"/>
    </contour>
    <contour>
      <point x="260" y="176" type="line"/>
      <point x="280" y="176" type="line"/>
      <point x="280" y="423" type="line"/>
      <point x="260" y="423" type="line"/>
    </contour>
    <contour>
      <point x="210" y="407" type="line"/>
      <point x="216" y="425" type="line"/>
      <point x="127" y="449" type="line"/>
      <point x="121" y="431" type="line"/>
    </contour>
    <contour>
      <point x="24" y="446" type="line"/>
      <point x="154" y="586" type="line"/>
      <point x="140" y="600" type="line"/>
      <point x="10" y="460" type="line"/>
    </contour>
    <contour>
      <point x="124" y="431" type="line"/>
      <point x="189" y="514" type="line"/>
      <point x="175" y="528" type="line"/>
      <point x="110" y="445" type="line"/>
    </contour>
    <contour>
      <point x="218" y="415" type="line"/>
      <point x="229" y="452" type="line"/>
      <point x="212" y="464" type="line"/>
      <point x="200" y="423" type="line"/>
    </contour>
    <contour>
      <point x="350" y="155" type="line"/>
      <point x="370" y="155" type="line"/>
      <point x="370" y="445" type="line"/>
      <point x="350" y="445" type="line"/>
    </contour>
    <contour>
      <point x="212" y="446" type="line"/>
      <point x="228" y="457" type="line"/>
      <point x="186" y="522" type="line"/>
      <point x="170" y="512" type="line"/>
    </contour>
    <contour>
      <point x="212" y="446" type="line"/>
      <point x="268" y="446" type="line"/>
      <point x="268" y="464" type="line"/>
      <point x="212" y="464" type="line"/>
    </contour>
    <contour>
      <point x="262" y="415" type="line"/>
      <point x="280" y="423" type="line"/>
      <point x="268" y="464" type="line"/>
      <point x="251" y="452" type="line"/>
    </contour>
    <contour>
      <point x="171" y="511" type="line"/>
      <point x="188" y="517" type="line"/>
      <point x="153" y="591" type="line"/>
      <point x="136" y="585" type="line"/>
    </contour>
    <contour>
      <point x="270" y="407" type="line"/>
      <point x="359" y="431" type="line"/>
      <point x="353" y="449" type="line"/>
      <point x="264" y="425" type="line"/>
    </contour>
    <contour>
      <point x="175" y="510" type="line"/>
      <point x="305" y="510" type="line"/>
      <point x="305" y="528" type="line"/>
      <point x="175" y="528" type="line"/>
    </contour>
    <contour>
      <point x="450" y="139" type="line"/>
      <point x="470" y="139" type="line"/>
      <point x="470" y="460" type="line"/>
      <point x="450" y="460" type="line"/>
    </contour>
    <contour>
      <point x="268" y="446" type="line"/>
      <point x="310" y="512" type="line"/>
      <point x="294" y="522" type="line"/>
      <point x="252" y="457" type="line"/>
    </contour>
    <contour>
      <point x="356" y="431" type="line"/>
      <point x="370" y="445" type="line"/>
      <point x="305" y="528" type="line"/>
      <point x="291" y="514" type="line"/>
    </contour>
    <contour>
      <point x="140" y="582" type="line"/>
      <point x="340" y="582" type="line"/>
      <point x="340" y="600" type="line"/>
      <point x="140" y="600" type="line"/>
    </contour>
    <contour>
      <point x="361" y="433" type="line"/>
      <point x="460" y="445" type="line"/>
      <point x="454" y="463" type="line"/>
      <point x="355" y="451" type="line"/>
    </contour>
    <contour>
      <point x="309" y="511" type="line"/>
      <point x="343" y="585" type="line"/>
      <point x="326" y="591" type="line"/>
      <point x="292" y="517" type="line"/>
    </contour>
  </outline>
</glyph>
<glyph name="two" format="2">
  <advance width="486"/>
  <unicode hex="0032"/>
  <outline>
    <contour>
      <point x="144" y="236" type="line"/>
      <point x="375" y="394" type="line"/>
      <point x="365" y="409" type="line"/>
      <point x="132" y="249" type="line"/>
    </contour>
    <contour>
      <point x="21" y="0" type="line"/>
      <point x="41" y="0" type="line"/>
      <point x="41" y="149" type="line"/>
      <point x="21" y="149" type="line"/>
    </contour>
    <contour>
      <point x="49" y="8" type="line"/>
      <point x="95" y="106" type="line"/>
      <point x="79" y="118" type="line"/>
      <point x="31" y="18" type="line"/>
    </contour>
    <contour>
      <point x="80" y="100" type="line"/>
      <point x="92" y="115" type="line"/>
      <point x="38" y="159" type="line"/>
      <point x="26" y="142" type="line"/>
    </contour>
    <contour>
      <point x="26" y="0" type="line"/>
      <point x="476" y="0" type="line"/>
      <point x="476" y="20" type="line"/>
      <point x="26" y="20" type="line"/>
    </contour>
    <contour>
      <point x="40" y="141" type="line"/>
      <point x="110" y="274" type="line"/>
      <point x="88" y="279" type="line"/>
      <point x="21" y="149" type="line"/>
    </contour>
    <contour>
      <point x="74" y="106" type="line"/>
      <point x="95" y="106" type="line"/>
      <point x="149" y="238" type="line"/>
      <point x="131" y="246" type="line"/>
    </contour>
    <contour>
      <point x="93" y="105" type="line"/>
      <point x="234" y="203" type="line"/>
      <point x="221" y="217" type="line"/>
      <point x="83" y="120" type="line"/>
    </contour>
    <contour>
      <point x="80" y="100" type="line"/>
      <point x="364" y="100" type="line"/>
      <point x="364" y="120" type="line"/>
      <point x="80" y="120" type="line"/>
    </contour>
    <contour>
      <point x="139" y="235" type="line"/>
      <point x="145" y="255" type="line"/>
      <point x="102" y="283" type="line"/>
      <point x="90" y="266" type="line"/>
    </contour>
    <contour>
      <point x="219" y="200" type="line"/>
      <point x="236" y="214" type="line"/>
      <point x="144" y="254" type="line"/>
      <point x="138" y="236" type="line"/>
    </contour>
    <contour>
      <point x="10" y="381" type="line"/>
      <point x="28" y="391" type="line"/>
      <point x="28" y="493" type="line"/>
      <point x="10" y="496" type="line"/>
    </contour>
    <contour>
      <point x="452" y="14" type="line"/>
      <point x="465" y="26" type="line"/>
      <point x="359" y="119" type="line"/>
      <point x="345" y="106" type="line"/>
    </contour>
    <contour>
      <point x="10" y="381" type="line"/>
      <point x="194" y="381" type="line"/>
      <point x="194" y="401" type="line"/>
      <point x="10" y="401" type="line"/>
    </contour>
    <contour>
      <point x="104" y="268" type="line"/>
      <point x="273" y="393" type="line"/>
      <point x="264" y="409" type="line"/>
      <point x="88" y="279" type="line"/>
    </contour>
    <contour>
      <point x="229" y="202" type="line"/>
      <point x="366" y="253" type="line"/>
      <point x="361" y="270" type="line"/>
      <point x="219" y="217" type="line"/>
    </contour>
    <contour>
      <point x="19" y="485" type="line"/>
      <point x="98" y="462" type="line"/>
      <point x="180" y="430" type="line"/>
      <point x="187" y="447" type="line"/>
      <point x="105" y="479" type="line"/>
      <point x="26" y="501" type="line"/>
    </contour>
    <contour>
      <point x="221" y="198" type="line"/>
      <point x="471" y="198" type="line"/>
      <point x="471" y="215" type="line"/>
      <point x="221" y="215" type="line"/>
    </contour>
    <contour>
      <point x="360" y="101" type="line"/>
      <point x="473" y="205" type="line"/>
      <point x="458" y="215" type="line"/>
      <point x="346" y="112" type="line"/>
    </contour>
    <contour>
      <point x="456" y="11" type="line"/>
      <point x="476" y="11" type="line"/>
      <point x="476" y="215" type="line"/>
      <point x="456" y="215" type="line"/>
    </contour>
    <contour>
      <point x="194" y="381" type="line"/>
      <point x="194" y="444" type="line"/>
      <point x="176" y="444" type="line"/>
      <point x="176" y="391" type="line"/>
    </contour>
    <contour>
      <point x="20" y="478" type="line"/>
      <point x="132" y="585" type="line"/>
      <point x="119" y="600" type="line"/>
      <point x="10" y="496" type="line"/>
    </contour>
    <contour>
      <point x="110" y="462" type="line"/>
      <point x="176" y="526" type="line"/>
      <point x="164" y="542" type="line"/>
      <point x="96" y="477" type="line"/>
    </contour>
    <contour>
      <point x="187" y="429" type="line"/>
      <point x="222" y="452" type="line"/>
      <point x="211" y="467" type="line"/>
      <point x="176" y="444" type="line"/>
    </contour>
    <contour>
      <point x="211" y="446" type="line"/>
      <point x="245" y="446" type="line"/>
      <point x="245" y="467" type="line"/>
      <point x="211" y="467" type="line"/>
    </contour>
    <contour>
      <point x="210" y="446" type="line"/>
      <point x="227" y="453" type="line"/>
      <point x="177" y="535" type="line"/>
      <point x="161" y="526" type="line"/>
    </contour>
    <contour>
      <point x="254" y="394" type="line"/>
      <point x="272" y="394" type="line"/>
      <point x="272" y="448" type="line"/>
      <point x="254" y="448" type="line"/>
    </contour>
    <contour>
      <point x="352" y="261" type="line"/>
      <point x="370" y="261" type="line"/>
      <point x="381" y="407" type="line"/>
      <point x="363" y="407" type="line"/>
    </contour>
    <contour>
      <point x="366" y="253" type="line"/>
      <point x="471" y="351" type="line"/>
      <point x="460" y="363" type="line"/>
      <point x="353" y="264" type="line"/>
    </contour>
    <contour>
      <point x="260" y="432" type="line"/>
      <point x="271" y="447" type="line"/>
      <point x="245" y="467" type="line"/>
      <point x="235" y="452" type="line"/>
    </contour>
    <contour>
      <point x="163" y="526" type="line"/>
      <point x="180" y="536" type="line"/>
      <point x="131" y="595" type="line"/>
      <point x="114" y="584" type="line"/>
    </contour>
    <contour>
      <point x="258" y="389" type="line"/>
      <point x="373" y="400" type="line"/>
      <point x="373" y="418" type="line"/>
      <point x="258" y="408" type="line"/>
    </contour>
    <contour>
      <point x="255" y="449" type="line"/>
      <point x="302" y="533" type="line"/>
      <point x="284" y="539" type="line"/>
      <point x="236" y="455" type="line"/>
    </contour>
    <contour>
      <point x="170" y="524" type="line"/>
      <point x="293" y="524" type="line"/>
      <point x="295" y="544" type="line"/>
      <point x="170" y="544" type="line"/>
    </contour>
    <contour>
      <point x="256" y="429" type="line"/>
      <point x="375" y="473" type="line"/>
      <point x="371" y="490" type="line"/>
      <point x="253" y="446" type="line"/>
    </contour>
    <contour>
      <point x="458" y="349" type="line"/>
      <point x="464" y="366" type="line"/>
      <point x="374" y="419" type="line"/>
      <point x="368" y="401" type="line"/>
    </contour>
    <contour>
      <point x="365" y="404" type="line"/>
      <point x="383" y="404" type="line"/>
      <point x="383" y="485" type="line"/>
      <point x="365" y="485" type="line"/>
    </contour>
    <contour>
      <point x="122" y="580" type="line"/>
      <point x="365" y="580" type="line"/>
      <point x="365" y="600" type="line"/>
      <point x="119" y="600" type="line"/>
    </contour>
    <contour>
      <point x="375" y="470" type="line"/>
      <point x="387" y="485" type="line"/>
      <point x="295" y="544" type="line"/>
      <point x="283" y="529" type="line"/>
    </contour>
    <contour>
      <point x="298" y="526" type="line"/>
      <point x="372" y="582" type="line"/>
      <point x="358" y="595" type="line"/>
      <point x="283" y="539" type="line"/>
    </contour>
    <contour>
      <point x="453" y="351" type="line"/>
      <point x="471" y="351" type="line"/>
      <point x="471" y="515" type="line"/>
      <point x="453" y="515" type="line"/>
    </contour>
    <contour>
      <point x="374" y="473" type="line"/>
      <point x="465" y="499" type="line"/>
      <point x="461" y="517" type="line"/>
      <point x="371" y="491" type="line"/>
    </contour>
    <contour>
      <point x="460" y="499" type="line"/>
      <point x="471" y="515" type="line"/>
      <point x="365" y="600" type="line"/>
      <point x="353" y="584" type="line"/>
    </contour>
  </outline>
</glyph>
<glyph name="six" format="2">
  <advance width="501"/>
  <unicode hex="0036"/>
  <outline>
    <contour>
      <point x="25" y="293" type="line"/>
      <point x="211" y="600" type="line"/>
      <point x="191" y="600" type="line"/>
      <point x="10" y="302" type="line"/>
    </contour>
    <contour>
      <point x="119" y="0" type="line"/>
      <point x="132" y="15" type="line"/>
      <point x="25" y="136" type="line"/>
      <point x="10" y="123" type="line"/>
    </contour>
    <contour>
      <point x="129" y="5" type="line"/>
      <point x="179" y="81" type="line"/>
      <point x="163" y="90" type="line"/>
      <point x="113" y="13" type="line"/>
    </contour>
    <contour>
      <point x="26" y="118" type="line"/>
      <point x="117" y="142" type="line"/>
      <point x="110" y="160" type="line"/>
      <point x="21" y="135" type="line"/>
    </contour>
    <contour>
      <point x="10" y="123" type="line"/>
      <point x="30" y="123" type="line"/>
      <point x="30" y="308" type="line"/>
      <point x="10" y="302" type="line"/>
    </contour>
    <contour>
      <point x="166" y="75" type="line"/>
      <point x="178" y="91" type="line"/>
      <point x="113" y="160" type="line"/>
      <point x="99" y="146" type="line"/>
    </contour>
    <contour>
      <point x="119" y="0" type="line"/>
      <point x="375" y="0" type="line"/>
      <point x="375" y="20" type="line"/>
      <point x="119" y="20" type="line"/>
    </contour>
    <contour>
      <point x="111" y="141" type="line"/>
      <point x="207" y="173" type="line"/>
      <point x="200" y="189" type="line"/>
      <point x="106" y="159" type="line"/>
    </contour>
    <contour>
      <point x="180" y="82" type="line"/>
      <point x="237" y="154" type="line"/>
      <point x="223" y="164" type="line"/>
      <point x="165" y="93" type="line"/>
    </contour>
    <contour>
      <point x="99" y="146" type="line"/>
      <point x="119" y="146" type="line"/>
      <point x="119" y="285" type="line"/>
      <point x="99" y="285" type="line"/>
    </contour>
    <contour>
      <point x="166" y="75" type="line"/>
      <point x="331" y="75" type="line"/>
      <point x="331" y="95" type="line"/>
      <point x="166" y="95" type="line"/>
    </contour>
    <contour>
      <point x="108" y="270" type="line"/>
      <point x="113" y="289" type="line"/>
      <point x="21" y="309" type="line"/>
      <point x="17" y="291" type="line"/>
    </contour>
    <contour>
      <point x="224" y="147" type="line"/>
      <point x="237" y="162" type="line"/>
      <point x="207" y="189" type="line"/>
      <point x="194" y="175" type="line"/>
    </contour>
    <contour>
      <point x="365" y="7" type="line"/>
      <point x="381" y="15" type="line"/>
      <point x="332" y="91" type="line"/>
      <point x="317" y="83" type="line"/>
    </contour>
    <contour>
      <point x="224" y="147" type="line"/>
      <point x="264" y="147" type="line"/>
      <point x="264" y="168" type="line"/>
      <point x="224" y="168" type="line"/>
    </contour>
    <contour>
      <point x="194" y="175" type="line"/>
      <point x="214" y="175" type="line"/>
      <point x="214" y="241" type="line"/>
      <point x="194" y="241" type="line"/>
    </contour>
    <contour>
      <point x="321" y="82" type="line"/>
      <point x="336" y="92" type="line"/>
      <point x="263" y="164" type="line"/>
      <point x="249" y="154" type="line"/>
    </contour>
    <contour>
      <point x="202" y="226" type="line"/>
      <point x="211" y="243" type="line"/>
      <point x="118" y="286" type="line"/>
      <point x="108" y="270" type="line"/>
    </contour>
    <contour>
      <point x="264" y="147" type="line"/>
      <point x="293" y="175" type="line"/>
      <point x="276" y="185" type="line"/>
      <point x="249" y="160" type="line"/>
    </contour>
    <contour>
      <point x="110" y="271" type="line"/>
      <point x="193" y="325" type="line"/>
      <point x="183" y="339" type="line"/>
      <point x="99" y="285" type="line"/>
    </contour>
    <contour>
      <point x="331" y="75" type="line"/>
      <point x="385" y="134" type="line"/>
      <point x="372" y="146" type="line"/>
      <point x="318" y="88" type="line"/>
    </contour>
    <contour>
      <point x="210" y="228" type="line"/>
      <point x="235" y="255" type="line"/>
      <point x="223" y="270" type="line"/>
      <point x="194" y="241" type="line"/>
    </contour>
    <contour>
      <point x="370" y="126" type="line"/>
      <point x="378" y="144" type="line"/>
      <point x="287" y="188" type="line"/>
      <point x="279" y="171" type="line"/>
    </contour>
    <contour>
      <point x="375" y="0" type="line"/>
      <point x="491" y="104" type="line"/>
      <point x="480" y="120" type="line"/>
      <point x="363" y="16" type="line"/>
    </contour>
    <contour>
      <point x="273" y="175" type="line"/>
      <point x="293" y="175" type="line"/>
      <point x="293" y="242" type="line"/>
      <point x="273" y="242" type="line"/>
    </contour>
    <contour>
      <point x="221" y="253" type="line"/>
      <point x="235" y="263" type="line"/>
      <point x="188" y="333" type="line"/>
      <point x="172" y="324" type="line"/>
    </contour>
    <contour>
      <point x="223" y="249" type="line"/>
      <point x="263" y="249" type="line"/>
      <point x="263" y="270" type="line"/>
      <point x="223" y="270" type="line"/>
    </contour>
    <contour>
      <point x="279" y="228" type="line"/>
      <point x="293" y="242" type="line"/>
      <point x="263" y="270" type="line"/>
      <point x="250" y="254" type="line"/>
    </contour>
    <contour>
      <point x="480" y="99" type="line"/>
      <point x="484" y="117" type="line"/>
      <point x="377" y="147" type="line"/>
      <point x="372" y="128" type="line"/>
    </contour>
    <contour>
      <point x="183" y="319" type="line"/>
      <point x="304" y="319" type="line"/>
      <point x="304" y="339" type="line"/>
      <point x="183" y="339" type="line"/>
    </contour>
    <contour>
      <point x="265" y="253" type="line"/>
      <point x="311" y="322" type="line"/>
      <point x="297" y="333" type="line"/>
      <point x="249" y="264" type="line"/>
    </contour>
    <contour>
      <point x="287" y="227" type="line"/>
      <point x="375" y="273" type="line"/>
      <point x="368" y="290" type="line"/>
      <point x="278" y="243" type="line"/>
    </contour>
    <contour>
      <point x="365" y="134" type="line"/>
      <point x="385" y="134" type="line"/>
      <point x="385" y="290" type="line"/>
      <point x="365" y="290" type="line"/>
    </contour>
    <contour>
      <point x="117" y="277" type="line"/>
      <point x="269" y="528" type="line"/>
      <point x="250" y="534" type="line"/>
      <point x="100" y="284" type="line"/>
    </contour>
    <contour>
      <point x="195" y="323" type="line"/>
      <point x="279" y="393" type="line"/>
      <point x="248" y="392" type="line"/>
      <point x="183" y="339" type="line"/>
    </contour>
    <contour>
      <point x="373" y="275" type="line"/>
      <point x="385" y="290" type="line"/>
      <point x="304" y="339" type="line"/>
      <point x="292" y="324" type="line"/>
    </contour>
    <contour>
      <point x="471" y="104" type="line"/>
      <point x="491" y="104" type="line"/>
      <point x="491" y="301" type="line"/>
      <point x="471" y="301" type="line"/>
    </contour>
    <contour>
      <point x="310" y="324" type="line"/>
      <point x="372" y="384" type="line"/>
      <point x="358" y="395" type="line"/>
      <point x="294" y="333" type="line"/>
    </contour>
    <contour>
      <point x="259" y="383" type="line"/>
      <point x="367" y="383" type="line"/>
      <point x="367" y="403" type="line"/>
      <point x="259" y="403" type="line"/>
    </contour>
    <contour>
      <point x="377" y="274" type="line"/>
      <point x="478" y="285" type="line"/>
      <point x="471" y="304" type="line"/>
      <point x="371" y="293" type="line"/>
    </contour>
    <contour>
      <point x="481" y="286" type="line"/>
      <point x="491" y="301" type="line"/>
      <point x="367" y="403" type="line"/>
      <point x="355" y="388" type="line"/>
    </contour>
    <contour>
      <point x="249" y="515" type="line"/>
      <point x="263" y="526" type="line"/>
      <point x="200" y="592" type="line"/>
      <point x="186" y="579" type="line"/>
    </contour>
    <contour>
      <point x="248" y="392" type="line"/>
      <point x="270" y="392" type="line"/>
      <point x="407" y="600" type="line"/>
      <point x="382" y="600" type="line"/>
    </contour>
    <contour>
      <point x="256" y="512" type="line"/>
      <point x="387" y="579" type="line"/>
      <point x="378" y="596" type="line"/>
      <point x="250" y="529" type="line"/>
    </contour>
    <contour>
      <point x="194" y="578" type="line"/>
      <point x="386" y="578" type="line"/>
      <point x="386" y="600" type="line"/>
      <point x="194" y="600" type="line"/>
    </contour>
  </outline>
</glyph>
<glyph name="nine" format="2">
  <advance width="501"/>
  <unicode hex="0039"/>
  <outline>
    <contour>
      <point x="476" y="307" type="line"/>
      <point x="290" y="0" type="line"/>
      <point x="310" y="0" type="line"/>
      <point x="491" y="298" type="line"/>
    </contour>
    <contour>
      <point x="382" y="600" type="line"/>
      <point x="369" y="585" type="line"/>
      <point x="476" y="464" type="line"/>
      <point x="491" y="477" type="line"/>
    </contour>
    <contour>
      <point x="372" y="595" type="line"/>
      <point x="322" y="519" type="line"/>
      <point x="338" y="510" type="line"/>
      <point x="388" y="587" type="line"/>
    </contour>
    <contour>
      <point x="475" y="482" type="line"/>
      <point x="384" y="458" type="line"/>
      <point x="391" y="440" type="line"/>
      <point x="480" y="465" type="line"/>
    </contour>
    <contour>
      <point x="491" y="477" type="line"/>
      <point x="471" y="477" type="line"/>
      <point x="471" y="292" type="line"/>
      <point x="491" y="298" type="line"/>
    </contour>
    <contour>
      <point x="335" y="525" type="line"/>
      <point x="323" y="509" type="line"/>
      <point x="388" y="440" type="line"/>
      <point x="402" y="454" type="line"/>
    </contour>
    <contour>
      <point x="382" y="600" type="line"/>
      <point x="126" y="600" type="line"/>
      <point x="126" y="580" type="line"/>
      <point x="382" y="580" type="line"/>
    </contour>
    <contour>
      <point x="390" y="459" type="line"/>
      <point x="294" y="427" type="line"/>
      <point x="301" y="411" type="line"/>
      <point x="395" y="441" type="line"/>
    </contour>
    <contour>
      <point x="321" y="518" type="line"/>
      <point x="264" y="446" type="line"/>
      <point x="278" y="436" type="line"/>
      <point x="336" y="507" type="line"/>
    </contour>
    <contour>
      <point x="402" y="454" type="line"/>
      <point x="382" y="454" type="line"/>
      <point x="382" y="315" type="line"/>
      <point x="402" y="315" type="line"/>
    </contour>
    <contour>
      <point x="335" y="525" type="line"/>
      <point x="170" y="525" type="line"/>
      <point x="170" y="505" type="line"/>
      <point x="335" y="505" type="line"/>
    </contour>
    <contour>
      <point x="393" y="330" type="line"/>
      <point x="388" y="311" type="line"/>
      <point x="480" y="291" type="line"/>
      <point x="484" y="309" type="line"/>
    </contour>
    <contour>
      <point x="277" y="453" type="line"/>
      <point x="264" y="438" type="line"/>
      <point x="294" y="411" type="line"/>
      <point x="307" y="425" type="line"/>
    </contour>
    <contour>
      <point x="136" y="593" type="line"/>
      <point x="120" y="585" type="line"/>
      <point x="169" y="509" type="line"/>
      <point x="184" y="517" type="line"/>
    </contour>
    <contour>
      <point x="277" y="453" type="line"/>
      <point x="237" y="453" type="line"/>
      <point x="237" y="432" type="line"/>
      <point x="277" y="432" type="line"/>
    </contour>
    <contour>
      <point x="307" y="425" type="line"/>
      <point x="287" y="425" type="line"/>
      <point x="287" y="359" type="line"/>
      <point x="307" y="359" type="line"/>
    </contour>
    <contour>
      <point x="180" y="518" type="line"/>
      <point x="165" y="508" type="line"/>
      <point x="238" y="436" type="line"/>
      <point x="252" y="446" type="line"/>
    </contour>
    <contour>
      <point x="299" y="374" type="line"/>
      <point x="290" y="357" type="line"/>
      <point x="383" y="314" type="line"/>
      <point x="393" y="330" type="line"/>
    </contour>
    <contour>
      <point x="237" y="453" type="line"/>
      <point x="208" y="425" type="line"/>
      <point x="225" y="415" type="line"/>
      <point x="252" y="440" type="line"/>
    </contour>
    <contour>
      <point x="391" y="329" type="line"/>
      <point x="308" y="275" type="line"/>
      <point x="318" y="261" type="line"/>
      <point x="402" y="315" type="line"/>
    </contour>
    <contour>
      <point x="170" y="525" type="line"/>
      <point x="116" y="466" type="line"/>
      <point x="129" y="454" type="line"/>
      <point x="183" y="512" type="line"/>
    </contour>
    <contour>
      <point x="291" y="372" type="line"/>
      <point x="266" y="345" type="line"/>
      <point x="278" y="330" type="line"/>
      <point x="307" y="359" type="line"/>
    </contour>
    <contour>
      <point x="131" y="474" type="line"/>
      <point x="123" y="456" type="line"/>
      <point x="214" y="412" type="line"/>
      <point x="222" y="429" type="line"/>
    </contour>
    <contour>
      <point x="126" y="600" type="line"/>
      <point x="10" y="496" type="line"/>
      <point x="21" y="480" type="line"/>
      <point x="138" y="584" type="line"/>
    </contour>
    <contour>
      <point x="228" y="425" type="line"/>
      <point x="208" y="425" type="line"/>
      <point x="208" y="358" type="line"/>
      <point x="228" y="358" type="line"/>
    </contour>
    <contour>
      <point x="280" y="347" type="line"/>
      <point x="266" y="337" type="line"/>
      <point x="313" y="267" type="line"/>
      <point x="329" y="276" type="line"/>
    </contour>
    <contour>
      <point x="278" y="351" type="line"/>
      <point x="238" y="351" type="line"/>
      <point x="238" y="330" type="line"/>
      <point x="278" y="330" type="line"/>
    </contour>
    <contour>
      <point x="222" y="372" type="line"/>
      <point x="208" y="358" type="line"/>
      <point x="238" y="330" type="line"/>
      <point x="251" y="346" type="line"/>
    </contour>
    <contour>
      <point x="21" y="501" type="line"/>
      <point x="17" y="483" type="line"/>
      <point x="124" y="453" type="line"/>
      <point x="129" y="472" type="line"/>
    </contour>
    <contour>
      <point x="318" y="281" type="line"/>
      <point x="197" y="281" type="line"/>
      <point x="197" y="261" type="line"/>
      <point x="318" y="261" type="line"/>
    </contour>
    <contour>
      <point x="236" y="347" type="line"/>
      <point x="190" y="278" type="line"/>
      <point x="204" y="267" type="line"/>
      <point x="252" y="336" type="line"/>
    </contour>
    <contour>
      <point x="214" y="373" type="line"/>
      <point x="126" y="327" type="line"/>
      <point x="133" y="310" type="line"/>
      <point x="223" y="357" type="line"/>
    </contour>
    <contour>
      <point x="136" y="466" type="line"/>
      <point x="116" y="466" type="line"/>
      <point x="116" y="310" type="line"/>
      <point x="136" y="310" type="line"/>
    </contour>
    <contour>
      <point x="384" y="323" type="line"/>
      <point x="232" y="72" type="line"/>
      <point x="251" y="66" type="line"/>
      <point x="401" y="316" type="line"/>
    </contour>
    <contour>
      <point x="306" y="277" type="line"/>
      <point x="222" y="207" type="line"/>
      <point x="253" y="208" type="line"/>
      <point x="318" y="261" type="line"/>
    </contour>
    <contour>
      <point x="128" y="325" type="line"/>
      <point x="116" y="310" type="line"/>
      <point x="197" y="261" type="line"/>
      <point x="209" y="276" type="line"/>
    </contour>
    <contour>
      <point x="30" y="496" type="line"/>
      <point x="10" y="496" type="line"/>
      <point x="10" y="299" type="line"/>
      <point x="30" y="299" type="line"/>
    </contour>
    <contour>
      <point x="191" y="276" type="line"/>
      <point x="129" y="216" type="line"/>
      <point x="143" y="205" type="line"/>
      <point x="207" y="267" type="line"/>
    </contour>
    <contour>
      <point x="242" y="217" type="line"/>
      <point x="134" y="217" type="line"/>
      <point x="134" y="197" type="line"/>
      <point x="242" y="197" type="line"/>
    </contour>
    <contour>
      <point x="124" y="326" type="line"/>
      <point x="23" y="315" type="line"/>
      <point x="30" y="296" type="line"/>
      <point x="130" y="307" type="line"/>
    </contour>
    <contour>
      <point x="20" y="314" type="line"/>
      <point x="10" y="299" type="line"/>
      <point x="134" y="197" type="line"/>
      <point x="146" y="212" type="line"/>
    </contour>
    <contour>
      <point x="252" y="85" type="line"/>
      <point x="238" y="74" type="line"/>
      <point x="301" y="8" type="line"/>
      <point x="315" y="21" type="line"/>
    </contour>
    <contour>
      <point x="253" y="208" type="line"/>
      <point x="231" y="208" type="line"/>
      <point x="94" y="0" type="line"/>
      <point x="119" y="0" type="line"/>
    </contour>
    <contour>
      <point x="245" y="88" type="line"/>
      <point x="114" y="21" type="line"/>
      <point x="123" y="4" type="line"/>
      <point x="251" y="71" type="line"/>
    </contour>
    <contour>
      <point x="307" y="22" type="line"/>
      <point x="115" y="22" type="line"/>
      <point x="115" y="0" type="line"/>
      <point x="307" y="0" type="line"/>
    </contour>
  </outline>
</glyph>
<glyph name="at" format="2">
  <advance width="447"/>
  <unicode hex="0040"/>
  <outline>
    <contour>
      <point x="152" y="35" type="line"/>
      <point x="27" y="182" type="line"/>
      <point x="15" y="173" type="line"/>
      <point x="140" y="26" type="line"/>
    </contour>
    <contour>
      <point x="341" y="41" type="line"/>
      <point x="140" y="41" type="line"/>
      <point x="140" y="26" type="line"/>
      <point x="341" y="26" type="line"/>
    </contour>
    <contour>
      <point x="301" y="69" type="line"/>
      <point x="158" y="69" type="line"/>
      <point x="158" y="54" type="line"/>
      <point x="301" y="54" type="line"/>
    </contour>
    <contour>
      <point x="341" y="97" type="line"/>
      <point x="178" y="97" type="line"/>
      <point x="178" y="82" type="line"/>
      <point x="341" y="82" type="line"/>
    </contour>
    <contour>
      <point x="170" y="63" type="line"/>
      <point x="57" y="196" type="line"/>
      <point x="45" y="187" type="line"/>
      <point x="158" y="54" type="line"/>
    </contour>
    <contour>
      <point x="190" y="91" type="line"/>
      <point x="87" y="212" type="line"/>
      <point x="75" y="203" type="line"/>
      <point x="178" y="82" type="line"/>
    </contour>
    <contour>
      <point x="341" y="97" type="line"/>
      <point x="326" y="97" type="line"/>
      <point x="326" y="26" type="line"/>
      <point x="341" y="26" type="line"/>
    </contour>
    <contour>
      <point x="299" y="54" type="line"/>
      <point x="340" y="86" type="line"/>
      <point x="331" y="97" type="line"/>
      <point x="289" y="64" type="line"/>
    </contour>
    <contour>
      <point x="299" y="69" type="line"/>
      <point x="289" y="59" type="line"/>
      <point x="331" y="26" type="line"/>
      <point x="340" y="37" type="line"/>
    </contour>
    <contour>
      <point x="152" y="561" type="line"/>
      <point x="140" y="570" type="line"/>
      <point x="15" y="423" type="line"/>
      <point x="27" y="414" type="line"/>
    </contour>
    <contour>
      <point x="60" y="187" type="line"/>
      <point x="60" y="409" type="line"/>
      <point x="45" y="409" type="line"/>
      <point x="45" y="187" type="line"/>
    </contour>
    <contour>
      <point x="30" y="173" type="line"/>
      <point x="30" y="423" type="line"/>
      <point x="15" y="423" type="line"/>
      <point x="15" y="173" type="line"/>
    </contour>
    <contour>
      <point x="170" y="533" type="line"/>
      <point x="158" y="542" type="line"/>
      <point x="45" y="409" type="line"/>
      <point x="57" y="400" type="line"/>
    </contour>
    <contour>
      <point x="90" y="203" type="line"/>
      <point x="90" y="393" type="line"/>
      <point x="75" y="393" type="line"/>
      <point x="75" y="203" type="line"/>
    </contour>
    <contour>
      <point x="190" y="505" type="line"/>
      <point x="178" y="514" type="line"/>
      <point x="75" y="393" type="line"/>
      <point x="87" y="384" type="line"/>
    </contour>
    <contour>
      <point x="295" y="561" type="line"/>
      <point x="420" y="414" type="line"/>
      <point x="432" y="423" type="line"/>
      <point x="307" y="570" type="line"/>
    </contour>
    <contour>
      <point x="387" y="257" type="line"/>
      <point x="402" y="257" type="line"/>
      <point x="402" y="409" type="line"/>
      <point x="387" y="409" type="line"/>
    </contour>
    <contour>
      <point x="140" y="555" type="line"/>
      <point x="307" y="555" type="line"/>
      <point x="307" y="570" type="line"/>
      <point x="140" y="570" type="line"/>
    </contour>
    <contour>
      <point x="158" y="527" type="line"/>
      <point x="289" y="527" type="line"/>
      <point x="289" y="542" type="line"/>
      <point x="158" y="542" type="line"/>
    </contour>
    <contour>
      <point x="178" y="499" type="line"/>
      <point x="269" y="499" type="line"/>
      <point x="269" y="514" type="line"/>
      <point x="178" y="514" type="line"/>
    </contour>
    <contour>
      <point x="417" y="233" type="line"/>
      <point x="432" y="233" type="line"/>
      <point x="432" y="423" type="line"/>
      <point x="417" y="423" type="line"/>
    </contour>
    <contour>
      <point x="277" y="533" type="line"/>
      <point x="390" y="400" type="line"/>
      <point x="402" y="409" type="line"/>
      <point x="289" y="542" type="line"/>
    </contour>
    <contour>
      <point x="357" y="269" type="line"/>
      <point x="372" y="269" type="line"/>
      <point x="372" y="393" type="line"/>
      <point x="357" y="393" type="line"/>
    </contour>
    <contour>
      <point x="257" y="505" type="line"/>
      <point x="360" y="384" type="line"/>
      <point x="372" y="393" type="line"/>
      <point x="269" y="514" type="line"/>
    </contour>
    <contour>
      <point x="195" y="395" type="line"/>
      <point x="182" y="403" type="line"/>
      <point x="148" y="363" type="line"/>
      <point x="160" y="354" type="line"/>
    </contour>
    <contour>
      <point x="179" y="438" type="line"/>
      <point x="167" y="447" type="line"/>
      <point x="108" y="381" type="line"/>
      <point x="120" y="372" type="line"/>
    </contour>
    <contour>
      <point x="226" y="347" type="line"/>
      <point x="226" y="362" type="line"/>
      <point x="209" y="362" type="line"/>
      <point x="209" y="347" type="line"/>
    </contour>
    <contour>
      <point x="221" y="353" type="line"/>
      <point x="209" y="362" type="line"/>
      <point x="190" y="339" type="line"/>
      <point x="202" y="330" type="line"/>
    </contour>
    <contour>
      <point x="325" y="382" type="line"/>
      <point x="325" y="269" type="line"/>
      <point x="340" y="269" type="line"/>
      <point x="340" y="382" type="line"/>
    </contour>
    <contour>
      <point x="285" y="363" type="line"/>
      <point x="285" y="257" type="line"/>
      <point x="300" y="259" type="line"/>
      <point x="300" y="363" type="line"/>
    </contour>
    <contour>
      <point x="167" y="432" type="line"/>
      <point x="285" y="432" type="line"/>
      <point x="285" y="447" type="line"/>
      <point x="167" y="447" type="line"/>
    </contour>
    <contour>
      <point x="182" y="388" type="line"/>
      <point x="260" y="388" type="line"/>
      <point x="260" y="403" type="line"/>
      <point x="182" y="403" type="line"/>
    </contour>
    <contour>
      <point x="248" y="394" type="line"/>
      <point x="288" y="354" type="line"/>
      <point x="300" y="363" type="line"/>
      <point x="260" y="403" type="line"/>
    </contour>
    <contour>
      <point x="273" y="438" type="line"/>
      <point x="328" y="373" type="line"/>
      <point x="340" y="382" type="line"/>
      <point x="285" y="447" type="line"/>
    </contour>
    <contour>
      <point x="243" y="339" type="line"/>
      <point x="243" y="262" type="line"/>
      <point x="258" y="262" type="line"/>
      <point x="258" y="339" type="line"/>
    </contour>
    <contour>
      <point x="222" y="347" type="line"/>
      <point x="239" y="347" type="line"/>
      <point x="239" y="362" type="line"/>
      <point x="222" y="362" type="line"/>
    </contour>
    <contour>
      <point x="227" y="353" type="line"/>
      <point x="246" y="330" type="line"/>
      <point x="258" y="339" type="line"/>
      <point x="239" y="362" type="line"/>
    </contour>
    <contour>
      <point x="108" y="297" type="line"/>
      <point x="108" y="227" type="line"/>
      <point x="123" y="227" type="line"/>
      <point x="123" y="297" type="line"/>
      <point x="123" y="381" type="line"/>
      <point x="108" y="381" type="line"/>
    </contour>
    <contour>
      <point x="148" y="297" type="line"/>
      <point x="148" y="254" type="line"/>
      <point x="163" y="254" type="line"/>
      <point x="163" y="297" type="line"/>
      <point x="163" y="363" type="line"/>
      <point x="148" y="363" type="line"/>
    </contour>
    <contour>
      <point x="241" y="172" type="line"/>
      <point x="167" y="172" type="line"/>
      <point x="167" y="157" type="line"/>
      <point x="242" y="157" type="line"/>
    </contour>
    <contour>
      <point x="252" y="227" type="line"/>
      <point x="179" y="227" type="line"/>
      <point x="179" y="212" type="line"/>
      <point x="252" y="212" type="line"/>
    </contour>
    <contour>
      <point x="191" y="221" type="line"/>
      <point x="160" y="263" type="line"/>
      <point x="148" y="254" type="line"/>
      <point x="179" y="212" type="line"/>
    </contour>
    <contour>
      <point x="179" y="166" type="line"/>
      <point x="120" y="236" type="line"/>
      <point x="108" y="227" type="line"/>
      <point x="167" y="157" type="line"/>
    </contour>
    <contour>
      <point x="190" y="302" type="line"/>
      <point x="190" y="280" type="line"/>
      <point x="205" y="280" type="line"/>
      <point x="205" y="302" type="line"/>
      <point x="205" y="339" type="line"/>
      <point x="190" y="339" type="line"/>
    </contour>
    <contour>
      <point x="256" y="272" type="line"/>
      <point x="209" y="272" type="line"/>
      <point x="209" y="257" type="line"/>
      <point x="256" y="257" type="line"/>
    </contour>
    <contour>
      <point x="221" y="266" type="line"/>
      <point x="202" y="289" type="line"/>
      <point x="190" y="280" type="line"/>
      <point x="209" y="257" type="line"/>
    </contour>
    <contour>
      <point x="372" y="277" type="line"/>
      <point x="325" y="277" type="line"/>
      <point x="325" y="262" type="line"/>
      <point x="372" y="262" type="line"/>
    </contour>
    <contour>
      <point x="243" y="265" type="line"/>
      <point x="243" y="217" type="line"/>
      <point x="258" y="217" type="line"/>
      <point x="258" y="265" type="line"/>
    </contour>
    <contour>
      <point x="169" y="58" type="line"/>
      <point x="157" y="67" type="line"/>
      <point x="135" y="36" type="line"/>
      <point x="147" y="27" type="line"/>
    </contour>
    <contour>
      <point x="189" y="88" type="line"/>
      <point x="177" y="97" type="line"/>
      <point x="155" y="66" type="line"/>
      <point x="167" y="57" type="line"/>
    </contour>
    <contour>
      <point x="172" y="536" type="line"/>
      <point x="150" y="567" type="line"/>
      <point x="138" y="558" type="line"/>
      <point x="160" y="527" type="line"/>
    </contour>
    <contour>
      <point x="192" y="506" type="line"/>
      <point x="170" y="537" type="line"/>
      <point x="158" y="528" type="line"/>
      <point x="180" y="497" type="line"/>
    </contour>
    <contour>
      <point x="274" y="536" type="line"/>
      <point x="286" y="527" type="line"/>
      <point x="308" y="558" type="line"/>
      <point x="296" y="567" type="line"/>
    </contour>
    <contour>
      <point x="254" y="506" type="line"/>
      <point x="266" y="497" type="line"/>
      <point x="288" y="528" type="line"/>
      <point x="276" y="537" type="line"/>
    </contour>
    <contour>
      <point x="196" y="219" type="line"/>
      <point x="181" y="224" type="line"/>
      <point x="164" y="167" type="line"/>
      <point x="179" y="162" type="line"/>
    </contour>
    <contour>
      <point x="220" y="265" type="line"/>
      <point x="205" y="270" type="line"/>
      <point x="181" y="222" type="line"/>
      <point x="196" y="217" type="line"/>
    </contour>
    <contour>
      <point x="197" y="397" type="line"/>
      <point x="179" y="442" type="line"/>
      <point x="164" y="437" type="line"/>
      <point x="182" y="392" type="line"/>
    </contour>
    <contour>
      <point x="217" y="353" type="line"/>
      <point x="197" y="399" type="line"/>
      <point x="182" y="394" type="line"/>
      <point x="202" y="348" type="line"/>
    </contour>
    <contour>
      <point x="247" y="396" type="line"/>
      <point x="261" y="391" type="line"/>
      <point x="285" y="437" type="line"/>
      <point x="270" y="442" type="line"/>
    </contour>
    <contour>
      <point x="224" y="350" type="line"/>
      <point x="239" y="345" type="line"/>
      <point x="261" y="393" type="line"/>
      <point x="247" y="398" type="line"/>
    </contour>
    <contour>
      <point x="258" y="217" type="line"/>
      <point x="243" y="222" type="line"/>
      <point x="226" y="162" type="line"/>
      <point x="242" y="157" type="line"/>
    </contour>
    <contour>
      <point x="294" y="172" type="line"/>
      <point x="294" y="157" type="line"/>
      <point x="391" y="157" type="line"/>
      <point x="391" y="172" type="line"/>
    </contour>
    <contour>
      <point x="240" y="217" type="line"/>
      <point x="294" y="157" type="line"/>
      <point x="309" y="163" type="line"/>
      <point x="255" y="223" type="line"/>
    </contour>
    <contour>
      <point x="432" y="233" type="line"/>
      <point x="417" y="238" type="line"/>
      <point x="376" y="162" type="line"/>
      <point x="391" y="157" type="line"/>
    </contour>
    <contour>
      <point x="203" y="280" type="line"/>
      <point x="193" y="293" type="line"/>
      <point x="151" y="267" type="line"/>
      <point x="161" y="254" type="line"/>
    </contour>
    <contour>
      <point x="159" y="253" type="line"/>
      <point x="149" y="266" type="line"/>
      <point x="108" y="236" type="line"/>
      <point x="118" y="223" type="line"/>
    </contour>
    <contour>
      <point x="204" y="341" type="line"/>
      <point x="163" y="366" type="line"/>
      <point x="153" y="353" type="line"/>
      <point x="194" y="328" type="line"/>
    </contour>
    <contour>
      <point x="161" y="367" type="line"/>
      <point x="118" y="388" type="line"/>
      <point x="108" y="375" type="line"/>
      <point x="151" y="354" type="line"/>
    </contour>
    <contour>
      <point x="244" y="341" type="line"/>
      <point x="254" y="328" type="line"/>
      <point x="295" y="353" type="line"/>
      <point x="285" y="366" type="line"/>
    </contour>
    <contour>
      <point x="287" y="367" type="line"/>
      <point x="297" y="354" type="line"/>
      <point x="340" y="375" type="line"/>
      <point x="330" y="389" type="line"/>
    </contour>
    <contour>
      <point x="88" y="204" type="line"/>
      <point x="79" y="216" type="line"/>
      <point x="49" y="198" type="line"/>
      <point x="58" y="186" type="line"/>
    </contour>
    <contour>
      <point x="57" y="185" type="line"/>
      <point x="47" y="197" type="line"/>
      <point x="17" y="180" type="line"/>
      <point x="27" y="167" type="line"/>
    </contour>
    <contour>
      <point x="89" y="393" type="line"/>
      <point x="59" y="411" type="line"/>
      <point x="50" y="399" type="line"/>
      <point x="80" y="381" type="line"/>
    </contour>
    <contour>
      <point x="58" y="412" type="line"/>
      <point x="28" y="430" type="line"/>
      <point x="18" y="417" type="line"/>
      <point x="48" y="400" type="line"/>
    </contour>
    <contour>
      <point x="358" y="393" type="line"/>
      <point x="367" y="381" type="line"/>
      <point x="397" y="399" type="line"/>
      <point x="388" y="411" type="line"/>
    </contour>
    <contour>
      <point x="389" y="412" type="line"/>
      <point x="399" y="400" type="line"/>
      <point x="429" y="417" type="line"/>
      <point x="419" y="430" type="line"/>
    </contour>
    <contour>
      <point x="379" y="227" type="line"/>
      <point x="317" y="227" type="line"/>
      <point x="317" y="212" type="line"/>
      <point x="379" y="212" type="line"/>
    </contour>
    <contour>
      <point x="340" y="265" type="line"/>
      <point x="326" y="270" type="line"/>
      <point x="308" y="222" type="line"/>
      <point x="323" y="217" type="line"/>
    </contour>
    <contour>
      <point x="355" y="265" type="line"/>
      <point x="369" y="217" type="line"/>
      <point x="383" y="222" type="line"/>
      <point x="369" y="270" type="line"/>
    </contour>
    <contour>
      <point x="285" y="257" type="line"/>
      <point x="312" y="218" type="line"/>
      <point x="323" y="228" type="line"/>
      <point x="297" y="265" type="line"/>
    </contour>
    <contour>
      <point x="405" y="257" type="line"/>
      <point x="390" y="265" type="line"/>
      <point x="370" y="223" type="line"/>
      <point x="383" y="215" type="line"/>
    </contour>
    <contour>
      <point x="323" y="217" type="line"/>
      <point x="308" y="222" type="line"/>
      <point x="288" y="167" type="line"/>
      <point x="303" y="162" type="line"/>
    </contour>
    <contour>
      <point x="369" y="219" type="line"/>
      <point x="375" y="162" type="line"/>
      <point x="390" y="167" type="line"/>
      <point x="383" y="229" type="line"/>
    </contour>
    <contour>
      <point x="301" y="255" type="line"/>
      <point x="291" y="267" type="line"/>
      <point x="249" y="225" type="line"/>
      <point x="259" y="213" type="line"/>
    </contour>
    <contour>
      <point x="297" y="272" type="line"/>
      <point x="250" y="272" type="line"/>
      <point x="250" y="257" type="line"/>
      <point x="297" y="257" type="line"/>
    </contour>
    <contour>
      <point x="289" y="270" type="line"/>
      <point x="294" y="256" type="line"/>
      <point x="337" y="268" type="line"/>
      <point x="334" y="281" type="line"/>
    </contour>
    <contour>
      <point x="397" y="269" type="line"/>
      <point x="362" y="278" type="line"/>
      <point x="359" y="265" type="line"/>
      <point x="393" y="255" type="line"/>
    </contour>
    <contour>
      <point x="390" y="257" type="line"/>
      <point x="421" y="229" type="line"/>
      <point x="429" y="242" type="line"/>
      <point x="398" y="270" type="line"/>
    </contour>
  </outline>
</glyph>
<glyph name="A" format="2">
  <advance width="589"/>
  <unicode hex="0041"/>
  <anchor x="295" y="0" name="bottom"/>
  <anchor x="560" y="18" name="ogonek"/>
  <anchor x="295" y="600" name="top"/>
  <outline>
    <contour>
      <point x="567" y="0" type="line"/>
      <point x="587" y="0" type="line"/>
      <point x="423" y="600" type="line"/>
      <point x="404" y="595" type="line"/>
    </contour>
    <contour>
      <point x="23" y="1" type="line"/>
      <point x="107" y="80" type="line"/>
      <point x="92" y="93" type="line"/>
      <point x="9" y="15" type="line"/>
    </contour>
    <contour>
      <point x="8" y="0" type="line"/>
      <point x="182" y="0" type="line"/>
      <point x="182" y="20" type="line"/>
      <point x="8" y="20" type="line"/>
    </contour>
    <contour>
      <point x="171" y="1" type="line"/>
      <point x="185" y="15" type="line"/>
      <point x="112" y="93" type="line"/>
      <point x="97" y="80" type="line"/>
    </contour>
    <contour>
      <point x="182" y="0" type="line"/>
      <point x="206" y="91" type="line"/>
      <point x="187" y="96" type="line"/>
      <point x="163" y="5" type="line"/>
    </contour>
    <contour>
      <point x="191" y="80" type="line"/>
      <point x="205" y="94" type="line"/>
      <point x="131" y="172" type="line"/>
      <point x="116" y="159" type="line"/>
    </contour>
    <contour>
      <point x="194" y="80" type="line"/>
      <point x="340" y="80" type="line"/>
      <point x="340" y="100" type="line"/>
      <point x="194" y="100" type="line"/>
    </contour>
    <contour>
      <point x="123" y="158" type="line"/>
      <point x="238" y="200" type="line"/>
      <point x="230" y="218" type="line"/>
      <point x="115" y="176" type="line"/>
    </contour>
    <contour>
      <point x="2" y="0" type="line"/>
      <point x="22" y="0" type="line"/>
      <point x="185" y="595" type="line"/>
      <point x="166" y="600" type="line"/>
    </contour>
    <contour>
      <point x="347" y="0" type="line"/>
      <point x="366" y="5" type="line"/>
      <point x="342" y="96" type="line"/>
      <point x="323" y="91" type="line"/>
    </contour>
    <contour>
      <point x="127" y="162" type="line"/>
      <point x="419" y="162" type="line"/>
      <point x="419" y="182" type="line"/>
      <point x="127" y="182" type="line"/>
    </contour>
    <contour>
      <point x="108" y="80" type="line"/>
      <point x="225" y="515" type="line"/>
      <point x="206" y="520" type="line"/>
      <point x="89" y="85" type="line"/>
    </contour>
    <contour>
      <point x="359" y="1" type="line"/>
      <point x="443" y="99" type="line"/>
      <point x="427" y="112" type="line"/>
      <point x="345" y="15" type="line"/>
    </contour>
    <contour>
      <point x="347" y="0" type="line"/>
      <point x="581" y="0" type="line"/>
      <point x="581" y="20" type="line"/>
      <point x="347" y="20" type="line"/>
    </contour>
    <contour>
      <point x="230" y="198" type="line"/>
      <point x="304" y="198" type="line"/>
      <point x="304" y="218" type="line"/>
      <point x="230" y="218" type="line"/>
    </contour>
    <contour>
      <point x="338" y="80" type="line"/>
      <point x="429" y="171" type="line"/>
      <point x="413" y="184" type="line"/>
      <point x="324" y="94" type="line"/>
    </contour>
    <contour>
      <point x="232" y="200" type="line"/>
      <point x="277" y="343" type="line"/>
      <point x="258" y="348" type="line"/>
      <point x="213" y="206" type="line"/>
    </contour>
    <contour>
      <point x="296" y="201" type="line"/>
      <point x="315" y="207" type="line"/>
      <point x="275" y="343" type="line"/>
      <point x="256" y="338" type="line"/>
    </contour>
    <contour>
      <point x="415" y="158" type="line"/>
      <point x="424" y="176" type="line"/>
      <point x="304" y="218" type="line"/>
      <point x="295" y="200" type="line"/>
    </contour>
    <contour>
      <point x="568" y="2" type="line"/>
      <point x="580" y="18" type="line"/>
      <point x="438" y="124" type="line"/>
      <point x="425" y="108" type="line"/>
    </contour>
    <contour>
      <point x="257" y="332" type="line"/>
      <point x="276" y="338" type="line"/>
      <point x="225" y="511" type="line"/>
      <point x="206" y="506" type="line"/>
    </contour>
    <contour>
      <point x="431" y="94" type="line"/>
      <point x="450" y="99" type="line"/>
      <point x="336" y="520" type="line"/>
      <point x="317" y="515" type="line"/>
    </contour>
    <contour>
      <point x="206" y="501" type="line"/>
      <point x="223" y="511" type="line"/>
      <point x="182" y="597" type="line"/>
      <point x="164" y="588" type="line"/>
    </contour>
    <contour>
      <point x="275" y="335" type="line"/>
      <point x="332" y="508" type="line"/>
      <point x="313" y="513" type="line"/>
      <point x="256" y="341" type="line"/>
    </contour>
    <contour>
      <point x="206" y="500" type="line"/>
      <point x="336" y="500" type="line"/>
      <point x="336" y="520" type="line"/>
      <point x="206" y="520" type="line"/>
    </contour>
    <contour>
      <point x="166" y="580" type="line"/>
      <point x="423" y="580" type="line"/>
      <point x="423" y="600" type="line"/>
      <point x="166" y="600" type="line"/>
    </contour>
    <contour>
      <point x="330" y="501" type="line"/>
      <point x="423" y="581" type="line"/>
      <point x="410" y="596" type="line"/>
      <point x="318" y="517" type="line"/>
    </contour>
  </outline>
</glyph>
<glyph name="E" format="2">
  <advance width="475"/>
  <unicode hex="0045"/>
  <anchor x="240" y="0" name="bottom"/>
  <anchor x="428" y="10" name="ogonek"/>
  <anchor x="240" y="600" name="top"/>
  <anchor x="25" y="600" name="topleft"/>
  <outline>
    <contour>
      <point x="23" y="0" type="line"/>
      <point x="135" y="89" type="line"/>
      <point x="122" y="102" type="line"/>
      <point x="10" y="13" type="line"/>
    </contour>
    <contour>
      <point x="10" y="0" type="line"/>
      <point x="30" y="0" type="line"/>
      <point x="30" y="600" type="line"/>
      <point x="10" y="600" type="line"/>
    </contour>
    <contour>
      <point x="120" y="97" type="line"/>
      <point x="140" y="97" type="line"/>
      <point x="140" y="521" type="line"/>
      <point x="120" y="521" type="line"/>
    </contour>
    <contour>
      <point x="240" y="223" type="line"/>
      <point x="253" y="237" type="line"/>
      <point x="142" y="320" type="line"/>
      <point x="127" y="307" type="line"/>
    </contour>
    <contour>
      <point x="240" y="225" type="line"/>
      <point x="370" y="225" type="line"/>
      <point x="370" y="245" type="line"/>
      <point x="240" y="245" type="line"/>
    </contour>
    <contour>
      <point x="141" y="313" type="line"/>
      <point x="253" y="370" type="line"/>
      <point x="240" y="385" type="line"/>
      <point x="126" y="324" type="line"/>
    </contour>
    <contour>
      <point x="122" y="506" type="line"/>
      <point x="135" y="519" type="line"/>
      <point x="28" y="596" type="line"/>
      <point x="15" y="583" type="line"/>
    </contour>
    <contour>
      <point x="140" y="307" type="line"/>
      <point x="260" y="307" type="line"/>
      <point x="260" y="327" type="line"/>
      <point x="140" y="327" type="line"/>
    </contour>
    <contour>
      <point x="240" y="365" type="line"/>
      <point x="370" y="365" type="line"/>
      <point x="370" y="385" type="line"/>
      <point x="240" y="385" type="line"/>
    </contour>
    <contour>
      <point x="360" y="225" type="line"/>
      <point x="373" y="237" type="line"/>
      <point x="255" y="327" type="line"/>
      <point x="240" y="316" type="line"/>
    </contour>
    <contour>
      <point x="257" y="307" type="line"/>
      <point x="373" y="370" type="line"/>
      <point x="360" y="385" type="line"/>
      <point x="240" y="316" type="line"/>
    </contour>
    <contour>
      <point x="360" y="225" type="line"/>
      <point x="380" y="225" type="line"/>
      <point x="380" y="385" type="line"/>
      <point x="360" y="385" type="line"/>
    </contour>
    <contour>
      <point x="230" y="160" type="line"/>
      <point x="250" y="160" type="line"/>
      <point x="250" y="245" type="line"/>
      <point x="230" y="245" type="line"/>
    </contour>
    <contour>
      <point x="20" y="0" type="line"/>
      <point x="460" y="0" type="line"/>
      <point x="460" y="20" type="line"/>
      <point x="20" y="20" type="line"/>
    </contour>
    <contour>
      <point x="141" y="95" type="line"/>
      <point x="249" y="165" type="line"/>
      <point x="236" y="180" type="line"/>
      <point x="126" y="106" type="line"/>
    </contour>
    <contour>
      <point x="126" y="87" type="line"/>
      <point x="350" y="87" type="line"/>
      <point x="350" y="107" type="line"/>
      <point x="126" y="107" type="line"/>
    </contour>
    <contour>
      <point x="236" y="160" type="line"/>
      <point x="460" y="160" type="line"/>
      <point x="460" y="180" type="line"/>
      <point x="236" y="180" type="line"/>
    </contour>
    <contour>
      <point x="450" y="10" type="line"/>
      <point x="463" y="22" type="line"/>
      <point x="345" y="107" type="line"/>
      <point x="330" y="96" type="line"/>
    </contour>
    <contour>
      <point x="347" y="87" type="line"/>
      <point x="463" y="165" type="line"/>
      <point x="450" y="180" type="line"/>
      <point x="330" y="96" type="line"/>
    </contour>
    <contour>
      <point x="450" y="0" type="line"/>
      <point x="470" y="0" type="line"/>
      <point x="470" y="180" type="line"/>
      <point x="450" y="180" type="line"/>
    </contour>
    <contour>
      <point x="20" y="600" type="line"/>
      <point x="20" y="580" type="line"/>
      <point x="460" y="580" type="line"/>
      <point x="460" y="600" type="line"/>
    </contour>
    <contour>
      <point x="141" y="515" type="line"/>
      <point x="126" y="504" type="line"/>
      <point x="236" y="420" type="line"/>
      <point x="249" y="435" type="line"/>
    </contour>
    <contour>
      <point x="126" y="523" type="line"/>
      <point x="126" y="503" type="line"/>
      <point x="350" y="503" type="line"/>
      <point x="350" y="523" type="line"/>
    </contour>
    <contour>
      <point x="230" y="440" type="line"/>
      <point x="230" y="420" type="line"/>
      <point x="460" y="420" type="line"/>
      <point x="460" y="440" type="line"/>
    </contour>
    <contour>
      <point x="446" y="593" type="line"/>
      <point x="329" y="520" type="line"/>
      <point x="344" y="506" type="line"/>
      <point x="463" y="580" type="line"/>
    </contour>
    <contour>
      <point x="345" y="520" type="line"/>
      <point x="327" y="511" type="line"/>
      <point x="450" y="427" type="line"/>
      <point x="463" y="442" type="line"/>
    </contour>
    <contour>
      <point x="450" y="600" type="line"/>
      <point x="450" y="420" type="line"/>
      <point x="470" y="420" type="line"/>
      <point x="470" y="600" type="line"/>
    </contour>
    <contour>
      <point x="230" y="365" type="line"/>
      <point x="250" y="365" type="line"/>
      <point x="250" y="440" type="line"/>
      <point x="230" y="440" type="line"/>
    </contour>
  </outline>
</glyph>
<glyph name="I" format="2">
  <advance width="260"/>
  <unicode hex="0049"/>
  <anchor x="130" y="0" name="bottom"/>
  <anchor x="228" y="18" name="ogonek"/>
  <anchor x="130" y="600" name="top"/>
  <anchor x="25" y="600" name="topleft"/>
  <outline>
    <contour>
      <point x="10" y="0" type="line"/>
      <point x="250" y="0" type="line"/>
      <point x="250" y="20" type="line"/>
      <point x="10" y="20" type="line"/>
    </contour>
    <contour>
      <point x="23" y="0" type="line"/>
      <point x="135" y="92" type="line"/>
      <point x="122" y="105" type="line"/>
      <point x="10" y="13" type="line"/>
    </contour>
    <contour>
      <point x="237" y="0" type="line"/>
      <point x="250" y="13" type="line"/>
      <point x="138" y="105" type="line"/>
      <point x="125" y="92" type="line"/>
    </contour>
    <contour>
      <point x="10" y="0" type="line"/>
      <point x="30" y="0" type="line"/>
      <point x="30" y="600" type="line"/>
      <point x="10" y="600" type="line"/>
    </contour>
    <contour>
      <point x="120" y="90" type="line"/>
      <point x="140" y="90" type="line"/>
      <point x="140" y="510" type="line"/>
      <point x="120" y="510" type="line"/>
    </contour>
    <contour>
      <point x="230" y="0" type="line"/>
      <point x="250" y="0" type="line"/>
      <point x="250" y="600" type="line"/>
      <point x="230" y="600" type="line"/>
    </contour>
    <contour>
      <point x="122" y="495" type="line"/>
      <point x="135" y="508" type="line"/>
      <point x="23" y="600" type="line"/>
      <point x="10" y="587" type="line"/>
    </contour>
    <contour>
      <point x="15" y="580" type="line"/>
      <point x="250" y="580" type="line"/>
      <point x="250" y="600" type="line"/>
      <point x="15" y="600" type="line"/>
    </contour>
    <contour>
      <point x="137" y="495" type="line"/>
      <point x="249" y="587" type="line"/>
      <point x="236" y="600" type="line"/>
      <point x="124" y="508" type="line"/>
    </contour>
  </outline>
</glyph>
<glyph name="J" format="2">
  <advance width="319"/>
  <unicode hex="004A"/>
  <anchor x="187" y="0" name="bottom"/>
  <anchor x="187" y="600" name="top"/>
  <outline>
    <contour>
      <point x="143" y="0" type="line"/>
      <point x="309" y="146" type="line"/>
      <point x="295" y="160" type="line"/>
      <point x="127" y="14" type="line"/>
    </contour>
    <contour>
      <point x="5" y="0" type="line"/>
      <point x="143" y="0" type="line"/>
      <point x="141" y="18" type="line"/>
      <point x="5" y="18" type="line"/>
    </contour>
    <contour>
      <point x="5" y="0" type="line"/>
      <point x="25" y="0" type="line"/>
      <point x="25" y="185" type="line"/>
      <point x="5" y="185" type="line"/>
    </contour>
    <contour>
      <point x="27" y="4" type="line"/>
      <point x="97" y="102" type="line"/>
      <point x="83" y="113" type="line"/>
      <point x="13" y="20" type="line"/>
    </contour>
    <contour>
      <point x="129" y="9" type="line"/>
      <point x="146" y="18" type="line"/>
      <point x="94" y="106" type="line"/>
      <point x="77" y="97" type="line"/>
    </contour>
    <contour>
      <point x="6" y="165" type="line"/>
      <point x="45" y="165" type="line"/>
      <point x="45" y="185" type="line"/>
      <point x="6" y="185" type="line"/>
    </contour>
    <contour>
      <point x="79" y="94" type="line"/>
      <point x="96" y="103" type="line"/>
      <point x="47" y="184" type="line"/>
      <point x="30" y="175" type="line"/>
    </contour>
    <contour>
      <point x="47" y="166" type="line"/>
      <point x="94" y="203" type="line"/>
      <point x="80" y="218" type="line"/>
      <point x="33" y="181" type="line"/>
    </contour>
    <contour>
      <point x="90" y="92" type="line"/>
      <point x="196" y="181" type="line"/>
      <point x="182" y="195" type="line"/>
      <point x="76" y="106" type="line"/>
    </contour>
    <contour>
      <point x="179" y="179" type="line"/>
      <point x="185" y="196" type="line"/>
      <point x="78" y="222" type="line"/>
      <point x="72" y="205" type="line"/>
    </contour>
    <contour>
      <point x="174" y="179" type="line"/>
      <point x="303" y="142" type="line"/>
      <point x="309" y="159" type="line"/>
      <point x="180" y="196" type="line"/>
    </contour>
    <contour>
      <point x="72" y="204" type="line"/>
      <point x="92" y="204" type="line"/>
      <point x="92" y="600" type="line"/>
      <point x="72" y="600" type="line"/>
    </contour>
    <contour>
      <point x="176" y="181" type="line"/>
      <point x="196" y="181" type="line"/>
      <point x="196" y="514" type="line"/>
      <point x="176" y="514" type="line"/>
    </contour>
    <contour>
      <point x="289" y="146" type="line"/>
      <point x="309" y="146" type="line"/>
      <point x="309" y="600" type="line"/>
      <point x="289" y="600" type="line"/>
    </contour>
    <contour>
      <point x="178" y="499" type="line"/>
      <point x="194" y="512" type="line"/>
      <point x="95" y="588" type="line"/>
      <point x="75" y="579" type="line"/>
    </contour>
    <contour>
      <point x="76" y="580" type="line"/>
      <point x="306" y="580" type="line"/>
      <point x="306" y="600" type="line"/>
      <point x="76" y="600" type="line"/>
    </contour>
    <contour>
      <point x="194" y="498" type="line"/>
      <point x="304" y="577" type="line"/>
      <point x="284" y="586" type="line"/>
      <point x="178" y="511" type="line"/>
    </contour>
  </outline>
</glyph>
<glyph name="K" format="2">
  <advance width="596"/>
  <unicode hex="004B"/>
  <anchor x="301" y="0" name="bottom"/>
  <anchor x="301" y="600" name="top"/>
  <outline>
    <contour>
      <point x="10" y="0" type="line"/>
      <point x="250" y="0" type="line"/>
      <point x="250" y="19" type="line"/>
      <point x="10" y="19" type="line"/>
    </contour>
    <contour>
      <point x="23" y="0" type="line"/>
      <point x="135" y="111" type="line"/>
      <point x="122" y="125" type="line"/>
      <point x="10" y="12" type="line"/>
    </contour>
    <contour>
      <point x="237" y="0" type="line"/>
      <point x="250" y="12" type="line"/>
      <point x="138" y="125" type="line"/>
      <point x="125" y="111" type="line"/>
    </contour>
    <contour>
      <point x="10" y="0" type="line"/>
      <point x="30" y="0" type="line"/>
      <point x="30" y="600" type="line"/>
      <point x="10" y="600" type="line"/>
    </contour>
    <contour>
      <point x="120" y="109" type="line"/>
      <point x="140" y="109" type="line"/>
      <point x="140" y="490" type="line"/>
      <point x="120" y="490" type="line"/>
    </contour>
    <contour>
      <point x="230" y="0" type="line"/>
      <point x="250" y="0" type="line"/>
      <point x="250" y="600" type="line"/>
      <point x="230" y="600" type="line"/>
    </contour>
    <contour>
      <point x="122" y="475" type="line"/>
      <point x="135" y="488" type="line"/>
      <point x="23" y="600" type="line"/>
      <point x="10" y="587" type="line"/>
    </contour>
    <contour>
      <point x="15" y="580" type="line"/>
      <point x="250" y="580" type="line"/>
      <point x="250" y="600" type="line"/>
      <point x="15" y="600" type="line"/>
    </contour>
    <contour>
      <point x="137" y="475" type="line"/>
      <point x="249" y="587" type="line"/>
      <point x="236" y="600" type="line"/>
      <point x="124" y="488" type="line"/>
    </contour>
    <contour>
      <point x="432" y="339" type="line"/>
      <point x="591" y="600" type="line"/>
      <point x="570" y="600" type="line"/>
      <point x="417" y="350" type="line"/>
    </contour>
    <contour>
      <point x="372" y="580" type="line"/>
      <point x="577" y="580" type="line"/>
      <point x="577" y="600" type="line"/>
      <point x="380" y="600" type="line"/>
    </contour>
    <contour>
      <point x="249" y="339" type="line"/>
      <point x="400" y="598" type="line"/>
      <point x="380" y="600" type="line"/>
      <point x="243" y="363" type="line"/>
    </contour>
    <contour>
      <point x="591" y="0" type="line"/>
      <point x="438" y="354" type="line"/>
      <point x="422" y="345" type="line"/>
      <point x="568" y="6" type="line"/>
    </contour>
    <contour>
      <point x="348" y="12" type="line"/>
      <point x="252" y="252" type="line"/>
      <point x="246" y="215" type="line"/>
      <point x="331" y="0" type="line"/>
    </contour>
    <contour>
      <point x="410" y="96" type="line"/>
      <point x="565" y="6" type="line"/>
      <point x="577" y="20" type="line"/>
      <point x="419" y="113" type="line"/>
    </contour>
    <contour>
      <point x="331" y="0" type="line"/>
      <point x="591" y="0" type="line"/>
      <point x="572" y="18" type="line"/>
      <point x="331" y="18" type="line"/>
    </contour>
    <contour>
      <point x="345" y="10" type="line"/>
      <point x="425" y="96" type="line"/>
      <point x="413" y="110" type="line"/>
      <point x="326" y="15" type="line"/>
    </contour>
    <contour>
      <point x="426" y="107" type="line"/>
      <point x="332" y="325" type="line"/>
      <point x="312" y="324" type="line"/>
      <point x="411" y="95" type="line"/>
    </contour>
    <contour>
      <point x="328" y="316" type="line"/>
      <point x="460" y="531" type="line"/>
      <point x="441" y="537" type="line"/>
      <point x="312" y="324" type="line"/>
    </contour>
    <contour>
      <point x="440" y="512" type="line"/>
      <point x="576" y="579" type="line"/>
      <point x="573" y="597" type="line"/>
      <point x="444" y="534" type="line"/>
    </contour>
    <contour>
      <point x="432" y="359" type="line"/>
      <point x="326" y="332" type="line"/>
      <point x="326" y="314" type="line"/>
      <point x="439" y="343" type="line"/>
    </contour>
    <contour>
      <point x="377" y="588" type="line"/>
      <point x="440" y="518" type="line"/>
      <point x="452" y="531" type="line"/>
      <point x="395" y="593" type="line"/>
    </contour>
    <contour>
      <point x="323" y="333" type="line"/>
      <point x="238" y="246" type="line"/>
      <point x="250" y="233" type="line"/>
      <point x="332" y="318" type="line"/>
    </contour>
    <contour>
      <point x="321" y="315" type="line"/>
      <point x="332" y="330" type="line"/>
      <point x="242" y="364" type="line"/>
      <point x="240" y="344" type="line"/>
    </contour>
  </outline>
</glyph>
<glyph name="N" format="2">
  <advance width="631"/>
  <unicode hex="004E"/>
  <anchor x="316" y="0" name="bottom"/>
  <anchor x="316" y="600" name="top"/>
  <outline>
    <contour>
      <point x="10" y="0" type="line"/>
      <point x="30" y="0" type="line"/>
      <point x="30" y="600" type="line"/>
      <point x="10" y="600" type="line"/>
    </contour>
    <contour>
      <point x="172" y="0" type="line"/>
      <point x="192" y="0" type="line"/>
      <point x="192" y="367" type="line"/>
      <point x="172" y="399" type="line"/>
    </contour>
    <contour>
      <point x="601" y="0" type="line"/>
      <point x="621" y="0" type="line"/>
      <point x="621" y="600" type="line"/>
      <point x="601" y="600" type="line"/>
    </contour>
    <contour>
      <point x="510" y="92" type="line"/>
      <point x="530" y="77" type="line"/>
      <point x="530" y="549" type="line"/>
      <point x="510" y="549" type="line"/>
    </contour>
    <contour>
      <point x="605" y="18" type="line"/>
      <point x="615" y="34" type="line"/>
      <point x="478" y="123" type="line"/>
      <point x="468" y="108" type="line"/>
    </contour>
    <contour>
      <point x="352" y="20" type="line"/>
      <point x="488" y="108" type="line"/>
      <point x="478" y="123" type="line"/>
      <point x="342" y="36" type="line"/>
    </contour>
    <contour>
      <point x="24" y="9" type="line"/>
      <point x="107" y="90" type="line"/>
      <point x="94" y="103" type="line"/>
      <point x="11" y="22" type="line"/>
    </contour>
    <contour>
      <point x="179" y="11" type="line"/>
      <point x="191" y="25" type="line"/>
      <point x="97" y="102" type="line"/>
      <point x="86" y="88" type="line"/>
    </contour>
    <contour>
      <point x="340" y="0" type="line"/>
      <point x="619" y="0" type="line"/>
      <point x="619" y="20" type="line"/>
      <point x="340" y="20" type="line"/>
    </contour>
    <contour>
      <point x="339" y="0" type="line"/>
      <point x="358" y="8" type="line"/>
      <point x="105" y="589" type="line"/>
      <point x="87" y="581" type="line"/>
    </contour>
    <contour>
      <point x="11" y="0" type="line"/>
      <point x="192" y="0" type="line"/>
      <point x="192" y="20" type="line"/>
      <point x="11" y="20" type="line"/>
    </contour>
    <contour>
      <point x="10" y="580" type="line"/>
      <point x="331" y="580" type="line"/>
      <point x="331" y="600" type="line"/>
      <point x="10" y="600" type="line"/>
    </contour>
    <contour>
      <point x="266" y="538" type="line"/>
      <point x="335" y="582" type="line"/>
      <point x="324" y="597" type="line"/>
      <point x="255" y="553" type="line"/>
    </contour>
    <contour>
      <point x="450" y="281" type="line"/>
      <point x="452" y="318" type="line"/>
      <point x="331" y="600" type="line"/>
      <point x="313" y="593" type="line"/>
    </contour>
    <contour>
      <point x="440" y="85" type="line"/>
      <point x="460" y="94" type="line"/>
      <point x="460" y="600" type="line"/>
      <point x="440" y="600" type="line"/>
    </contour>
    <contour>
      <point x="85" y="83" type="line"/>
      <point x="105" y="83" type="line"/>
      <point x="105" y="582" type="line"/>
      <point x="85" y="582" type="line"/>
    </contour>
    <contour>
      <point x="440" y="580" type="line"/>
      <point x="621" y="580" type="line"/>
      <point x="621" y="600" type="line"/>
      <point x="440" y="600" type="line"/>
    </contour>
    <contour>
      <point x="520" y="531" type="line"/>
      <point x="618" y="581" type="line"/>
      <point x="609" y="596" type="line"/>
      <point x="510" y="549" type="line"/>
    </contour>
    <contour>
      <point x="442" y="93" type="line"/>
      <point x="461" y="101" type="line"/>
      <point x="266" y="557" type="line"/>
      <point x="248" y="549" type="line"/>
    </contour>
    <contour>
      <point x="257" y="538" type="line"/>
      <point x="268" y="553" type="line"/>
      <point x="69" y="599" type="line"/>
      <point x="58" y="584" type="line"/>
    </contour>
    <contour>
      <point x="526" y="531" type="line"/>
      <point x="536" y="549" type="line"/>
      <point x="450" y="599" type="line"/>
      <point x="441" y="584" type="line"/>
    </contour>
  </outline>
</glyph>
<glyph name="P" format="2">
  <advance width="573"/>
  <unicode hex="0050"/>
  <anchor x="289" y="0" name="bottom"/>
  <anchor x="289" y="600" name="top"/>
  <outline>
    <contour>
      <point x="10" y="599" type="line"/>
      <point x="10" y="0" type="line"/>
      <point x="30" y="0" type="line"/>
      <point x="30" y="599" type="line"/>
    </contour>
    <contour>
      <point x="227" y="227" type="line"/>
      <point x="227" y="0" type="line"/>
      <point x="247" y="0" type="line"/>
      <point x="247" y="227" type="line"/>
    </contour>
    <contour>
      <point x="240" y="20" type="line"/>
      <point x="15" y="20" type="line"/>
      <point x="14" y="0" type="line"/>
      <point x="240" y="0" type="line"/>
    </contour>
    <contour>
      <point x="411" y="238" type="line"/>
      <point x="227" y="238" type="line"/>
      <point x="227" y="218" type="line"/>
      <point x="411" y="218" type="line"/>
    </contour>
    <contour>
      <point x="409" y="600" type="line"/>
      <point x="10" y="600" type="line"/>
      <point x="10" y="580" type="line"/>
      <point x="409" y="580" type="line"/>
    </contour>
    <contour>
      <point x="226" y="446" type="line"/>
      <point x="226" y="365" type="line"/>
      <point x="245" y="365" type="line"/>
      <point x="245" y="446" type="line"/>
    </contour>
    <contour>
      <point x="434" y="459" type="line"/>
      <point x="434" y="356" type="line"/>
      <point x="453" y="356" type="line"/>
      <point x="453" y="459" type="line"/>
    </contour>
    <contour>
      <point x="23" y="0" type="line"/>
      <point x="135" y="112" type="line"/>
      <point x="122" y="125" type="line"/>
      <point x="10" y="13" type="line"/>
    </contour>
    <contour>
      <point x="234" y="0" type="line"/>
      <point x="247" y="13" type="line"/>
      <point x="138" y="125" type="line"/>
      <point x="125" y="112" type="line"/>
    </contour>
    <contour>
      <point x="120" y="110" type="line"/>
      <point x="140" y="110" type="line"/>
      <point x="140" y="505" type="line"/>
      <point x="120" y="508" type="line"/>
    </contour>
    <contour>
      <point x="232" y="432" type="line"/>
      <point x="244" y="449" type="line"/>
      <point x="143" y="505" type="line"/>
      <point x="125" y="492" type="line"/>
    </contour>
    <contour>
      <point x="238" y="212" type="line"/>
      <point x="251" y="230" type="line"/>
      <point x="143" y="308" type="line"/>
      <point x="134" y="288" type="line"/>
    </contour>
    <contour>
      <point x="332" y="498" type="line"/>
      <point x="354" y="497" type="line"/>
      <point x="411" y="585" type="line"/>
      <point x="396" y="595" type="line"/>
    </contour>
    <contour>
      <point x="335" y="505" type="line"/>
      <point x="443" y="443" type="line"/>
      <point x="453" y="459" type="line"/>
      <point x="355" y="516" type="line"/>
    </contour>
    <contour>
      <point x="394" y="584" type="line"/>
      <point x="555" y="485" type="line"/>
      <point x="568" y="501" type="line"/>
      <point x="409" y="600" type="line"/>
    </contour>
    <contour>
      <point x="449" y="444" type="line"/>
      <point x="565" y="485" type="line"/>
      <point x="555" y="499" type="line"/>
      <point x="438" y="459" type="line"/>
    </contour>
    <contour>
      <point x="546" y="501" type="line"/>
      <point x="546" y="317" type="line"/>
      <point x="568" y="317" type="line"/>
      <point x="568" y="501" type="line"/>
    </contour>
    <contour>
      <point x="396" y="234" type="line"/>
      <point x="411" y="218" type="line"/>
      <point x="568" y="317" type="line"/>
      <point x="557" y="333" type="line"/>
    </contour>
    <contour>
      <point x="439" y="370" type="line"/>
      <point x="429" y="356" type="line"/>
      <point x="560" y="313" type="line"/>
      <point x="560" y="332" type="line"/>
    </contour>
    <contour>
      <point x="329" y="310" type="line"/>
      <point x="404" y="220" type="line"/>
      <point x="414" y="237" type="line"/>
      <point x="348" y="314" type="line"/>
    </contour>
    <contour>
      <point x="337" y="313" type="line"/>
      <point x="349" y="298" type="line"/>
      <point x="453" y="356" type="line"/>
      <point x="446" y="371" type="line"/>
    </contour>
    <contour>
      <point x="349" y="315" type="line"/>
      <point x="140" y="315" type="line"/>
      <point x="140" y="295" type="line"/>
      <point x="349" y="295" type="line"/>
    </contour>
    <contour>
      <point x="357" y="517" type="line"/>
      <point x="124" y="517" type="line"/>
      <point x="124" y="497" type="line"/>
      <point x="357" y="497" type="line"/>
    </contour>
    <contour>
      <point x="228" y="378" type="line"/>
      <point x="128" y="313" type="line"/>
      <point x="139" y="297" type="line"/>
      <point x="248" y="370" type="line"/>
    </contour>
    <contour>
      <point x="299" y="375" type="line"/>
      <point x="336" y="303" type="line"/>
      <point x="350" y="317" type="line"/>
      <point x="318" y="376" type="line"/>
    </contour>
    <contour>
      <point x="318" y="381" type="line"/>
      <point x="235" y="381" type="line"/>
      <point x="235" y="364" type="line"/>
      <point x="318" y="364" type="line"/>
    </contour>
    <contour>
      <point x="303" y="451" type="line"/>
      <point x="227" y="451" type="line"/>
      <point x="227" y="432" type="line"/>
      <point x="306" y="432" type="line"/>
    </contour>
    <contour>
      <point x="290" y="437" type="line"/>
      <point x="314" y="440" type="line"/>
      <point x="362" y="508" type="line"/>
      <point x="343" y="512" type="line"/>
    </contour>
    <contour>
      <point x="331" y="421" type="line"/>
      <point x="331" y="395" type="line"/>
      <point x="350" y="395" type="line"/>
      <point x="350" y="420" type="line"/>
    </contour>
    <contour>
      <point x="345" y="410" type="line"/>
      <point x="445" y="445" type="line"/>
      <point x="436" y="459" type="line"/>
      <point x="339" y="428" type="line"/>
    </contour>
    <contour>
      <point x="345" y="404" type="line"/>
      <point x="326" y="390" type="line"/>
      <point x="441" y="352" type="line"/>
      <point x="449" y="368" type="line"/>
    </contour>
    <contour>
      <point x="300" y="374" type="line"/>
      <point x="313" y="361" type="line"/>
      <point x="353" y="389" type="line"/>
      <point x="339" y="404" type="line"/>
    </contour>
    <contour>
      <point x="295" y="436" type="line"/>
      <point x="333" y="416" type="line"/>
      <point x="352" y="425" type="line"/>
      <point x="310" y="450" type="line"/>
    </contour>
    <contour>
      <point x="125" y="492" type="line"/>
      <point x="133" y="514" type="line"/>
      <point x="36" y="588" type="line"/>
      <point x="20" y="575" type="line"/>
    </contour>
  </outline>
</glyph>
<glyph name="Q" format="2">
  <advance width="530"/>
  <unicode hex="0051"/>
  <outline>
    <contour>
      <point x="155" y="0" type="line"/>
      <point x="169" y="14" type="line"/>
      <point x="19" y="164" type="line"/>
      <point x="5" y="150" type="line"/>
    </contour>
    <contour>
      <point x="25" y="147" type="line"/>
      <point x="108" y="169" type="line"/>
      <point x="102" y="186" type="line"/>
      <point x="19" y="164" type="line"/>
    </contour>
    <contour>
      <point x="167" y="9" type="line"/>
      <point x="215" y="98" type="line"/>
      <point x="200" y="107" type="line"/>
      <point x="152" y="18" type="line"/>
    </contour>
    <contour>
      <point x="155" y="0" type="line"/>
      <point x="222" y="0" type="line"/>
      <point x="222" y="18" type="line"/>
      <point x="155" y="18" type="line"/>
    </contour>
    <contour>
      <point x="200" y="89" type="line"/>
      <point x="214" y="103" type="line"/>
      <point x="109" y="189" type="line"/>
      <point x="95" y="175" type="line"/>
    </contour>
    <contour>
      <point x="5" y="150" type="line"/>
      <point x="25" y="150" type="line"/>
      <point x="25" y="460" type="line"/>
      <point x="5" y="460" type="line"/>
    </contour>
    <contour>
      <point x="110" y="171" type="line"/>
      <point x="235" y="188" type="line"/>
      <point x="229" y="204" type="line"/>
      <point x="104" y="187" type="line"/>
    </contour>
    <contour>
      <point x="200" y="89" type="line"/>
      <point x="330" y="89" type="line"/>
      <point x="330" y="107" type="line"/>
      <point x="200" y="107" type="line"/>
    </contour>
    <contour>
      <point x="210" y="93" type="line"/>
      <point x="260" y="167" type="line"/>
      <point x="247" y="177" type="line"/>
      <point x="197" y="103" type="line"/>
    </contour>
    <contour>
      <point x="372" y="-1" type="line"/>
      <point x="381" y="18" type="line"/>
      <point x="332" y="104" type="line"/>
      <point x="315" y="96" type="line"/>
    </contour>
    <contour>
      <point x="95" y="175" type="line"/>
      <point x="115" y="175" type="line"/>
      <point x="115" y="435" type="line"/>
      <point x="95" y="435" type="line"/>
    </contour>
    <contour>
      <point x="247" y="159" type="line"/>
      <point x="261" y="173" type="line"/>
      <point x="229" y="204" type="line"/>
      <point x="215" y="190" type="line"/>
    </contour>
    <contour>
      <point x="247" y="159" type="line"/>
      <point x="283" y="159" type="line"/>
      <point x="283" y="177" type="line"/>
      <point x="247" y="177" type="line"/>
    </contour>
    <contour>
      <point x="320" y="93" type="line"/>
      <point x="334" y="103" type="line"/>
      <point x="283" y="177" type="line"/>
      <point x="270" y="167" type="line"/>
    </contour>
    <contour>
      <point x="283" y="159" type="line"/>
      <point x="315" y="190" type="line"/>
      <point x="301" y="204" type="line"/>
      <point x="269" y="173" type="line"/>
    </contour>
    <contour>
      <point x="102" y="424" type="line"/>
      <point x="108" y="441" type="line"/>
      <point x="25" y="463" type="line"/>
      <point x="19" y="446" type="line"/>
    </contour>
    <contour>
      <point x="330" y="89" type="line"/>
      <point x="435" y="175" type="line"/>
      <point x="421" y="189" type="line"/>
      <point x="316" y="103" type="line"/>
    </contour>
    <contour>
      <point x="215" y="190" type="line"/>
      <point x="235" y="190" type="line"/>
      <point x="235" y="405" type="line"/>
      <point x="215" y="405" type="line"/>
    </contour>
    <contour>
      <point x="372" y="-1" type="line"/>
      <point x="525" y="150" type="line"/>
      <point x="511" y="164" type="line"/>
      <point x="370" y="28" type="line"/>
    </contour>
    <contour>
      <point x="420" y="171" type="line"/>
      <point x="426" y="187" type="line"/>
      <point x="301" y="204" type="line"/>
      <point x="295" y="188" type="line"/>
    </contour>
    <contour>
      <point x="229" y="391" type="line"/>
      <point x="235" y="407" type="line"/>
      <point x="115" y="437" type="line"/>
      <point x="109" y="421" type="line"/>
    </contour>
    <contour>
      <point x="295" y="190" type="line"/>
      <point x="315" y="190" type="line"/>
      <point x="315" y="405" type="line"/>
      <point x="295" y="405" type="line"/>
    </contour>
    <contour>
      <point x="19" y="446" type="line"/>
      <point x="169" y="586" type="line"/>
      <point x="155" y="600" type="line"/>
      <point x="5" y="460" type="line"/>
    </contour>
    <contour>
      <point x="109" y="421" type="line"/>
      <point x="214" y="512" type="line"/>
      <point x="200" y="526" type="line"/>
      <point x="95" y="435" type="line"/>
    </contour>
    <contour>
      <point x="505" y="147" type="line"/>
      <point x="511" y="164" type="line"/>
      <point x="428" y="186" type="line"/>
      <point x="422" y="169" type="line"/>
    </contour>
    <contour>
      <point x="229" y="391" type="line"/>
      <point x="261" y="422" type="line"/>
      <point x="247" y="436" type="line"/>
      <point x="215" y="405" type="line"/>
    </contour>
    <contour>
      <point x="247" y="418" type="line"/>
      <point x="283" y="418" type="line"/>
      <point x="283" y="436" type="line"/>
      <point x="247" y="436" type="line"/>
    </contour>
    <contour>
      <point x="247" y="418" type="line"/>
      <point x="262" y="428" type="line"/>
      <point x="210" y="520" type="line"/>
      <point x="195" y="510" type="line"/>
    </contour>
    <contour>
      <point x="301" y="391" type="line"/>
      <point x="315" y="405" type="line"/>
      <point x="283" y="436" type="line"/>
      <point x="269" y="422" type="line"/>
    </contour>
    <contour>
      <point x="415" y="175" type="line"/>
      <point x="435" y="175" type="line"/>
      <point x="435" y="435" type="line"/>
      <point x="415" y="435" type="line"/>
    </contour>
    <contour>
      <point x="196" y="509" type="line"/>
      <point x="213" y="515" type="line"/>
      <point x="171" y="586" type="line"/>
      <point x="154" y="580" type="line"/>
    </contour>
    <contour>
      <point x="283" y="418" type="line"/>
      <point x="335" y="510" type="line"/>
      <point x="320" y="520" type="line"/>
      <point x="268" y="428" type="line"/>
    </contour>
    <contour>
      <point x="301" y="391" type="line"/>
      <point x="421" y="421" type="line"/>
      <point x="415" y="437" type="line"/>
      <point x="295" y="407" type="line"/>
    </contour>
    <contour>
      <point x="200" y="508" type="line"/>
      <point x="330" y="508" type="line"/>
      <point x="330" y="526" type="line"/>
      <point x="200" y="526" type="line"/>
    </contour>
    <contour>
      <point x="505" y="150" type="line"/>
      <point x="525" y="150" type="line"/>
      <point x="525" y="460" type="line"/>
      <point x="505" y="460" type="line"/>
    </contour>
    <contour>
      <point x="421" y="421" type="line"/>
      <point x="435" y="435" type="line"/>
      <point x="330" y="526" type="line"/>
      <point x="316" y="512" type="line"/>
    </contour>
    <contour>
      <point x="155" y="582" type="line"/>
      <point x="375" y="582" type="line"/>
      <point x="375" y="600" type="line"/>
      <point x="155" y="600" type="line"/>
    </contour>
    <contour>
      <point x="334" y="509" type="line"/>
      <point x="376" y="580" type="line"/>
      <point x="359" y="586" type="line"/>
      <point x="317" y="515" type="line"/>
    </contour>
    <contour>
      <point x="428" y="424" type="line"/>
      <point x="511" y="446" type="line"/>
      <point x="505" y="463" type="line"/>
      <point x="422" y="441" type="line"/>
    </contour>
    <contour>
      <point x="511" y="446" type="line"/>
      <point x="525" y="460" type="line"/>
      <point x="375" y="600" type="line"/>
      <point x="361" y="586" type="line"/>
    </contour>
    <contour>
      <point x="221" y="2" type="line"/>
      <point x="326" y="94" type="line"/>
      <point x="312" y="102" type="line"/>
      <point x="207" y="10" type="line"/>
    </contour>
    <contour>
      <point x="300" y="-81" type="line"/>
      <point x="405" y="-81" type="line"/>
      <point x="400" y="-63" type="line"/>
      <point x="300" y="-63" type="line"/>
    </contour>
    <contour>
      <point x="386" y="-81" type="line"/>
      <point x="405" y="-81" type="line"/>
      <point x="405" y="37" type="line"/>
      <point x="386" y="37" type="line"/>
    </contour>
    <contour>
      <point x="300" y="-81" type="line"/>
      <point x="315" y="-70" type="line"/>
      <point x="227" y="16" type="line"/>
      <point x="211" y="6" type="line"/>
    </contour>
    <contour>
      <point x="391" y="-79" type="line"/>
      <point x="404" y="-68" type="line"/>
      <point x="299" y="31" type="line"/>
      <point x="288" y="17" type="line"/>
    </contour>
    <contour>
      <point x="225" y="1" type="line"/>
      <point x="301" y="10" type="line"/>
      <point x="302" y="27" type="line"/>
      <point x="226" y="17" type="line"/>
    </contour>
    <contour>
      <point x="287" y="9" type="line"/>
      <point x="307" y="10" type="line"/>
      <point x="333" y="97" type="line"/>
      <point x="316" y="96" type="line"/>
    </contour>
  </outline>
</glyph>
<glyph name="U" format="2">
  <advance width="525"/>
  <unicode hex="0055"/>
  <anchor x="260" y="0" name="bottom"/>
  <anchor x="340" y="18" name="ogonek"/>
  <anchor x="260" y="600" name="top"/>
  <anchor x="500" y="600" name="topright"/>
  <outline>
    <contour>
      <point x="5" y="600" type="line"/>
      <point x="5" y="173" type="line"/>
      <point x="25" y="173" type="line"/>
      <point x="25" y="600" type="line"/>
    </contour>
    <contour>
      <point x="225" y="600" type="line"/>
      <point x="225" y="203" type="line"/>
      <point x="245" y="203" type="line"/>
      <point x="245" y="600" type="line"/>
    </contour>
    <contour>
      <point x="335" y="600" type="line"/>
      <point x="335" y="203" type="line"/>
      <point x="355" y="203" type="line"/>
      <point x="355" y="600" type="line"/>
    </contour>
    <contour>
      <point x="495" y="600" type="line"/>
      <point x="495" y="174" type="line"/>
      <point x="515" y="174" type="line"/>
      <point x="515" y="600" type="line"/>
    </contour>
    <contour>
      <point x="5" y="600" type="line"/>
      <point x="5" y="580" type="line"/>
      <point x="245" y="580" type="line"/>
      <point x="245" y="600" type="line"/>
    </contour>
    <contour>
      <point x="335" y="600" type="line"/>
      <point x="335" y="580" type="line"/>
      <point x="515" y="580" type="line"/>
      <point x="515" y="600" type="line"/>
    </contour>
    <contour>
      <point x="170" y="20" type="line"/>
      <point x="170" y="0" type="line"/>
      <point x="350" y="0" type="line"/>
      <point x="350" y="20" type="line"/>
    </contour>
    <contour>
      <point x="5" y="174" type="line"/>
      <point x="170" y="0" type="line"/>
      <point x="185" y="13" type="line"/>
      <point x="20" y="188" type="line"/>
    </contour>
    <contour>
      <point x="335" y="13" type="line"/>
      <point x="350" y="0" type="line"/>
      <point x="515" y="174" type="line"/>
      <point x="500" y="188" type="line"/>
    </contour>
    <contour>
      <point x="110" y="500" type="line"/>
      <point x="110" y="184" type="line"/>
      <point x="130" y="184" type="line"/>
      <point x="130" y="500" type="line"/>
    </contour>
    <contour>
      <point x="415" y="520" type="line"/>
      <point x="415" y="194" type="line"/>
      <point x="435" y="194" type="line"/>
      <point x="435" y="520" type="line"/>
    </contour>
    <contour>
      <point x="227" y="595" type="line"/>
      <point x="110" y="500" type="line"/>
      <point x="122" y="484" type="line"/>
      <point x="239" y="579" type="line"/>
    </contour>
    <contour>
      <point x="119" y="484" type="line"/>
      <point x="131" y="500" type="line"/>
      <point x="21" y="597" type="line"/>
      <point x="9" y="581" type="line"/>
    </contour>
    <contour>
      <point x="263" y="181" type="line"/>
      <point x="263" y="161" type="line"/>
      <point x="320" y="161" type="line"/>
      <point x="320" y="181" type="line"/>
    </contour>
    <contour>
      <point x="221" y="103" type="line"/>
      <point x="221" y="83" type="line"/>
      <point x="341" y="83" type="line"/>
      <point x="341" y="103" type="line"/>
    </contour>
    <contour>
      <point x="499" y="598" type="line"/>
      <point x="417" y="523" type="line"/>
      <point x="429" y="507" type="line"/>
      <point x="511" y="582" type="line"/>
    </contour>
    <contour>
      <point x="424" y="504" type="line"/>
      <point x="436" y="520" type="line"/>
      <point x="351" y="597" type="line"/>
      <point x="339" y="581" type="line"/>
    </contour>
    <contour>
      <point x="6" y="193" type="line"/>
      <point x="6" y="173" type="line"/>
      <point x="130" y="173" type="line"/>
      <point x="130" y="193" type="line"/>
    </contour>
    <contour>
      <point x="221" y="101" type="line"/>
      <point x="167" y="17" type="line"/>
      <point x="183" y="6" type="line"/>
      <point x="238" y="90" type="line"/>
    </contour>
    <contour>
      <point x="261" y="178" type="line"/>
      <point x="222" y="101" type="line"/>
      <point x="238" y="90" type="line"/>
      <point x="278" y="167" type="line"/>
    </contour>
    <contour>
      <point x="340" y="7" type="line"/>
      <point x="360" y="15" type="line"/>
      <point x="341" y="96" type="line"/>
      <point x="322" y="91" type="line"/>
    </contour>
    <contour>
      <point x="321" y="95" type="line"/>
      <point x="339" y="101" type="line"/>
      <point x="322" y="176" type="line"/>
      <point x="304" y="171" type="line"/>
    </contour>
    <contour>
      <point x="126" y="196" type="line"/>
      <point x="111" y="183" type="line"/>
      <point x="221" y="83" type="line"/>
      <point x="237" y="96" type="line"/>
    </contour>
    <contour>
      <point x="427" y="207" type="line"/>
      <point x="422" y="188" type="line"/>
      <point x="502" y="169" type="line"/>
      <point x="507" y="188" type="line"/>
    </contour>
    <contour>
      <point x="241" y="215" type="line"/>
      <point x="225" y="203" type="line"/>
      <point x="263" y="161" type="line"/>
      <point x="279" y="173" type="line"/>
    </contour>
    <contour>
      <point x="341" y="83" type="line"/>
      <point x="435" y="194" type="line"/>
      <point x="420" y="207" type="line"/>
      <point x="325" y="96" type="line"/>
    </contour>
    <contour>
      <point x="320" y="161" type="line"/>
      <point x="355" y="203" type="line"/>
      <point x="339" y="215" type="line"/>
      <point x="304" y="173" type="line"/>
    </contour>
    <contour>
      <point x="119" y="174" type="line"/>
      <point x="246" y="199" type="line"/>
      <point x="241" y="218" type="line"/>
      <point x="114" y="193" type="line"/>
    </contour>
    <contour>
      <point x="346" y="221" type="line"/>
      <point x="341" y="202" type="line"/>
      <point x="423" y="189" type="line"/>
      <point x="428" y="208" type="line"/>
    </contour>
  </outline>
</glyph>
<glyph name="V" format="2">
  <advance width="579"/>
  <unicode hex="0056"/>
  <anchor x="290" y="0" name="bottom"/>
  <anchor x="290" y="600" name="top"/>
  <outline>
    <contour>
      <point x="2" y="600" type="line"/>
      <point x="167" y="0" type="line"/>
      <point x="189" y="5" type="line"/>
      <point x="24" y="600" type="line"/>
    </contour>
    <contour>
      <point x="175" y="5" type="line"/>
      <point x="298" y="104" type="line"/>
      <point x="284" y="123" type="line"/>
      <point x="164" y="23" type="line"/>
    </contour>
    <contour>
      <point x="167" y="0" type="line"/>
      <point x="414" y="0" type="line"/>
      <point x="414" y="20" type="line"/>
      <point x="167" y="20" type="line"/>
    </contour>
    <contour>
      <point x="409" y="5" type="line"/>
      <point x="420" y="23" type="line"/>
      <point x="284" y="123" type="line"/>
      <point x="273" y="104" type="line"/>
    </contour>
    <contour>
      <point x="268" y="97" type="line"/>
      <point x="288" y="106" type="line"/>
      <point x="157" y="529" type="line"/>
      <point x="134" y="529" type="line"/>
    </contour>
    <contour>
      <point x="142" y="511" type="line"/>
      <point x="152" y="527" type="line"/>
      <point x="18" y="597" type="line"/>
      <point x="8" y="581" type="line"/>
    </contour>
    <contour>
      <point x="322" y="260" type="line"/>
      <point x="338" y="277" type="line"/>
      <point x="237" y="600" type="line"/>
      <point x="218" y="597" type="line"/>
    </contour>
    <contour>
      <point x="8" y="580" type="line"/>
      <point x="237" y="580" type="line"/>
      <point x="237" y="600" type="line"/>
      <point x="8" y="600" type="line"/>
    </contour>
    <contour>
      <point x="351" y="64" type="line"/>
      <point x="478" y="531" type="line"/>
      <point x="459" y="537" type="line"/>
      <point x="332" y="75" type="line"/>
    </contour>
    <contour>
      <point x="153" y="512" type="line"/>
      <point x="239" y="581" type="line"/>
      <point x="227" y="597" type="line"/>
      <point x="141" y="528" type="line"/>
    </contour>
    <contour>
      <point x="296" y="106" type="line"/>
      <point x="428" y="594" type="line"/>
      <point x="409" y="600" type="line"/>
      <point x="276" y="111" type="line"/>
    </contour>
    <contour>
      <point x="414" y="0" type="line"/>
      <point x="577" y="600" type="line"/>
      <point x="557" y="600" type="line"/>
      <point x="394" y="5" type="line"/>
    </contour>
    <contour>
      <point x="463" y="515" type="line"/>
      <point x="478" y="530" type="line"/>
      <point x="424" y="593" type="line"/>
      <point x="407" y="585" type="line"/>
    </contour>
    <contour>
      <point x="468" y="514" type="line"/>
      <point x="571" y="584" type="line"/>
      <point x="560" y="599" type="line"/>
      <point x="457" y="529" type="line"/>
    </contour>
    <contour>
      <point x="409" y="580" type="line"/>
      <point x="570" y="580" type="line"/>
      <point x="570" y="600" type="line"/>
      <point x="409" y="600" type="line"/>
    </contour>
  </outline>
</glyph>
<glyph name="W" format="2">
  <advance width="927"/>
  <unicode hex="0057"/>
  <anchor x="494" y="0" name="bottom"/>
  <anchor x="494" y="600" name="top"/>
  <outline>
    <contour>
      <point x="168" y="0" type="line"/>
      <point x="190" y="0" type="line"/>
      <point x="24" y="600" type="line"/>
      <point x="2" y="600" type="line"/>
    </contour>
    <contour>
      <point x="8" y="580" type="line"/>
      <point x="241" y="580" type="line"/>
      <point x="236" y="600" type="line"/>
      <point x="2" y="600" type="line"/>
    </contour>
    <contour>
      <point x="320" y="269" type="line"/>
      <point x="334" y="291" type="line"/>
      <point x="236" y="600" type="line"/>
      <point x="216" y="600" type="line"/>
    </contour>
    <contour>
      <point x="272" y="101" type="line"/>
      <point x="291" y="92" type="line"/>
      <point x="408" y="600" type="line"/>
      <point x="388" y="600" type="line"/>
    </contour>
    <contour>
      <point x="168" y="0" type="line"/>
      <point x="394" y="0" type="line"/>
      <point x="394" y="20" type="line"/>
      <point x="168" y="20" type="line"/>
    </contour>
    <contour>
      <point x="264" y="90" type="line"/>
      <point x="283" y="99" type="line"/>
      <point x="152" y="530" type="line"/>
      <point x="132" y="530" type="line"/>
    </contour>
    <contour>
      <point x="394" y="0" type="line"/>
      <point x="467" y="313" type="line"/>
      <point x="454" y="343" type="line"/>
      <point x="371" y="0" type="line"/>
    </contour>
    <contour>
      <point x="149" y="508" type="line"/>
      <point x="235" y="584" type="line"/>
      <point x="224" y="599" type="line"/>
      <point x="138" y="523" type="line"/>
    </contour>
    <contour>
      <point x="174" y="14" type="line"/>
      <point x="284" y="95" type="line"/>
      <point x="273" y="110" type="line"/>
      <point x="163" y="29" type="line"/>
    </contour>
    <contour>
      <point x="383" y="14" type="line"/>
      <point x="394" y="29" type="line"/>
      <point x="277" y="112" type="line"/>
      <point x="266" y="94" type="line"/>
    </contour>
    <contour>
      <point x="536" y="0" type="line"/>
      <point x="557" y="0" type="line"/>
      <point x="405" y="590" type="line"/>
      <point x="389" y="567" type="line"/>
    </contour>
    <contour>
      <point x="759" y="0" type="line"/>
      <point x="925" y="600" type="line"/>
      <point x="905" y="600" type="line"/>
      <point x="739" y="0" type="line"/>
    </contour>
    <contour>
      <point x="543" y="0" type="line"/>
      <point x="757" y="0" type="line"/>
      <point x="757" y="20" type="line"/>
      <point x="543" y="20" type="line"/>
    </contour>
    <contour>
      <point x="683" y="84" type="line"/>
      <point x="806" y="533" type="line"/>
      <point x="786" y="533" type="line"/>
      <point x="665" y="93" type="line"/>
    </contour>
    <contour>
      <point x="743" y="9" type="line"/>
      <point x="758" y="22" type="line"/>
      <point x="674" y="101" type="line"/>
      <point x="660" y="87" type="line"/>
    </contour>
    <contour>
      <point x="394" y="580" type="line"/>
      <point x="600" y="580" type="line"/>
      <point x="595" y="600" type="line"/>
      <point x="388" y="600" type="line"/>
    </contour>
    <contour>
      <point x="673" y="270" type="line"/>
      <point x="683" y="303" type="line"/>
      <point x="603" y="600" type="line"/>
      <point x="584" y="600" type="line"/>
    </contour>
    <contour>
      <point x="604" y="60" type="line"/>
      <point x="624" y="66" type="line"/>
      <point x="767" y="600" type="line"/>
      <point x="747" y="600" type="line"/>
    </contour>
    <contour>
      <point x="607" y="60" type="line"/>
      <point x="624" y="68" type="line"/>
      <point x="500" y="530" type="line"/>
      <point x="480" y="530" type="line"/>
    </contour>
    <contour>
      <point x="751" y="580" type="line"/>
      <point x="909" y="580" type="line"/>
      <point x="915" y="600" type="line"/>
      <point x="758" y="600" type="line"/>
    </contour>
    <contour>
      <point x="497" y="508" type="line"/>
      <point x="603" y="580" type="line"/>
      <point x="592" y="595" type="line"/>
      <point x="486" y="523" type="line"/>
    </contour>
    <contour>
      <point x="797" y="514" type="line"/>
      <point x="910" y="579" type="line"/>
      <point x="899" y="595" type="line"/>
      <point x="786" y="530" type="line"/>
    </contour>
    <contour>
      <point x="148" y="506" type="line"/>
      <point x="159" y="521" type="line"/>
      <point x="33" y="597" type="line"/>
      <point x="22" y="582" type="line"/>
    </contour>
    <contour>
      <point x="494" y="508" type="line"/>
      <point x="505" y="523" type="line"/>
      <point x="404" y="595" type="line"/>
      <point x="393" y="580" type="line"/>
    </contour>
    <contour>
      <point x="788" y="514" type="line"/>
      <point x="799" y="530" type="line"/>
      <point x="759" y="597" type="line"/>
      <point x="748" y="581" type="line"/>
    </contour>
    <contour>
      <point x="331" y="61" type="line"/>
      <point x="429" y="463" type="line"/>
      <point x="415" y="490" type="line"/>
      <point x="312" y="71" type="line"/>
    </contour>
    <contour>
      <point x="678" y="82" type="line"/>
      <point x="670" y="101" type="line"/>
      <point x="539" y="28" type="line"/>
      <point x="549" y="12" type="line"/>
    </contour>
  </outline>
</glyph>
<glyph name="questiondown" format="2">
  <advance width="401"/>
  <unicode hex="00BF"/>
  <outline>
    <contour>
      <point x="201" y="290" type="line"/>
      <point x="86" y="195" type="line"/>
      <point x="96" y="179" type="line"/>
      <point x="211" y="275" type="line"/>
    </contour>
    <contour>
      <point x="146" y="326" type="line"/>
      <point x="5" y="239" type="line"/>
      <point x="17" y="223" type="line"/>
      <point x="158" y="310" type="line"/>
    </contour>
    <contour>
      <point x="160" y="410" type="line"/>
      <point x="136" y="309" type="line"/>
      <point x="156" y="309" type="line"/>
      <point x="180" y="410" type="line"/>
    </contour>
    <contour>
      <point x="5" y="239" type="line"/>
      <point x="5" y="85" type="line"/>
      <point x="25" y="85" type="line"/>
      <point x="25" y="239" type="line"/>
    </contour>
    <contour>
      <point x="232" y="410" type="line"/>
      <point x="191" y="410" type="line"/>
      <point x="191" y="391" type="line"/>
      <point x="232" y="391" type="line"/>
    </contour>
    <contour>
      <point x="192" y="403" type="line"/>
      <point x="192" y="275" type="line"/>
      <point x="212" y="275" type="line"/>
      <point x="212" y="403" type="line"/>
    </contour>
    <contour>
      <point x="81" y="196" type="line"/>
      <point x="81" y="115" type="line"/>
      <point x="101" y="115" type="line"/>
      <point x="101" y="196" type="line"/>
    </contour>
    <contour>
      <point x="99" y="200" type="line"/>
      <point x="93" y="182" type="line"/>
      <point x="188" y="182" type="line"/>
      <point x="194" y="200" type="line"/>
    </contour>
    <contour>
      <point x="190" y="171" type="line"/>
      <point x="91" y="127" type="line"/>
      <point x="95" y="110" type="line"/>
      <point x="193" y="154" type="line"/>
    </contour>
    <contour>
      <point x="16" y="101" type="line"/>
      <point x="5" y="85" type="line"/>
      <point x="121" y="0" type="line"/>
      <point x="133" y="16" type="line"/>
    </contour>
    <contour>
      <point x="195" y="291" type="line"/>
      <point x="197" y="272" type="line"/>
      <point x="257" y="272" type="line"/>
      <point x="256" y="291" type="line"/>
    </contour>
    <contour>
      <point x="227" y="410" type="line"/>
      <point x="246" y="276" type="line"/>
      <point x="266" y="275" type="line"/>
      <point x="247" y="410" type="line"/>
    </contour>
    <contour>
      <point x="173" y="196" type="line"/>
      <point x="173" y="152" type="line"/>
      <point x="193" y="152" type="line"/>
      <point x="193" y="196" type="line"/>
    </contour>
    <contour>
      <point x="91" y="130" type="line"/>
      <point x="79" y="115" type="line"/>
      <point x="151" y="56" type="line"/>
      <point x="163" y="71" type="line"/>
    </contour>
    <contour>
      <point x="256" y="291" type="line"/>
      <point x="173" y="197" type="line"/>
      <point x="183" y="181" type="line"/>
      <point x="266" y="275" type="line"/>
    </contour>
    <contour>
      <point x="186" y="168" type="line"/>
      <point x="175" y="153" type="line"/>
      <point x="201" y="133" type="line"/>
      <point x="211" y="148" type="line"/>
    </contour>
    <contour>
      <point x="201" y="154" type="line"/>
      <point x="201" y="133" type="line"/>
      <point x="231" y="133" type="line"/>
      <point x="231" y="154" type="line"/>
    </contour>
    <contour>
      <point x="242" y="194" type="line"/>
      <point x="242" y="156" type="line"/>
      <point x="262" y="156" type="line"/>
      <point x="262" y="194" type="line"/>
    </contour>
    <contour>
      <point x="253" y="171" type="line"/>
      <point x="222" y="148" type="line"/>
      <point x="233" y="133" type="line"/>
      <point x="264" y="156" type="line"/>
    </contour>
    <contour>
      <point x="218" y="147" type="line"/>
      <point x="246" y="69" type="line"/>
      <point x="266" y="69" type="line"/>
      <point x="237" y="154" type="line"/>
    </contour>
    <contour>
      <point x="153" y="76" type="line"/>
      <point x="151" y="56" type="line"/>
      <point x="256" y="56" type="line"/>
      <point x="256" y="76" type="line"/>
    </contour>
    <contour>
      <point x="242" y="209" type="line"/>
      <point x="242" y="189" type="line"/>
      <point x="396" y="189" type="line"/>
      <point x="396" y="209" type="line"/>
    </contour>
    <contour>
      <point x="319" y="138" type="line"/>
      <point x="250" y="75" type="line"/>
      <point x="262" y="59" type="line"/>
      <point x="330" y="123" type="line"/>
    </contour>
    <contour>
      <point x="121" y="20" type="line"/>
      <point x="121" y="0" type="line"/>
      <point x="287" y="0" type="line"/>
      <point x="284" y="20" type="line"/>
    </contour>
    <contour>
      <point x="318" y="125" type="line"/>
      <point x="380" y="99" type="line"/>
      <point x="387" y="115" type="line"/>
      <point x="326" y="141" type="line"/>
    </contour>
    <contour>
      <point x="260" y="80" type="line"/>
      <point x="241" y="74" type="line"/>
      <point x="275" y="5" type="line"/>
      <point x="293" y="11" type="line"/>
    </contour>
    <contour>
      <point x="376" y="189" type="line"/>
      <point x="376" y="107" type="line"/>
      <point x="396" y="104" type="line"/>
      <point x="396" y="189" type="line"/>
    </contour>
    <contour>
      <point x="386" y="122" type="line"/>
      <point x="274" y="15" type="line"/>
      <point x="287" y="0" type="line"/>
      <point x="396" y="104" type="line"/>
    </contour>
    <contour>
      <point x="326" y="141" type="line"/>
      <point x="256" y="170" type="line"/>
      <point x="249" y="154" type="line"/>
      <point x="318" y="125" type="line"/>
    </contour>
    <contour>
      <point x="92" y="127" type="line"/>
      <point x="11" y="101" type="line"/>
      <point x="15" y="83" type="line"/>
      <point x="95" y="109" type="line"/>
    </contour>
    <contour>
      <point x="18" y="241" type="line"/>
      <point x="12" y="224" type="line"/>
      <point x="92" y="181" type="line"/>
      <point x="98" y="199" type="line"/>
    </contour>
    <contour>
      <point x="144" y="326" type="line"/>
      <point x="138" y="308" type="line"/>
      <point x="191" y="273" type="line"/>
      <point x="197" y="290" type="line"/>
    </contour>
    <contour>
      <point x="203" y="410" type="line"/>
      <point x="164" y="410" type="line"/>
      <point x="164" y="391" type="line"/>
      <point x="203" y="391" type="line"/>
    </contour>
    <contour>
      <point x="286" y="600" type="line"/>
      <point x="121" y="600" type="line"/>
      <point x="121" y="582" type="line"/>
      <point x="286" y="582" type="line"/>
    </contour>
    <contour>
      <point x="272" y="600" type="line"/>
      <point x="201" y="531" type="line"/>
      <point x="210" y="511" type="line"/>
      <point x="286" y="586" type="line"/>
    </contour>
    <contour>
      <point x="135" y="600" type="line"/>
      <point x="121" y="586" type="line"/>
      <point x="198" y="510" type="line"/>
      <point x="207" y="530" type="line"/>
    </contour>
    <contour>
      <point x="286" y="600" type="line"/>
      <point x="266" y="600" type="line"/>
      <point x="266" y="435" type="line"/>
      <point x="286" y="435" type="line"/>
    </contour>
    <contour>
      <point x="210" y="526" type="line"/>
      <point x="197" y="526" type="line"/>
      <point x="197" y="509" type="line"/>
      <point x="210" y="509" type="line"/>
    </contour>
    <contour>
      <point x="141" y="600" type="line"/>
      <point x="121" y="600" type="line"/>
      <point x="121" y="435" type="line"/>
      <point x="141" y="435" type="line"/>
    </contour>
    <contour>
      <point x="209" y="524" type="line"/>
      <point x="200" y="504" type="line"/>
      <point x="272" y="435" type="line"/>
      <point x="286" y="449" type="line"/>
    </contour>
    <contour>
      <point x="283" y="453" type="line"/>
      <point x="121" y="453" type="line"/>
      <point x="121" y="435" type="line"/>
      <point x="283" y="435" type="line"/>
    </contour>
    <contour>
      <point x="198" y="524" type="line"/>
      <point x="122" y="449" type="line"/>
      <point x="136" y="435" type="line"/>
      <point x="207" y="504" type="line"/>
    </contour>
    <contour>
      <point x="191" y="151" type="line"/>
      <point x="144" y="67" type="line"/>
      <point x="162" y="61" type="line"/>
      <point x="210" y="145" type="line"/>
    </contour>
    <contour>
      <point x="147" y="74" type="line"/>
      <point x="108" y="15" type="line"/>
      <point x="126" y="9" type="line"/>
      <point x="166" y="68" type="line"/>
    </contour>
  </outline>
</glyph>
<glyph name="Oslash" format="2">
  <advance width="530"/>
  <unicode hex="00D8"/>
  <anchor x="265" y="0" name="bottom"/>
  <anchor x="265" y="600" name="top"/>
  <outline>
    <contour>
      <point x="77" y="91" type="line"/>
      <point x="89" y="107" type="line"/>
      <point x="20" y="164" type="line"/>
      <point x="6" y="150" type="line"/>
    </contour>
    <contour>
      <point x="26" y="147" type="line"/>
      <point x="109" y="149" type="line"/>
      <point x="103" y="166" type="line"/>
      <point x="20" y="164" type="line"/>
    </contour>
    <contour>
      <point x="157" y="0" type="line"/>
      <point x="209" y="98" type="line"/>
      <point x="194" y="107" type="line"/>
      <point x="136" y="0" type="line"/>
    </contour>
    <contour>
      <point x="189" y="0" type="line"/>
      <point x="376" y="0" type="line"/>
      <point x="376" y="18" type="line"/>
      <point x="189" y="18" type="line"/>
    </contour>
    <contour>
      <point x="194" y="89" type="line"/>
      <point x="208" y="103" type="line"/>
      <point x="110" y="169" type="line"/>
      <point x="96" y="155" type="line"/>
    </contour>
    <contour>
      <point x="6" y="150" type="line"/>
      <point x="26" y="150" type="line"/>
      <point x="26" y="460" type="line"/>
      <point x="6" y="460" type="line"/>
    </contour>
    <contour>
      <point x="194" y="89" type="line"/>
      <point x="331" y="89" type="line"/>
      <point x="331" y="107" type="line"/>
      <point x="194" y="107" type="line"/>
    </contour>
    <contour>
      <point x="364" y="9" type="line"/>
      <point x="379" y="18" type="line"/>
      <point x="331" y="107" type="line"/>
      <point x="316" y="98" type="line"/>
    </contour>
    <contour>
      <point x="96" y="155" type="line"/>
      <point x="116" y="155" type="line"/>
      <point x="116" y="435" type="line"/>
      <point x="96" y="435" type="line"/>
    </contour>
    <contour>
      <point x="321" y="93" type="line"/>
      <point x="334" y="103" type="line"/>
      <point x="266" y="175" type="line"/>
      <point x="253" y="165" type="line"/>
    </contour>
    <contour>
      <point x="103" y="424" type="line"/>
      <point x="109" y="441" type="line"/>
      <point x="26" y="463" type="line"/>
      <point x="20" y="446" type="line"/>
    </contour>
    <contour>
      <point x="331" y="89" type="line"/>
      <point x="436" y="175" type="line"/>
      <point x="422" y="189" type="line"/>
      <point x="317" y="103" type="line"/>
    </contour>
    <contour>
      <point x="376" y="0" type="line"/>
      <point x="526" y="150" type="line"/>
      <point x="512" y="164" type="line"/>
      <point x="362" y="14" type="line"/>
    </contour>
    <contour>
      <point x="421" y="171" type="line"/>
      <point x="427" y="187" type="line"/>
      <point x="260" y="178" type="line"/>
      <point x="262" y="162" type="line"/>
    </contour>
    <contour>
      <point x="263" y="401" type="line"/>
      <point x="258" y="420" type="line"/>
      <point x="116" y="437" type="line"/>
      <point x="110" y="421" type="line"/>
    </contour>
    <contour>
      <point x="20" y="446" type="line"/>
      <point x="170" y="586" type="line"/>
      <point x="156" y="600" type="line"/>
      <point x="6" y="460" type="line"/>
    </contour>
    <contour>
      <point x="110" y="421" type="line"/>
      <point x="215" y="512" type="line"/>
      <point x="201" y="526" type="line"/>
      <point x="96" y="435" type="line"/>
    </contour>
    <contour>
      <point x="506" y="147" type="line"/>
      <point x="512" y="164" type="line"/>
      <point x="429" y="186" type="line"/>
      <point x="423" y="169" type="line"/>
    </contour>
    <contour>
      <point x="257" y="412" type="line"/>
      <point x="276" y="422" type="line"/>
      <point x="211" y="520" type="line"/>
      <point x="196" y="510" type="line"/>
    </contour>
    <contour>
      <point x="416" y="175" type="line"/>
      <point x="436" y="175" type="line"/>
      <point x="436" y="455" type="line"/>
      <point x="416" y="455" type="line"/>
    </contour>
    <contour>
      <point x="197" y="509" type="line"/>
      <point x="214" y="515" type="line"/>
      <point x="172" y="586" type="line"/>
      <point x="155" y="580" type="line"/>
    </contour>
    <contour>
      <point x="201" y="508" type="line"/>
      <point x="331" y="508" type="line"/>
      <point x="331" y="526" type="line"/>
      <point x="201" y="526" type="line"/>
    </contour>
    <contour>
      <point x="506" y="150" type="line"/>
      <point x="526" y="150" type="line"/>
      <point x="526" y="461" type="line"/>
      <point x="506" y="461" type="line"/>
    </contour>
    <contour>
      <point x="428" y="441" type="line"/>
      <point x="511" y="445" type="line"/>
      <point x="506" y="461" type="line"/>
      <point x="423" y="461" type="line"/>
    </contour>
    <contour>
      <point x="159" y="19" type="line"/>
      <point x="31" y="19" type="line"/>
      <point x="14" y="0" type="line"/>
      <point x="149" y="0" type="line"/>
    </contour>
    <contour>
      <point x="89" y="103" type="line"/>
      <point x="75" y="115" type="line"/>
      <point x="6" y="0" type="line"/>
      <point x="28" y="0" type="line"/>
    </contour>
    <contour>
      <point x="165" y="122" type="line"/>
      <point x="151" y="133" type="line"/>
      <point x="103" y="57" type="line"/>
      <point x="124" y="57" type="line"/>
    </contour>
    <contour>
      <point x="77" y="89" type="line"/>
      <point x="156" y="129" type="line"/>
      <point x="143" y="143" type="line"/>
      <point x="69" y="104" type="line"/>
    </contour>
    <contour>
      <point x="124" y="76" type="line"/>
      <point x="112" y="61" type="line"/>
      <point x="141" y="0" type="line"/>
      <point x="155" y="15" type="line"/>
    </contour>
    <contour>
      <point x="119" y="77" type="line"/>
      <point x="18" y="16" type="line"/>
      <point x="24" y="0" type="line"/>
      <point x="126" y="62" type="line"/>
    </contour>
    <contour>
      <point x="150" y="131" type="line"/>
      <point x="164" y="120" type="line"/>
      <point x="421" y="543" type="line"/>
      <point x="400" y="543" type="line"/>
    </contour>
    <contour>
      <point x="104" y="160" type="line"/>
      <point x="120" y="147" type="line"/>
      <point x="282" y="422" type="line"/>
      <point x="261" y="427" type="line"/>
    </contour>
    <contour>
      <point x="248" y="171" type="line"/>
      <point x="267" y="164" type="line"/>
      <point x="436" y="455" type="line"/>
      <point x="416" y="460" type="line"/>
    </contour>
    <contour>
      <point x="172" y="126" type="line"/>
      <point x="267" y="164" type="line"/>
      <point x="260" y="181" type="line"/>
      <point x="164" y="141" type="line"/>
    </contour>
    <contour>
      <point x="375" y="488" type="line"/>
      <point x="258" y="425" type="line"/>
      <point x="269" y="407" type="line"/>
      <point x="382" y="474" type="line"/>
    </contour>
    <contour>
      <point x="189" y="0" type="line"/>
      <point x="199" y="16" type="line"/>
      <point x="171" y="38" type="line"/>
      <point x="159" y="24" type="line"/>
    </contour>
    <contour>
      <point x="454" y="521" type="line"/>
      <point x="442" y="506" type="line"/>
      <point x="508" y="448" type="line"/>
      <point x="526" y="461" type="line"/>
    </contour>
    <contour>
      <point x="371" y="600" type="line"/>
      <point x="322" y="514" type="line"/>
      <point x="337" y="505" type="line"/>
      <point x="392" y="600" type="line"/>
    </contour>
    <contour>
      <point x="339" y="600" type="line"/>
      <point x="156" y="600" type="line"/>
      <point x="156" y="582" type="line"/>
      <point x="339" y="582" type="line"/>
    </contour>
    <contour>
      <point x="331" y="526" type="line"/>
      <point x="319" y="512" type="line"/>
      <point x="424" y="441" type="line"/>
      <point x="436" y="455" type="line"/>
    </contour>
    <contour>
      <point x="369" y="581" type="line"/>
      <point x="497" y="581" type="line"/>
      <point x="514" y="600" type="line"/>
      <point x="379" y="600" type="line"/>
    </contour>
    <contour>
      <point x="442" y="509" type="line"/>
      <point x="456" y="497" type="line"/>
      <point x="522" y="600" type="line"/>
      <point x="500" y="600" type="line"/>
    </contour>
    <contour>
      <point x="454" y="521" type="line"/>
      <point x="375" y="486" type="line"/>
      <point x="383" y="472" type="line"/>
      <point x="463" y="504" type="line"/>
    </contour>
    <contour>
      <point x="400" y="524" type="line"/>
      <point x="412" y="539" type="line"/>
      <point x="383" y="600" type="line"/>
      <point x="369" y="585" type="line"/>
    </contour>
    <contour>
      <point x="405" y="523" type="line"/>
      <point x="510" y="584" type="line"/>
      <point x="504" y="600" type="line"/>
      <point x="398" y="538" type="line"/>
    </contour>
    <contour>
      <point x="339" y="600" type="line"/>
      <point x="329" y="584" type="line"/>
      <point x="359" y="564" type="line"/>
      <point x="371" y="578" type="line"/>
    </contour>
  </outline>
</glyph>
<glyph name="Thorn" format="2">
  <advance width="568"/>
  <unicode hex="00DE"/>
  <outline>
    <contour>
      <point x="5" y="599" type="line"/>
      <point x="5" y="0" type="line"/>
      <point x="25" y="0" type="line"/>
      <point x="25" y="599" type="line"/>
    </contour>
    <contour>
      <point x="222" y="127" type="line"/>
      <point x="222" y="0" type="line"/>
      <point x="242" y="0" type="line"/>
      <point x="242" y="127" type="line"/>
    </contour>
    <contour>
      <point x="235" y="20" type="line"/>
      <point x="10" y="20" type="line"/>
      <point x="9" y="0" type="line"/>
      <point x="235" y="0" type="line"/>
    </contour>
    <contour>
      <point x="406" y="138" type="line"/>
      <point x="222" y="138" type="line"/>
      <point x="222" y="118" type="line"/>
      <point x="406" y="118" type="line"/>
    </contour>
    <contour>
      <point x="404" y="500" type="line"/>
      <point x="235" y="500" type="line"/>
      <point x="235" y="480" type="line"/>
      <point x="404" y="480" type="line"/>
    </contour>
    <contour>
      <point x="221" y="351" type="line"/>
      <point x="221" y="265" type="line"/>
      <point x="240" y="265" type="line"/>
      <point x="240" y="351" type="line"/>
    </contour>
    <contour>
      <point x="429" y="359" type="line"/>
      <point x="429" y="256" type="line"/>
      <point x="448" y="256" type="line"/>
      <point x="448" y="359" type="line"/>
    </contour>
    <contour>
      <point x="18" y="0" type="line"/>
      <point x="130" y="112" type="line"/>
      <point x="117" y="125" type="line"/>
      <point x="5" y="13" type="line"/>
    </contour>
    <contour>
      <point x="229" y="0" type="line"/>
      <point x="242" y="13" type="line"/>
      <point x="133" y="125" type="line"/>
      <point x="120" y="112" type="line"/>
    </contour>
    <contour>
      <point x="115" y="110" type="line"/>
      <point x="135" y="110" type="line"/>
      <point x="135" y="505" type="line"/>
      <point x="115" y="508" type="line"/>
    </contour>
    <contour>
      <point x="233" y="112" type="line"/>
      <point x="246" y="130" type="line"/>
      <point x="138" y="208" type="line"/>
      <point x="129" y="188" type="line"/>
    </contour>
    <contour>
      <point x="325" y="405" type="line"/>
      <point x="349" y="404" type="line"/>
      <point x="406" y="485" type="line"/>
      <point x="389" y="495" type="line"/>
    </contour>
    <contour>
      <point x="325" y="406" type="line"/>
      <point x="438" y="343" type="line"/>
      <point x="448" y="359" type="line"/>
      <point x="345" y="417" type="line"/>
    </contour>
    <contour>
      <point x="389" y="484" type="line"/>
      <point x="550" y="385" type="line"/>
      <point x="563" y="401" type="line"/>
      <point x="404" y="500" type="line"/>
    </contour>
    <contour>
      <point x="437" y="346" type="line"/>
      <point x="560" y="385" type="line"/>
      <point x="550" y="399" type="line"/>
      <point x="426" y="361" type="line"/>
    </contour>
    <contour>
      <point x="541" y="401" type="line"/>
      <point x="541" y="217" type="line"/>
      <point x="563" y="217" type="line"/>
      <point x="563" y="401" type="line"/>
    </contour>
    <contour>
      <point x="391" y="134" type="line"/>
      <point x="406" y="118" type="line"/>
      <point x="563" y="217" type="line"/>
      <point x="552" y="233" type="line"/>
    </contour>
    <contour>
      <point x="434" y="270" type="line"/>
      <point x="424" y="256" type="line"/>
      <point x="555" y="213" type="line"/>
      <point x="555" y="232" type="line"/>
    </contour>
    <contour>
      <point x="324" y="210" type="line"/>
      <point x="399" y="120" type="line"/>
      <point x="409" y="137" type="line"/>
      <point x="343" y="214" type="line"/>
    </contour>
    <contour>
      <point x="332" y="213" type="line"/>
      <point x="344" y="198" type="line"/>
      <point x="440" y="252" type="line"/>
      <point x="433" y="267" type="line"/>
    </contour>
    <contour>
      <point x="344" y="215" type="line"/>
      <point x="135" y="215" type="line"/>
      <point x="135" y="195" type="line"/>
      <point x="344" y="195" type="line"/>
    </contour>
    <contour>
      <point x="345" y="417" type="line"/>
      <point x="129" y="417" type="line"/>
      <point x="129" y="397" type="line"/>
      <point x="345" y="397" type="line"/>
    </contour>
    <contour>
      <point x="223" y="278" type="line"/>
      <point x="123" y="213" type="line"/>
      <point x="134" y="197" type="line"/>
      <point x="243" y="270" type="line"/>
    </contour>
    <contour>
      <point x="294" y="275" type="line"/>
      <point x="331" y="203" type="line"/>
      <point x="345" y="217" type="line"/>
      <point x="313" y="276" type="line"/>
    </contour>
    <contour>
      <point x="313" y="281" type="line"/>
      <point x="230" y="281" type="line"/>
      <point x="230" y="264" type="line"/>
      <point x="313" y="264" type="line"/>
    </contour>
    <contour>
      <point x="298" y="351" type="line"/>
      <point x="221" y="351" type="line"/>
      <point x="221" y="332" type="line"/>
      <point x="301" y="332" type="line"/>
    </contour>
    <contour>
      <point x="285" y="337" type="line"/>
      <point x="309" y="340" type="line"/>
      <point x="354" y="404" type="line"/>
      <point x="338" y="412" type="line"/>
    </contour>
    <contour>
      <point x="326" y="321" type="line"/>
      <point x="326" y="290" type="line"/>
      <point x="345" y="290" type="line"/>
      <point x="345" y="320" type="line"/>
    </contour>
    <contour>
      <point x="340" y="310" type="line"/>
      <point x="445" y="348" type="line"/>
      <point x="436" y="362" type="line"/>
      <point x="334" y="328" type="line"/>
    </contour>
    <contour>
      <point x="340" y="304" type="line"/>
      <point x="321" y="290" type="line"/>
      <point x="436" y="252" type="line"/>
      <point x="444" y="268" type="line"/>
    </contour>
    <contour>
      <point x="295" y="274" type="line"/>
      <point x="308" y="261" type="line"/>
      <point x="348" y="289" type="line"/>
      <point x="334" y="304" type="line"/>
    </contour>
    <contour>
      <point x="294" y="334" type="line"/>
      <point x="334" y="311" type="line"/>
      <point x="347" y="325" type="line"/>
      <point x="309" y="348" type="line"/>
    </contour>
    <contour>
      <point x="120" y="492" type="line"/>
      <point x="128" y="514" type="line"/>
      <point x="31" y="588" type="line"/>
      <point x="15" y="575" type="line"/>
    </contour>
    <contour>
      <point x="227" y="600" type="line"/>
      <point x="5" y="600" type="line"/>
      <point x="5" y="580" type="line"/>
      <point x="227" y="580" type="line"/>
    </contour>
    <contour>
      <point x="123" y="492" type="line"/>
      <point x="228" y="575" type="line"/>
      <point x="212" y="588" type="line"/>
      <point x="115" y="514" type="line"/>
    </contour>
    <contour>
      <point x="226" y="326" type="line"/>
      <point x="240" y="344" type="line"/>
      <point x="129" y="427" type="line"/>
      <point x="120" y="407" type="line"/>
    </contour>
    <contour>
      <point x="222" y="600" type="line"/>
      <point x="222" y="480" type="line"/>
      <point x="242" y="480" type="line"/>
      <point x="242" y="600" type="line"/>
    </contour>
    <contour>
      <point x="223" y="488" type="line"/>
      <point x="123" y="423" type="line"/>
      <point x="134" y="407" type="line"/>
      <point x="243" y="480" type="line"/>
    </contour>
  </outline>
</glyph>
<glyph name="Hbar" format="2">
  <advance width="598"/>
  <unicode hex="0126"/>
  <outline>
    <contour>
      <point x="24" y="0" type="line"/>
      <point x="264" y="0" type="line"/>
      <point x="264" y="20" type="line"/>
      <point x="24" y="20" type="line"/>
    </contour>
    <contour>
      <point x="37" y="0" type="line"/>
      <point x="149" y="92" type="line"/>
      <point x="136" y="105" type="line"/>
      <point x="24" y="13" type="line"/>
    </contour>
    <contour>
      <point x="24" y="0" type="line"/>
      <point x="44" y="0" type="line"/>
      <point x="44" y="380" type="line"/>
      <point x="24" y="380" type="line"/>
    </contour>
    <contour>
      <point x="251" y="0" type="line"/>
      <point x="264" y="13" type="line"/>
      <point x="152" y="105" type="line"/>
      <point x="139" y="92" type="line"/>
    </contour>
    <contour>
      <point x="244" y="0" type="line"/>
      <point x="264" y="0" type="line"/>
      <point x="264" y="228" type="line"/>
      <point x="244" y="228" type="line"/>
    </contour>
    <contour>
      <point x="134" y="90" type="line"/>
      <point x="154" y="90" type="line"/>
      <point x="154" y="510" type="line"/>
      <point x="134" y="510" type="line"/>
    </contour>
    <contour>
      <point x="334" y="0" type="line"/>
      <point x="354" y="0" type="line"/>
      <point x="354" y="228" type="line"/>
      <point x="334" y="228" type="line"/>
    </contour>
    <contour>
      <point x="254" y="220" type="line"/>
      <point x="267" y="232" type="line"/>
      <point x="149" y="320" type="line"/>
      <point x="134" y="309" type="line"/>
    </contour>
    <contour>
      <point x="334" y="0" type="line"/>
      <point x="574" y="0" type="line"/>
      <point x="574" y="20" type="line"/>
      <point x="334" y="20" type="line"/>
    </contour>
    <contour>
      <point x="347" y="0" type="line"/>
      <point x="459" y="92" type="line"/>
      <point x="446" y="105" type="line"/>
      <point x="334" y="13" type="line"/>
    </contour>
    <contour>
      <point x="250" y="220" type="line"/>
      <point x="344" y="220" type="line"/>
      <point x="344" y="240" type="line"/>
      <point x="250" y="240" type="line"/>
    </contour>
    <contour>
      <point x="149" y="298" type="line"/>
      <point x="251" y="373" type="line"/>
      <point x="238" y="388" type="line"/>
      <point x="134" y="309" type="line"/>
    </contour>
    <contour>
      <point x="561" y="0" type="line"/>
      <point x="574" y="13" type="line"/>
      <point x="462" y="105" type="line"/>
      <point x="449" y="92" type="line"/>
    </contour>
    <contour>
      <point x="136" y="495" type="line"/>
      <point x="149" y="508" type="line"/>
      <point x="37" y="600" type="line"/>
      <point x="24" y="587" type="line"/>
    </contour>
    <contour>
      <point x="154" y="300" type="line"/>
      <point x="440" y="300" type="line"/>
      <point x="440" y="320" type="line"/>
      <point x="154" y="320" type="line"/>
    </contour>
    <contour>
      <point x="344" y="220" type="line"/>
      <point x="464" y="311" type="line"/>
      <point x="450" y="322" type="line"/>
      <point x="331" y="234" type="line"/>
    </contour>
    <contour>
      <point x="29" y="580" type="line"/>
      <point x="264" y="580" type="line"/>
      <point x="264" y="600" type="line"/>
      <point x="29" y="600" type="line"/>
    </contour>
    <contour>
      <point x="151" y="495" type="line"/>
      <point x="263" y="587" type="line"/>
      <point x="250" y="600" type="line"/>
      <point x="138" y="508" type="line"/>
    </contour>
    <contour>
      <point x="244" y="530" type="line"/>
      <point x="264" y="530" type="line"/>
      <point x="264" y="600" type="line"/>
      <point x="244" y="600" type="line"/>
    </contour>
    <contour>
      <point x="449" y="300" type="line"/>
      <point x="464" y="311" type="line"/>
      <point x="362" y="387" type="line"/>
      <point x="349" y="374" type="line"/>
    </contour>
    <contour>
      <point x="444" y="90" type="line"/>
      <point x="464" y="90" type="line"/>
      <point x="464" y="510" type="line"/>
      <point x="444" y="510" type="line"/>
    </contour>
    <contour>
      <point x="334" y="530" type="line"/>
      <point x="354" y="530" type="line"/>
      <point x="354" y="600" type="line"/>
      <point x="334" y="600" type="line"/>
    </contour>
    <contour>
      <point x="446" y="495" type="line"/>
      <point x="459" y="508" type="line"/>
      <point x="347" y="600" type="line"/>
      <point x="334" y="587" type="line"/>
    </contour>
    <contour>
      <point x="461" y="495" type="line"/>
      <point x="573" y="587" type="line"/>
      <point x="560" y="600" type="line"/>
      <point x="448" y="508" type="line"/>
    </contour>
    <contour>
      <point x="339" y="580" type="line"/>
      <point x="574" y="580" type="line"/>
      <point x="574" y="600" type="line"/>
      <point x="339" y="600" type="line"/>
    </contour>
    <contour>
      <point x="48" y="452" type="line"/>
      <point x="63" y="462" type="line"/>
      <point x="21" y="544" type="line"/>
      <point x="7" y="533" type="line"/>
    </contour>
    <contour>
      <point x="5" y="371" type="line"/>
      <point x="24" y="371" type="line"/>
      <point x="24" y="544" type="line"/>
      <point x="5" y="544" type="line"/>
    </contour>
    <contour>
      <point x="48" y="463" type="line"/>
      <point x="7" y="382" type="line"/>
      <point x="21" y="371" type="line"/>
      <point x="63" y="453" type="line"/>
    </contour>
    <contour>
      <point x="45" y="544" type="line"/>
      <point x="7" y="544" type="line"/>
      <point x="7" y="523" type="line"/>
      <point x="45" y="523" type="line"/>
    </contour>
    <contour>
      <point x="141" y="467" type="line"/>
      <point x="46" y="467" type="line"/>
      <point x="46" y="448" type="line"/>
      <point x="141" y="448" type="line"/>
    </contour>
    <contour>
      <point x="45" y="392" type="line"/>
      <point x="7" y="392" type="line"/>
      <point x="7" y="371" type="line"/>
      <point x="45" y="371" type="line"/>
    </contour>
    <contour>
      <point x="129" y="454" type="line"/>
      <point x="141" y="464" type="line"/>
      <point x="45" y="544" type="line"/>
      <point x="29" y="533" type="line"/>
    </contour>
    <contour>
      <point x="129" y="461" type="line"/>
      <point x="29" y="382" type="line"/>
      <point x="45" y="371" type="line"/>
      <point x="141" y="451" type="line"/>
    </contour>
    <contour>
      <point x="574" y="0" type="line"/>
      <point x="574" y="380" type="line"/>
      <point x="554" y="380" type="line"/>
      <point x="554" y="0" type="line"/>
    </contour>
    <contour>
      <point x="550" y="452" type="line"/>
      <point x="591" y="533" type="line"/>
      <point x="577" y="544" type="line"/>
      <point x="535" y="462" type="line"/>
    </contour>
    <contour>
      <point x="593" y="371" type="line"/>
      <point x="593" y="544" type="line"/>
      <point x="574" y="544" type="line"/>
      <point x="574" y="371" type="line"/>
    </contour>
    <contour>
      <point x="550" y="463" type="line"/>
      <point x="535" y="453" type="line"/>
      <point x="577" y="371" type="line"/>
      <point x="591" y="382" type="line"/>
    </contour>
    <contour>
      <point x="553" y="544" type="line"/>
      <point x="553" y="523" type="line"/>
      <point x="591" y="523" type="line"/>
      <point x="591" y="544" type="line"/>
    </contour>
    <contour>
      <point x="457" y="467" type="line"/>
      <point x="457" y="448" type="line"/>
      <point x="552" y="448" type="line"/>
      <point x="552" y="467" type="line"/>
    </contour>
    <contour>
      <point x="553" y="392" type="line"/>
      <point x="553" y="371" type="line"/>
      <point x="591" y="371" type="line"/>
      <point x="591" y="392" type="line"/>
    </contour>
    <contour>
      <point x="469" y="454" type="line"/>
      <point x="569" y="533" type="line"/>
      <point x="553" y="544" type="line"/>
      <point x="457" y="464" type="line"/>
    </contour>
    <contour>
      <point x="469" y="461" type="line"/>
      <point x="457" y="451" type="line"/>
      <point x="553" y="371" type="line"/>
      <point x="569" y="382" type="line"/>
    </contour>
    <contour>
      <point x="141" y="467" type="line"/>
      <point x="141" y="448" type="line"/>
      <point x="457" y="448" type="line"/>
      <point x="457" y="467" type="line"/>
    </contour>
    <contour>
      <point x="157" y="454" type="line"/>
      <point x="263" y="531" type="line"/>
      <point x="247" y="542" type="line"/>
      <point x="141" y="464" type="line"/>
    </contour>
    <contour>
      <point x="157" y="461" type="line"/>
      <point x="141" y="451" type="line"/>
      <point x="247" y="373" type="line"/>
      <point x="263" y="384" type="line"/>
    </contour>
    <contour>
      <point x="351" y="542" type="line"/>
      <point x="247" y="542" type="line"/>
      <point x="247" y="523" type="line"/>
      <point x="351" y="523" type="line"/>
    </contour>
    <contour>
      <point x="361" y="392" type="line"/>
      <point x="247" y="392" type="line"/>
      <point x="247" y="373" type="line"/>
      <point x="361" y="373" type="line"/>
    </contour>
    <contour>
      <point x="441" y="454" type="line"/>
      <point x="457" y="464" type="line"/>
      <point x="351" y="542" type="line"/>
      <point x="335" y="531" type="line"/>
    </contour>
    <contour>
      <point x="441" y="461" type="line"/>
      <point x="335" y="384" type="line"/>
      <point x="351" y="373" type="line"/>
      <point x="457" y="451" type="line"/>
    </contour>
    <contour>
      <point x="24" y="530" type="line"/>
      <point x="44" y="530" type="line"/>
      <point x="44" y="600" type="line"/>
      <point x="24" y="600" type="line"/>
    </contour>
    <contour>
      <point x="554" y="530" type="line"/>
      <point x="574" y="530" type="line"/>
      <point x="574" y="600" type="line"/>
      <point x="554" y="600" type="line"/>
    </contour>
  </outline>
</glyph>
<glyph name="Lcaron" format="2">
  <advance width="450"/>
  <unicode hex="013D"/>
  <anchor x="230" y="0" name="bottom"/>
  <anchor x="220" y="300" name="center"/>
  <anchor x="132" y="600" name="top"/>
  <anchor x="425" y="600" name="topright"/>
  <outline>
    <contour>
      <point x="305" y="490" type="line"/>
      <point x="322" y="490" type="line"/>
      <point x="322" y="594" type="line"/>
      <point x="305" y="594" type="line"/>
    </contour>
    <contour>
      <point x="308" y="592" type="line"/>
      <point x="346" y="557" type="line"/>
      <point x="360" y="565" type="line"/>
      <point x="322" y="600" type="line"/>
    </contour>
    <contour>
      <point x="308" y="490" type="line"/>
      <point x="359" y="490" type="line"/>
      <point x="363" y="506" type="line"/>
      <point x="313" y="506" type="line"/>
    </contour>
    <contour>
      <point x="327" y="497" type="line"/>
      <point x="343" y="497" type="line"/>
      <point x="364" y="570" type="line"/>
      <point x="348" y="570" type="line"/>
    </contour>
    <contour>
      <point x="305" y="587" type="line"/>
      <point x="402" y="587" type="line"/>
      <point x="402" y="600" type="line"/>
      <point x="305" y="600" type="line"/>
    </contour>
    <contour>
      <point x="345" y="490" type="line"/>
      <point x="364" y="490" type="line"/>
      <point x="419" y="600" type="line"/>
      <point x="399" y="600" type="line"/>
    </contour>
    <contour>
      <point x="346" y="563" type="line"/>
      <point x="355" y="552" type="line"/>
      <point x="401" y="590" type="line"/>
      <point x="390" y="600" type="line"/>
    </contour>
    <component base="L"/>
  </outline>
</glyph>
<glyph name="OE" format="2">
  <advance width="770"/>
  <unicode hex="0152"/>
  <anchor x="515" y="0" name="bottom"/>
  <anchor x="703" y="10" name="ogonek"/>
  <anchor x="515" y="600" name="top"/>
  <anchor x="300" y="600" name="topleft"/>
  <outline>
    <contour>
      <point x="155" y="0" type="line"/>
      <point x="169" y="14" type="line"/>
      <point x="19" y="164" type="line"/>
      <point x="5" y="150" type="line"/>
    </contour>
    <contour>
      <point x="25" y="147" type="line"/>
      <point x="108" y="169" type="line"/>
      <point x="102" y="186" type="line"/>
      <point x="19" y="164" type="line"/>
    </contour>
    <contour>
      <point x="167" y="9" type="line"/>
      <point x="215" y="98" type="line"/>
      <point x="200" y="107" type="line"/>
      <point x="152" y="18" type="line"/>
    </contour>
    <contour>
      <point x="155" y="0" type="line"/>
      <point x="325" y="0" type="line"/>
      <point x="325" y="20" type="line"/>
      <point x="155" y="20" type="line"/>
    </contour>
    <contour>
      <point x="200" y="89" type="line"/>
      <point x="214" y="103" type="line"/>
      <point x="109" y="189" type="line"/>
      <point x="95" y="175" type="line"/>
    </contour>
    <contour>
      <point x="5" y="150" type="line"/>
      <point x="25" y="150" type="line"/>
      <point x="25" y="460" type="line"/>
      <point x="5" y="460" type="line"/>
    </contour>
    <contour>
      <point x="110" y="171" type="line"/>
      <point x="235" y="188" type="line"/>
      <point x="229" y="204" type="line"/>
      <point x="104" y="187" type="line"/>
    </contour>
    <contour>
      <point x="200" y="89" type="line"/>
      <point x="320" y="89" type="line"/>
      <point x="320" y="107" type="line"/>
      <point x="200" y="107" type="line"/>
    </contour>
    <contour>
      <point x="210" y="93" type="line"/>
      <point x="260" y="167" type="line"/>
      <point x="247" y="177" type="line"/>
      <point x="197" y="103" type="line"/>
    </contour>
    <contour>
      <point x="95" y="175" type="line"/>
      <point x="115" y="175" type="line"/>
      <point x="115" y="435" type="line"/>
      <point x="95" y="435" type="line"/>
    </contour>
    <contour>
      <point x="247" y="159" type="line"/>
      <point x="261" y="173" type="line"/>
      <point x="229" y="204" type="line"/>
      <point x="215" y="190" type="line"/>
    </contour>
    <contour>
      <point x="247" y="159" type="line"/>
      <point x="283" y="159" type="line"/>
      <point x="283" y="177" type="line"/>
      <point x="247" y="177" type="line"/>
    </contour>
    <contour>
      <point x="102" y="424" type="line"/>
      <point x="108" y="441" type="line"/>
      <point x="25" y="463" type="line"/>
      <point x="19" y="446" type="line"/>
    </contour>
    <contour>
      <point x="215" y="190" type="line"/>
      <point x="235" y="190" type="line"/>
      <point x="235" y="405" type="line"/>
      <point x="215" y="405" type="line"/>
    </contour>
    <contour>
      <point x="229" y="391" type="line"/>
      <point x="235" y="407" type="line"/>
      <point x="115" y="437" type="line"/>
      <point x="109" y="421" type="line"/>
    </contour>
    <contour>
      <point x="19" y="446" type="line"/>
      <point x="169" y="586" type="line"/>
      <point x="155" y="600" type="line"/>
      <point x="5" y="460" type="line"/>
    </contour>
    <contour>
      <point x="109" y="421" type="line"/>
      <point x="214" y="512" type="line"/>
      <point x="200" y="526" type="line"/>
      <point x="95" y="435" type="line"/>
    </contour>
    <contour>
      <point x="229" y="391" type="line"/>
      <point x="261" y="422" type="line"/>
      <point x="247" y="436" type="line"/>
      <point x="215" y="405" type="line"/>
    </contour>
    <contour>
      <point x="247" y="418" type="line"/>
      <point x="283" y="418" type="line"/>
      <point x="283" y="436" type="line"/>
      <point x="247" y="436" type="line"/>
    </contour>
    <contour>
      <point x="247" y="418" type="line"/>
      <point x="262" y="428" type="line"/>
      <point x="210" y="520" type="line"/>
      <point x="195" y="510" type="line"/>
    </contour>
    <contour>
      <point x="196" y="509" type="line"/>
      <point x="213" y="515" type="line"/>
      <point x="171" y="586" type="line"/>
      <point x="154" y="580" type="line"/>
    </contour>
    <contour>
      <point x="155" y="582" type="line"/>
      <point x="333" y="582" type="line"/>
      <point x="331" y="600" type="line"/>
      <point x="155" y="600" type="line"/>
    </contour>
    <contour>
      <point x="415" y="97" type="line"/>
      <point x="435" y="97" type="line"/>
      <point x="435" y="521" type="line"/>
      <point x="415" y="521" type="line"/>
    </contour>
    <contour>
      <point x="535" y="223" type="line"/>
      <point x="548" y="237" type="line"/>
      <point x="430" y="327" type="line"/>
      <point x="415" y="314" type="line"/>
    </contour>
    <contour>
      <point x="535" y="225" type="line"/>
      <point x="665" y="225" type="line"/>
      <point x="665" y="245" type="line"/>
      <point x="535" y="245" type="line"/>
    </contour>
    <contour>
      <point x="430" y="305" type="line"/>
      <point x="548" y="370" type="line"/>
      <point x="535" y="385" type="line"/>
      <point x="415" y="316" type="line"/>
    </contour>
    <contour>
      <point x="417" y="506" type="line"/>
      <point x="430" y="519" type="line"/>
      <point x="328" y="600" type="line"/>
      <point x="315" y="587" type="line"/>
    </contour>
    <contour>
      <point x="435" y="307" type="line"/>
      <point x="555" y="307" type="line"/>
      <point x="555" y="327" type="line"/>
      <point x="435" y="327" type="line"/>
    </contour>
    <contour>
      <point x="535" y="365" type="line"/>
      <point x="665" y="365" type="line"/>
      <point x="665" y="385" type="line"/>
      <point x="535" y="385" type="line"/>
    </contour>
    <contour>
      <point x="655" y="225" type="line"/>
      <point x="668" y="237" type="line"/>
      <point x="550" y="327" type="line"/>
      <point x="535" y="316" type="line"/>
    </contour>
    <contour>
      <point x="552" y="307" type="line"/>
      <point x="668" y="370" type="line"/>
      <point x="655" y="385" type="line"/>
      <point x="535" y="316" type="line"/>
    </contour>
    <contour>
      <point x="655" y="225" type="line"/>
      <point x="675" y="225" type="line"/>
      <point x="675" y="385" type="line"/>
      <point x="655" y="385" type="line"/>
    </contour>
    <contour>
      <point x="525" y="172" type="line"/>
      <point x="545" y="172" type="line"/>
      <point x="545" y="238" type="line"/>
      <point x="525" y="238" type="line"/>
    </contour>
    <contour>
      <point x="317" y="0" type="line"/>
      <point x="755" y="0" type="line"/>
      <point x="755" y="20" type="line"/>
      <point x="317" y="20" type="line"/>
    </contour>
    <contour>
      <point x="436" y="95" type="line"/>
      <point x="544" y="165" type="line"/>
      <point x="531" y="180" type="line"/>
      <point x="421" y="106" type="line"/>
    </contour>
    <contour>
      <point x="421" y="87" type="line"/>
      <point x="645" y="87" type="line"/>
      <point x="645" y="107" type="line"/>
      <point x="421" y="107" type="line"/>
    </contour>
    <contour>
      <point x="531" y="160" type="line"/>
      <point x="755" y="160" type="line"/>
      <point x="755" y="180" type="line"/>
      <point x="531" y="180" type="line"/>
    </contour>
    <contour>
      <point x="745" y="10" type="line"/>
      <point x="758" y="22" type="line"/>
      <point x="640" y="107" type="line"/>
      <point x="625" y="96" type="line"/>
    </contour>
    <contour>
      <point x="642" y="87" type="line"/>
      <point x="758" y="165" type="line"/>
      <point x="745" y="180" type="line"/>
      <point x="625" y="96" type="line"/>
    </contour>
    <contour>
      <point x="745" y="0" type="line"/>
      <point x="765" y="0" type="line"/>
      <point x="765" y="180" type="line"/>
      <point x="745" y="180" type="line"/>
    </contour>
    <contour>
      <point x="325" y="600" type="line"/>
      <point x="325" y="580" type="line"/>
      <point x="755" y="580" type="line"/>
      <point x="755" y="600" type="line"/>
    </contour>
    <contour>
      <point x="436" y="515" type="line"/>
      <point x="421" y="504" type="line"/>
      <point x="531" y="420" type="line"/>
      <point x="544" y="435" type="line"/>
    </contour>
    <contour>
      <point x="421" y="523" type="line"/>
      <point x="421" y="503" type="line"/>
      <point x="643" y="503" type="line"/>
      <point x="643" y="523" type="line"/>
    </contour>
    <contour>
      <point x="531" y="440" type="line"/>
      <point x="531" y="420" type="line"/>
      <point x="755" y="420" type="line"/>
      <point x="755" y="440" type="line"/>
    </contour>
    <contour>
      <point x="741" y="593" type="line"/>
      <point x="624" y="520" type="line"/>
      <point x="639" y="506" type="line"/>
      <point x="758" y="580" type="line"/>
    </contour>
    <contour>
      <point x="640" y="519" type="line"/>
      <point x="622" y="510" type="line"/>
      <point x="745" y="427" type="line"/>
      <point x="758" y="442" type="line"/>
    </contour>
    <contour>
      <point x="745" y="600" type="line"/>
      <point x="745" y="420" type="line"/>
      <point x="765" y="420" type="line"/>
      <point x="765" y="600" type="line"/>
    </contour>
    <contour>
      <point x="525" y="372" type="line"/>
      <point x="545" y="372" type="line"/>
      <point x="545" y="438" type="line"/>
      <point x="525" y="438" type="line"/>
    </contour>
    <contour>
      <point x="283" y="418" type="line"/>
      <point x="335" y="510" type="line"/>
      <point x="320" y="520" type="line"/>
      <point x="268" y="428" type="line"/>
    </contour>
    <contour>
      <point x="334" y="509" type="line"/>
      <point x="334" y="580" type="line"/>
      <point x="317" y="586" type="line"/>
      <point x="317" y="515" type="line"/>
    </contour>
    <contour>
      <point x="318" y="93" type="line"/>
      <point x="333" y="103" type="line"/>
      <point x="283" y="177" type="line"/>
      <point x="268" y="167" type="line"/>
    </contour>
    <contour>
      <point x="311" y="9" type="line"/>
      <point x="330" y="18" type="line"/>
      <point x="330" y="89" type="line"/>
      <point x="435" y="175" type="line"/>
      <point x="421" y="189" type="line"/>
      <point x="311" y="98" type="line"/>
    </contour>
    <contour>
      <point x="420" y="171" type="line"/>
      <point x="426" y="187" type="line"/>
      <point x="301" y="204" type="line"/>
      <point x="295" y="188" type="line"/>
    </contour>
    <contour>
      <point x="295" y="190" type="line"/>
      <point x="315" y="190" type="line"/>
      <point x="315" y="405" type="line"/>
      <point x="295" y="405" type="line"/>
    </contour>
    <contour>
      <point x="301" y="391" type="line"/>
      <point x="421" y="421" type="line"/>
      <point x="415" y="437" type="line"/>
      <point x="295" y="407" type="line"/>
    </contour>
    <contour>
      <point x="200" y="508" type="line"/>
      <point x="330" y="508" type="line"/>
      <point x="330" y="526" type="line"/>
      <point x="200" y="526" type="line"/>
    </contour>
    <contour>
      <point x="421" y="421" type="line"/>
      <point x="435" y="435" type="line"/>
      <point x="330" y="526" type="line"/>
      <point x="316" y="512" type="line"/>
    </contour>
    <contour>
      <point x="283" y="159" type="line"/>
      <point x="315" y="190" type="line"/>
      <point x="301" y="204" type="line"/>
      <point x="269" y="173" type="line"/>
    </contour>
    <contour>
      <point x="301" y="391" type="line"/>
      <point x="315" y="405" type="line"/>
      <point x="283" y="436" type="line"/>
      <point x="269" y="422" type="line"/>
    </contour>
    <contour>
      <point x="336" y="9" type="line"/>
      <point x="437" y="98" type="line"/>
      <point x="418" y="107" type="line"/>
      <point x="317" y="18" type="line"/>
    </contour>
  </outline>
</glyph>
<glyph name="emdash" format="2">
  <advance width="661"/>
  <unicode hex="2014"/>
  <outline>
    <contour>
      <point x="15" y="264" type="line"/>
      <point x="640" y="264" type="line"/>
      <point x="640" y="282" type="line"/>
      <point x="15" y="282" type="line"/>
    </contour>
    <contour>
      <point x="29" y="264" type="line"/>
      <point x="107" y="300" type="line"/>
      <point x="91" y="313" type="line"/>
      <point x="15" y="278" type="line"/>
    </contour>
    <contour>
      <point x="632" y="264" type="line"/>
      <point x="646" y="278" type="line"/>
      <point x="569" y="314" type="line"/>
      <point x="554" y="300" type="line"/>
    </contour>
    <contour>
      <point x="15" y="264" type="line"/>
      <point x="35" y="264" type="line"/>
      <point x="35" y="349" type="line"/>
      <point x="15" y="349" type="line"/>
    </contour>
    <contour>
      <point x="91" y="296" type="line"/>
      <point x="574" y="296" type="line"/>
      <point x="574" y="319" type="line"/>
      <point x="91" y="319" type="line"/>
    </contour>
    <contour>
      <point x="626" y="264" type="line"/>
      <point x="646" y="264" type="line"/>
      <point x="646" y="349" type="line"/>
      <point x="626" y="349" type="line"/>
    </contour>
    <contour>
      <point x="92" y="300" type="line"/>
      <point x="107" y="314" type="line"/>
      <point x="29" y="349" type="line"/>
      <point x="15" y="335" type="line"/>
    </contour>
    <contour>
      <point x="18" y="331" type="line"/>
      <point x="640" y="331" type="line"/>
      <point x="640" y="349" type="line"/>
      <point x="18" y="349" type="line"/>
    </contour>
    <contour>
      <point x="569" y="300" type="line"/>
      <point x="645" y="335" type="line"/>
      <point x="631" y="349" type="line"/>
      <point x="554" y="314" type="line"/>
    </contour>
  </outline>
</glyph>
<glyph name="quoteleft" format="2">
  <advance width="192"/>
  <unicode hex="2018"/>
  <outline>
    <contour>
      <point x="162" y="507" type="line"/>
      <point x="30" y="507" type="line"/>
      <point x="30" y="493" type="line"/>
      <point x="162" y="493" type="line"/>
    </contour>
    <contour>
      <point x="151" y="507" type="line"/>
      <point x="94" y="452" type="line"/>
      <point x="102" y="436" type="line"/>
      <point x="162" y="496" type="line"/>
    </contour>
    <contour>
      <point x="42" y="507" type="line"/>
      <point x="30" y="496" type="line"/>
      <point x="92" y="435" type="line"/>
      <point x="99" y="451" type="line"/>
    </contour>
    <contour>
      <point x="162" y="507" type="line"/>
      <point x="146" y="507" type="line"/>
      <point x="146" y="375" type="line"/>
      <point x="162" y="375" type="line"/>
    </contour>
    <contour>
      <point x="102" y="448" type="line"/>
      <point x="91" y="448" type="line"/>
      <point x="91" y="435" type="line"/>
      <point x="102" y="435" type="line"/>
    </contour>
    <contour>
      <point x="46" y="507" type="line"/>
      <point x="30" y="507" type="line"/>
      <point x="30" y="375" type="line"/>
      <point x="46" y="375" type="line"/>
    </contour>
    <contour>
      <point x="101" y="447" type="line"/>
      <point x="94" y="431" type="line"/>
      <point x="151" y="375" type="line"/>
      <point x="162" y="387" type="line"/>
    </contour>
    <contour>
      <point x="160" y="390" type="line"/>
      <point x="30" y="390" type="line"/>
      <point x="30" y="375" type="line"/>
      <point x="160" y="375" type="line"/>
    </contour>
    <contour>
      <point x="92" y="447" type="line"/>
      <point x="31" y="387" type="line"/>
      <point x="42" y="375" type="line"/>
      <point x="99" y="431" type="line"/>
    </contour>
    <contour>
      <point x="162" y="609" type="line"/>
      <point x="146" y="609" type="line"/>
      <point x="146" y="545" type="line"/>
      <point x="162" y="543" type="line"/>
    </contour>
    <contour>
      <point x="152" y="555" type="line"/>
      <point x="99" y="507" type="line"/>
      <point x="113" y="496" type="line"/>
      <point x="162" y="543" type="line"/>
    </contour>
    <contour>
      <point x="150" y="619" type="line"/>
      <point x="30" y="507" type="line"/>
      <point x="41" y="495" type="line"/>
      <point x="162" y="608" type="line"/>
      <point x="162" y="619" type="line"/>
    </contour>
  </outline>
</glyph>
<glyph name="brevecomb.case" format="2">
  <anchor x="109" y="600" name="_top"/>
  <anchor x="109" y="715" name="top"/>
  <outline>
    <contour>
      <point x="73" y="715" type="line"/>
      <point x="73" y="691" type="line"/>
      <point x="86" y="681" type="line"/>
      <point x="86" y="715" type="line"/>
    </contour>
    <contour>
      <point x="14" y="700" type="line"/>
      <point x="77" y="700" type="line"/>
      <point x="77" y="715" type="line"/>
      <point x="14" y="715" type="line"/>
    </contour>
    <contour>
      <point x="55" y="672" type="line"/>
      <point x="83" y="703" type="line"/>
      <point x="77" y="715" type="line"/>
      <point x="43" y="681" type="line"/>
    </contour>
    <contour>
      <point x="45" y="672" type="line"/>
      <point x="57" y="681" type="line"/>
      <point x="19" y="715" type="line"/>
      <point x="9" y="703" type="line"/>
    </contour>
    <contour>
      <point x="21" y="715" type="line"/>
      <point x="5" y="715" type="line"/>
      <point x="5" y="684" type="line"/>
      <point x="21" y="684" type="line"/>
    </contour>
    <contour>
      <point x="96" y="657" type="line"/>
      <point x="106" y="670" type="line"/>
      <point x="83" y="703" type="line"/>
      <point x="73" y="691" type="line"/>
    </contour>
    <contour>
      <point x="72" y="628" type="line"/>
      <point x="87" y="633" type="line"/>
      <point x="52" y="686" type="line"/>
      <point x="42" y="674" type="line"/>
    </contour>
    <contour>
      <point x="38" y="635" type="line"/>
      <point x="47" y="648" type="line"/>
      <point x="15" y="696" type="line"/>
      <point x="5" y="684" type="line"/>
    </contour>
    <contour>
      <point x="82" y="618" type="line"/>
      <point x="89" y="632" type="line"/>
      <point x="46" y="649" type="line"/>
      <point x="38" y="635" type="line"/>
    </contour>
    <contour>
      <point x="83" y="631" type="line"/>
      <point x="111" y="662" type="line"/>
      <point x="102" y="674" type="line"/>
      <point x="71" y="640" type="line"/>
    </contour>
    <contour>
      <point x="145" y="715" type="line"/>
      <point x="132" y="715" type="line"/>
      <point x="132" y="681" type="line"/>
      <point x="145" y="691" type="line"/>
    </contour>
    <contour>
      <point x="204" y="700" type="line"/>
      <point x="204" y="715" type="line"/>
      <point x="141" y="715" type="line"/>
      <point x="141" y="700" type="line"/>
    </contour>
    <contour>
      <point x="163" y="672" type="line"/>
      <point x="175" y="681" type="line"/>
      <point x="141" y="715" type="line"/>
      <point x="135" y="703" type="line"/>
    </contour>
    <contour>
      <point x="173" y="672" type="line"/>
      <point x="209" y="703" type="line"/>
      <point x="199" y="715" type="line"/>
      <point x="161" y="681" type="line"/>
    </contour>
    <contour>
      <point x="197" y="715" type="line"/>
      <point x="197" y="684" type="line"/>
      <point x="213" y="684" type="line"/>
      <point x="213" y="715" type="line"/>
    </contour>
    <contour>
      <point x="122" y="657" type="line"/>
      <point x="145" y="691" type="line"/>
      <point x="135" y="703" type="line"/>
      <point x="112" y="670" type="line"/>
    </contour>
    <contour>
      <point x="146" y="628" type="line"/>
      <point x="176" y="674" type="line"/>
      <point x="166" y="686" type="line"/>
      <point x="131" y="633" type="line"/>
    </contour>
    <contour>
      <point x="180" y="635" type="line"/>
      <point x="213" y="684" type="line"/>
      <point x="203" y="696" type="line"/>
      <point x="171" y="648" type="line"/>
    </contour>
    <contour>
      <point x="136" y="618" type="line"/>
      <point x="180" y="635" type="line"/>
      <point x="172" y="649" type="line"/>
      <point x="129" y="632" type="line"/>
    </contour>
    <contour>
      <point x="135" y="631" type="line"/>
      <point x="147" y="640" type="line"/>
      <point x="116" y="674" type="line"/>
      <point x="107" y="662" type="line"/>
    </contour>
    <contour>
      <point x="82" y="618" type="line"/>
      <point x="137" y="618" type="line"/>
      <point x="143" y="634" type="line"/>
      <point x="82" y="634" type="line"/>
    </contour>
    <contour>
      <point x="124" y="657" type="line"/>
      <point x="124" y="671" type="line"/>
      <point x="103" y="671" type="line"/>
      <point x="103" y="657" type="line"/>
    </contour>
  </outline>
</glyph>
<glyph name="caroncomb.case" format="2">
  <anchor x="145" y="600" name="_top"/>
  <anchor x="145" y="802" name="top"/>
  <outline>
    <contour>
      <point x="25" y="717" type="line"/>
      <point x="5" y="717" type="line"/>
      <point x="77" y="623" type="line"/>
      <point x="97" y="623" type="line"/>
    </contour>
    <contour>
      <point x="271" y="717" type="line"/>
      <point x="183" y="717" type="line"/>
      <point x="183" y="702" type="line"/>
      <point x="265" y="702" type="line"/>
    </contour>
    <contour>
      <point x="285" y="717" type="line"/>
      <point x="265" y="717" type="line"/>
      <point x="193" y="623" type="line"/>
      <point x="213" y="623" type="line"/>
    </contour>
    <contour>
      <point x="260" y="709" type="line"/>
      <point x="202" y="678" type="line"/>
      <point x="208" y="667" type="line"/>
      <point x="264" y="698" type="line"/>
    </contour>
    <contour>
      <point x="188" y="716" type="line"/>
      <point x="178" y="704" type="line"/>
      <point x="199" y="673" type="line"/>
      <point x="211" y="682" type="line"/>
    </contour>
    <contour>
      <point x="196" y="717" type="line"/>
      <point x="176" y="717" type="line"/>
      <point x="142" y="674" type="line"/>
      <point x="152" y="661" type="line"/>
    </contour>
    <contour>
      <point x="145" y="676" type="line"/>
      <point x="145" y="655" type="line"/>
      <point x="168" y="623" type="line"/>
      <point x="177" y="635" type="line"/>
    </contour>
    <contour>
      <point x="114" y="717" type="line"/>
      <point x="94" y="717" type="line"/>
      <point x="138" y="661" type="line"/>
      <point x="148" y="673" type="line"/>
    </contour>
    <contour>
      <point x="208" y="636" type="line"/>
      <point x="137" y="636" type="line"/>
      <point x="137" y="623" type="line"/>
      <point x="208" y="623" type="line"/>
    </contour>
    <contour>
      <point x="154" y="636" type="line"/>
      <point x="83" y="636" type="line"/>
      <point x="83" y="623" type="line"/>
      <point x="154" y="623" type="line"/>
    </contour>
    <contour>
      <point x="107" y="717" type="line"/>
      <point x="19" y="717" type="line"/>
      <point x="25" y="702" type="line"/>
      <point x="107" y="702" type="line"/>
    </contour>
    <contour>
      <point x="102" y="716" type="line"/>
      <point x="79" y="679" type="line"/>
      <point x="90" y="669" type="line"/>
      <point x="111" y="703" type="line"/>
    </contour>
    <contour>
      <point x="221" y="679" type="line"/>
      <point x="204" y="680" type="line"/>
      <point x="165" y="623" type="line"/>
      <point x="181" y="623" type="line"/>
    </contour>
    <contour>
      <point x="145" y="676" type="line"/>
      <point x="112" y="635" type="line"/>
      <point x="120" y="623" type="line"/>
      <point x="145" y="655" type="line"/>
    </contour>
    <contour>
      <point x="86" y="678" type="line"/>
      <point x="70" y="677" type="line"/>
      <point x="109" y="623" type="line"/>
      <point x="125" y="623" type="line"/>
    </contour>
    <contour>
      <point x="30" y="709" type="line"/>
      <point x="26" y="698" type="line"/>
      <point x="87" y="661" type="line"/>
      <point x="88" y="675" type="line"/>
    </contour>
  </outline>
</glyph>
<glyph name="circumflexcomb.case" format="2">
  <anchor x="145" y="600" name="_top"/>
  <anchor x="145" y="802" name="top"/>
  <outline>
    <contour>
      <point x="265" y="623" type="line"/>
      <point x="285" y="623" type="line"/>
      <point x="213" y="717" type="line"/>
      <point x="193" y="717" type="line"/>
    </contour>
    <contour>
      <point x="19" y="623" type="line"/>
      <point x="107" y="623" type="line"/>
      <point x="107" y="638" type="line"/>
      <point x="25" y="638" type="line"/>
    </contour>
    <contour>
      <point x="5" y="623" type="line"/>
      <point x="25" y="623" type="line"/>
      <point x="97" y="717" type="line"/>
      <point x="77" y="717" type="line"/>
    </contour>
    <contour>
      <point x="30" y="631" type="line"/>
      <point x="88" y="662" type="line"/>
      <point x="82" y="673" type="line"/>
      <point x="26" y="642" type="line"/>
    </contour>
    <contour>
      <point x="102" y="624" type="line"/>
      <point x="112" y="636" type="line"/>
      <point x="91" y="667" type="line"/>
      <point x="79" y="658" type="line"/>
    </contour>
    <contour>
      <point x="94" y="623" type="line"/>
      <point x="114" y="623" type="line"/>
      <point x="148" y="666" type="line"/>
      <point x="138" y="679" type="line"/>
    </contour>
    <contour>
      <point x="145" y="664" type="line"/>
      <point x="145" y="685" type="line"/>
      <point x="122" y="717" type="line"/>
      <point x="113" y="705" type="line"/>
    </contour>
    <contour>
      <point x="176" y="623" type="line"/>
      <point x="196" y="623" type="line"/>
      <point x="152" y="679" type="line"/>
      <point x="142" y="667" type="line"/>
    </contour>
    <contour>
      <point x="82" y="704" type="line"/>
      <point x="153" y="704" type="line"/>
      <point x="153" y="717" type="line"/>
      <point x="82" y="717" type="line"/>
    </contour>
    <contour>
      <point x="136" y="704" type="line"/>
      <point x="207" y="704" type="line"/>
      <point x="207" y="717" type="line"/>
      <point x="136" y="717" type="line"/>
    </contour>
    <contour>
      <point x="183" y="623" type="line"/>
      <point x="271" y="623" type="line"/>
      <point x="265" y="638" type="line"/>
      <point x="183" y="638" type="line"/>
    </contour>
    <contour>
      <point x="188" y="624" type="line"/>
      <point x="211" y="661" type="line"/>
      <point x="200" y="671" type="line"/>
      <point x="179" y="637" type="line"/>
    </contour>
    <contour>
      <point x="69" y="661" type="line"/>
      <point x="86" y="660" type="line"/>
      <point x="125" y="717" type="line"/>
      <point x="109" y="717" type="line"/>
    </contour>
    <contour>
      <point x="145" y="664" type="line"/>
      <point x="178" y="705" type="line"/>
      <point x="170" y="717" type="line"/>
      <point x="145" y="685" type="line"/>
    </contour>
    <contour>
      <point x="206" y="660" type="line"/>
      <point x="222" y="661" type="line"/>
      <point x="181" y="717" type="line"/>
      <point x="165" y="717" type="line"/>
    </contour>
    <contour>
      <point x="260" y="631" type="line"/>
      <point x="264" y="642" type="line"/>
      <point x="208" y="676" type="line"/>
      <point x="202" y="665" type="line"/>
    </contour>
  </outline>
</glyph>
<glyph name="dieresiscomb.case" format="2">
  <anchor x="171" y="600" name="_top"/>
  <anchor x="171" y="800" name="top"/>
  <outline>
    <contour>
      <point x="201" y="626" type="line"/>
      <point x="335" y="626" type="line"/>
      <point x="335" y="641" type="line"/>
      <point x="201" y="641" type="line"/>
    </contour>
    <contour>
      <point x="214" y="629" type="line"/>
      <point x="270" y="661" type="line"/>
      <point x="262" y="675" type="line"/>
      <point x="203" y="640" type="line"/>
    </contour>
    <contour>
      <point x="199" y="626" type="line"/>
      <point x="215" y="626" type="line"/>
      <point x="215" y="714" type="line"/>
      <point x="199" y="714" type="line"/>
    </contour>
    <contour>
      <point x="260" y="662" type="line"/>
      <point x="276" y="662" type="line"/>
      <point x="276" y="678" type="line"/>
      <point x="260" y="678" type="line"/>
    </contour>
    <contour>
      <point x="321" y="626" type="line"/>
      <point x="337" y="626" type="line"/>
      <point x="337" y="714" type="line"/>
      <point x="321" y="714" type="line"/>
    </contour>
    <contour>
      <point x="205" y="699" type="line"/>
      <point x="335" y="699" type="line"/>
      <point x="335" y="714" type="line"/>
      <point x="205" y="714" type="line"/>
    </contour>
    <contour>
      <point x="214" y="711" type="line"/>
      <point x="203" y="700" type="line"/>
      <point x="262" y="665" type="line"/>
      <point x="270" y="679" type="line"/>
    </contour>
    <contour>
      <point x="322" y="629" type="line"/>
      <point x="333" y="640" type="line"/>
      <point x="274" y="675" type="line"/>
      <point x="266" y="661" type="line"/>
    </contour>
    <contour>
      <point x="322" y="711" type="line"/>
      <point x="266" y="679" type="line"/>
      <point x="274" y="665" type="line"/>
      <point x="333" y="700" type="line"/>
    </contour>
    <contour>
      <point x="7" y="626" type="line"/>
      <point x="141" y="626" type="line"/>
      <point x="141" y="641" type="line"/>
      <point x="7" y="641" type="line"/>
    </contour>
    <contour>
      <point x="20" y="629" type="line"/>
      <point x="76" y="661" type="line"/>
      <point x="68" y="675" type="line"/>
      <point x="9" y="640" type="line"/>
    </contour>
    <contour>
      <point x="5" y="626" type="line"/>
      <point x="21" y="626" type="line"/>
      <point x="21" y="714" type="line"/>
      <point x="5" y="714" type="line"/>
    </contour>
    <contour>
      <point x="66" y="662" type="line"/>
      <point x="82" y="662" type="line"/>
      <point x="82" y="678" type="line"/>
      <point x="66" y="678" type="line"/>
    </contour>
    <contour>
      <point x="127" y="626" type="line"/>
      <point x="143" y="626" type="line"/>
      <point x="143" y="714" type="line"/>
      <point x="127" y="714" type="line"/>
    </contour>
    <contour>
      <point x="11" y="699" type="line"/>
      <point x="141" y="699" type="line"/>
      <point x="141" y="714" type="line"/>
      <point x="11" y="714" type="line"/>
    </contour>
    <contour>
      <point x="20" y="711" type="line"/>
      <point x="9" y="700" type="line"/>
      <point x="68" y="665" type="line"/>
      <point x="76" y="679" type="line"/>
    </contour>
    <contour>
      <point x="128" y="629" type="line"/>
      <point x="139" y="640" type="line"/>
      <point x="80" y="675" type="line"/>
      <point x="72" y="661" type="line"/>
    </contour>
    <contour>
      <point x="128" y="711" type="line"/>
      <point x="72" y="679" type="line"/>
      <point x="80" y="665" type="line"/>
      <point x="139" y="700" type="line"/>
    </contour>
  </outline>
</glyph>
